<svg xmlns="http://www.w3.org/2000/svg" viewBox="0 0 68.18 35.43"><defs><style>.cls-1{fill:#fff;}</style></defs><title>Asset 2</title><g id="Layer_2" data-name="Layer 2"><g id="L_Leergrundriss"><path class="cls-1" d="M68.18,17.71a1.65,1.65,0,0,0,0-.17c0-.06,0-.12,0-.18a.06.06,0,0,1,0,0l0-.11,0,0c0-.06,0-.11-.05-.17v0a1.64,1.64,0,0,0-.09-.16l-.08-.14v0a2.09,2.09,0,0,0-.16-.19l-.06-.07h0L51.47.53a1.86,1.86,0,1,0-2.6,2.65L61.78,15.86H1.86a1.86,1.86,0,1,0,0,3.71H61.78L48.87,32.25a1.86,1.86,0,1,0,2.6,2.65L67.63,19h0l.06-.07a2,2,0,0,0,.16-.19v0l.08-.14a1.63,1.63,0,0,0,.09-.16v0a1.72,1.72,0,0,0,.05-.17l0,0,0-.11a.07.07,0,0,1,0,0c0-.06,0-.12,0-.18a1.63,1.63,0,0,0,0-.17h0Z"/></g></g></svg>