<?xml version="1.0" encoding="UTF-8"?>
<svg width="25px" height="25px" viewBox="0 0 25 25" version="1.1" xmlns="http://www.w3.org/2000/svg" xmlns:xlink="http://www.w3.org/1999/xlink">
    <!-- Generator: Sketch 50.2 (55047) - http://www.bohemiancoding.com/sketch -->
    <title>instagram</title>
    <desc>Created with Sketch.</desc>
    <defs></defs>
    <g id="Social-Icons" stroke="none" stroke-width="1" fill="none" fill-rule="evenodd">
        <g id="social-icons" transform="translate(-235.000000, -30.000000)">
            <g id="instagram" transform="translate(220.000000, 30.000000)">
                <rect id="Rectangle" x="0" y="10" width="44" height="44"></rect>
                <path d="M27.5,2.27272727 C30.8309982,2.27272727 31.2255224,2.28540434 32.5409661,2.34542232 C33.7572712,2.40093401 34.4178156,2.60416323 34.8574523,2.77495698 C35.439706,3.00126242 35.8553256,3.27164048 36.2918426,3.70815743 C36.7283595,4.14467438 36.9987376,4.56029398 37.2249935,5.14254767 C37.3958368,5.58218436 37.599066,6.24272884 37.6545777,7.45898441 C37.7145957,8.77447763 37.7272727,9.1690018 37.7272727,12.5 C37.7272727,15.8309982 37.7145957,16.2255224 37.6545777,17.5409661 C37.599066,18.7572712 37.3958368,19.4178156 37.2249935,19.8574523 C36.9987376,20.439706 36.7283595,20.8553256 36.2918426,21.2918426 C35.8553256,21.7283595 35.439706,21.9987376 34.8574523,22.2249935 C34.4178156,22.3958368 33.7572712,22.599066 32.5409661,22.6545777 C31.2257204,22.7145957 30.8311963,22.7272727 27.5,22.7272727 C24.1688037,22.7272727 23.7742796,22.7145957 22.4590339,22.6545777 C21.2427288,22.599066 20.5821844,22.3958368 20.1425972,22.2249935 C19.560294,21.9987376 19.1446744,21.7283595 18.7081574,21.2918426 C18.2716405,20.8553256 18.0012624,20.439706 17.7750065,19.8574523 C17.6041632,19.4178156 17.400934,18.7572712 17.3454223,17.5410156 C17.2854043,16.2255224 17.2727273,15.8309982 17.2727273,12.5 C17.2727273,9.1690018 17.2854043,8.77447763 17.3454223,7.45903393 C17.400934,6.24272884 17.6041632,5.58218436 17.7750065,5.14254767 C18.0012624,4.56029398 18.2716405,4.14467438 18.7081574,3.70815743 C19.1446744,3.27164048 19.560294,3.00126242 20.1425972,2.77495698 C20.5821844,2.60416323 21.2427288,2.40093401 22.4589844,2.34542232 C23.7744776,2.28540434 24.1690018,2.27272727 27.5,2.27272727 M27.4999752,0 C30.8947962,0 31.3204761,0.0143894602 32.6536844,0.0752221435 C33.9842133,0.135955589 34.8928333,0.347232559 35.687975,0.656258621 C36.5099605,0.975704637 37.2070554,1.40312122 37.9019671,2.09803291 C38.5968788,2.7929446 39.0242954,3.49003952 39.3437414,4.31202502 C39.6527674,5.10716675 39.8640444,6.01578673 39.9247779,7.3463156 C39.9856105,8.6795239 40,9.10520382 40,12.5000248 C40,15.8948458 39.9856105,16.3205257 39.9247779,17.653734 C39.8640444,18.9842629 39.6527674,19.8928829 39.3437414,20.6880246 C39.0242954,21.5100101 38.5968788,22.207105 37.9019671,22.9020167 C37.2070554,23.5969284 36.5099605,24.024345 35.687975,24.343791 C34.8928333,24.6528171 33.9842133,24.864094 32.6536844,24.9248275 C31.3204761,24.9856602 30.8947962,25 27.4999752,25 C24.1051542,25 23.6795239,24.9856602 22.346266,24.9248275 C21.0157371,24.864094 20.1071171,24.6528171 19.3119754,24.343791 C18.4899899,24.024345 17.792895,23.5969284 17.0979833,22.9020167 C16.4030716,22.207105 15.975655,21.5099605 15.656209,20.6880246 C15.3471829,19.8928829 15.135906,18.9842629 15.0751725,17.653734 C15.0143398,16.3205257 15,15.8948458 15,12.5000248 C15,9.10520382 15.0143398,8.6795239 15.0751725,7.3463156 C15.135906,6.01578673 15.3471829,5.10716675 15.656209,4.31202502 C15.975655,3.49003952 16.4030716,2.7929446 17.0979833,2.09803291 C17.792895,1.40312122 18.4899899,0.975704637 19.3119754,0.656258621 C20.1071171,0.347232559 21.0157371,0.135955589 22.346266,0.0752221435 C23.6795239,0.0143894602 24.1051542,0 27.4999752,0 Z M26.9318182,5.68181818 C23.4800538,5.68181818 20.6818182,8.48005379 20.6818182,11.9318182 C20.6818182,15.3835826 23.4800538,18.1818182 26.9318182,18.1818182 C30.3835826,18.1818182 33.1818182,15.3835826 33.1818182,11.9318182 C33.1818182,8.48005379 30.3835826,5.68181818 26.9318182,5.68181818 Z M26.9318182,15.9090909 C24.7352576,15.9090909 22.9545455,14.1283788 22.9545455,11.9318182 C22.9545455,9.73525761 24.7352576,7.95454545 26.9318182,7.95454545 C29.1283788,7.95454545 30.9090909,9.73525761 30.9090909,11.9318182 C30.9090909,14.1283788 29.1283788,15.9090909 26.9318182,15.9090909 Z M36.5909091,6.24997181 C36.5909091,5.30856856 35.8277951,4.54545455 34.8863918,4.54545455 C33.9449886,4.54545455 33.1818182,5.30856856 33.1818182,6.24997181 C33.1818182,7.19137506 33.9449886,7.95454545 34.8863918,7.95454545 C35.8277951,7.95454545 36.5909091,7.19137506 36.5909091,6.24997181 Z" id="Shape" fill="#53555D"></path>
            </g>
        </g>
    </g>
</svg>