<svg id="Layer_1" data-name="Layer 1" xmlns="http://www.w3.org/2000/svg" viewBox="0 0 139.22 139.29"><defs><style>.cls-1,.cls-2,.cls-4{fill:none;}.cls-2{stroke:#c5ddda;stroke-width:0.5px;}.cls-2,.cls-4{stroke-miterlimit:10;}.cls-3{fill:#24a197;}.cls-4{stroke:#601e57;stroke-width:0.4px;}.cls-5{fill:#601e57;}.cls-6{fill:#ccab32;}</style></defs><title>The Light Tree chosen</title><path class="cls-1" d="M83.51,153.32A68.28,68.28,0,1,1,151.79,85,68.36,68.36,0,0,1,83.51,153.32ZM143.38,85" transform="translate(-13.69 -15.32)"/><path class="cls-2" d="M143.38,85" transform="translate(-13.69 -15.32)"/><path class="cls-3" d="M72.22,151a68.2,68.2,0,0,1-9.72-2.42A71.65,71.65,0,0,1,52,144.09a71.8,71.8,0,0,1-9.21-6c-1.54-1.16-3-2.49-4.52-3.65A33.25,33.25,0,0,1,35,131.13a61.65,61.65,0,0,1-6.33-7.72,66.71,66.71,0,0,1-5.12-8.58c-.62-1.14-1.08-2.39-1.63-3.58s-1-2.4-1.55-3.5c-.27-1.08-.66-2.14-1-3.22s-.67-2.14-.9-3.17-.45-2.11-.64-3.16-.35-2.08-.56-3c-.33-1.89-.35-3.54-.61-5.46-.22-1.15,0-3.14-.13-4.59a54.57,54.57,0,0,1,.92-11.06,66.37,66.37,0,0,1,2.61-10.66,79,79,0,0,1,3.19-7.92A69,69,0,0,1,27.75,48,65.12,65.12,0,0,1,34,40c2.31-2.49,4.77-4.82,7.29-7.06,2.64-1.9,5.16-3.87,7.9-5.57a59.32,59.32,0,0,1,9.65-4.54c.27-.1.73-.2.79-.23,2.89-1.6,6.89-2.32,10.2-3.23,1.68-.43,3.41-.44,5.45-.91a20.94,20.94,0,0,1,5.17-.36c.76,0,2,0,3,0a101.91,101.91,0,0,1,10.7.71c3,.78,6.27,1.29,9.32,2.24a38.68,38.68,0,0,1,4.7,1.79c2.54,1.23,5,2.27,7.34,3.43a53.92,53.92,0,0,1,6.63,4.26c.74.52,1.56,1.16,2.28,1.74l1.49,1.13c.49.39,1,.79,1.42,1.2A33.84,33.84,0,0,1,130,37.15c.91.88,1.77,1.86,2.69,2.79a37.5,37.5,0,0,1,2.51,3,25.83,25.83,0,0,1,2.19,2.81c.47.91,1.55,1.76,1.88,2.78a10.75,10.75,0,0,1,2,3.09c.21.5.6,1.12,1,1.79a21.1,21.1,0,0,1,1,2,9.4,9.4,0,0,0,.61,1.1c.46.88.92,1.78,1.32,2.71s.71,1.89,1,2.82c.38,1.39.95,2.61,1.28,3.88a47.43,47.43,0,0,1,1.6,6.4c.29,2.12.73,4.42,1,6.45.11,1.28.24,2.76.27,4.17,0,.7.08,1.39.15,2a11,11,0,0,0,.22,1.7,8,8,0,0,1-.2,2.61,25.28,25.28,0,0,0-.55,4,20.47,20.47,0,0,1-.44,3.31c-.21,1.06-.43,2.08-.71,3.11a108.14,108.14,0,0,1-4.34,12.85,7.71,7.71,0,0,1-.37.85,39.82,39.82,0,0,0-2,3.53c-.7,1.21-1.32,2.51-2.1,3.64s-1.33,2-2.06,2.89L136.85,125c-.38.47-.77.95-1.16,1.45-.82,1.12-1.77,2.14-2.65,3.19l-2.68,3a24.69,24.69,0,0,1-2.21,2.1c-2.15,1.8-4.31,3.68-6.63,5.29-.63.48-1.33.85-2,1.29s-1.41.91-2.17,1.44a21.81,21.81,0,0,1-2.11,1.3l-2.57,1.29a31.18,31.18,0,0,1-4.93,2c-4.28,2-8.82,2.81-13.37,3.59-.81.17-1.64.24-2.47.36s-1.65.23-2.48.28c-1.28.08-1.77.57-3.61.41-.15,0-1.37.17-1,.23,1.14.18-.28.26-.79.37s-.79.24-.17.26a14.75,14.75,0,0,1,2.53.37,5.64,5.64,0,0,0,1.78,0,11.13,11.13,0,0,1,2.41-.26,3.06,3.06,0,0,1,1.12.18,5.63,5.63,0,0,0,1.9.09c.82-.05,1.77-.24,2.71-.4,1.37-.21,2.66-.53,4-.77s2.56-.61,3.85-.94c.72-.23.62-.14.84-.15a12,12,0,0,0,3.3-1.05,5.85,5.85,0,0,1,2.13-1.14c.84-.34,1.71-.62,2.28-.84a31.93,31.93,0,0,0,3.4-1.66c1.11-.6,2.17-1.25,3.26-1.74a8.67,8.67,0,0,0,1.81-1.3c1.73-1.5,4.53-3.28,6.37-5a6.34,6.34,0,0,0,2.38-2,1.46,1.46,0,0,1,.54-.45,5,5,0,0,0,2-1.92,4.43,4.43,0,0,1,1.76-1.75,2.15,2.15,0,0,0,.74-.81A10.17,10.17,0,0,1,136.8,129a43.29,43.29,0,0,0,3.26-4.07l.88-1.24.78-1.25c.5-.81,1-1.55,1.28-2.2a26.58,26.58,0,0,1,1.46-2.47c.51-.83.61-.41,1-1.29l.62-1.33.58-1.36a41.63,41.63,0,0,0,2-5.14c.45-1.8,1.41-3.21,1.49-4.76.58-1.17.49-2.31.86-3.49a29.92,29.92,0,0,1,1-4.74c.09-.49.22.17.28-1,0-.27-.12-.17-.17-.36s-.09-.08,0-.84c.15-1.12.56-2.91.22-3.48a.83.83,0,0,1,0-.62c.49-.35.35-2.41.42-4a17.69,17.69,0,0,0,.08-1.82c0-1.06,0-2.91-.3-1.93a8,8,0,0,1-.1-1.32l.07-2.38c0-.64-.05-1.17-.1-1.74s-.12-1.18-.25-2l-.61-3-.38-1.72-.2-1c-.51-1.31-1-2.79-1.45-4.33s-1-3.1-1.6-4.5c-.43-1-.51-.57-.77-1.26s.07-.45-.39-1.51c-.29-.66-.55-1.36-.84-2a4.87,4.87,0,0,0-1-1.43,5.26,5.26,0,0,1-1.15-1.74,3.58,3.58,0,0,0-.69-1.46c-.82-1.26-.36-1.19-.94-2.22a3.7,3.7,0,0,1-1.25-1.81,10.8,10.8,0,0,0-2.08-2.89,3.69,3.69,0,0,1-1.33-1.79,20.55,20.55,0,0,1-2.23-2.45c-.59-.66-.12,0,0,.24.26.44.16.49,0,.45s-.93-.89-1.47-1.46c-.84-.92-.25-.43,0-.29.74.44.43-.16-.35-1.13s.84.46-.19-.69a10.57,10.57,0,0,0-2.08-1.82c-1.07-.7-.85-.88-1.31-1.33-.68-.67-1.4-1.35-2.17-2s-1.61-1.21-2.42-1.79c-1.5-1-2.91-1.89-4.6-3.06a14.4,14.4,0,0,0-3.91-2,10.19,10.19,0,0,1-2.38-1.17c-.74-.47-.19-.48-1.25-1-.54-.25-.38.2-1.84-.67a15.6,15.6,0,0,0-2.3-1,22.28,22.28,0,0,0-2.84-1c-.63-.16-1.28-.35-2-.55l-2-.54c-1.33-.4-2.62-.71-3.63-1-1.85-.61-1.73,0-3.35-.55a25.33,25.33,0,0,0-3.62-.71A8.48,8.48,0,0,0,89.7,16a3.72,3.72,0,0,1-1.85-.22,2.82,2.82,0,0,0-.94-.22c-1.09-.13-2.44.2-3.63-.16a32.57,32.57,0,0,0-4.35.07c-.77,0-1.52.06-2.26.1s-1.45.16-2.15.26a29.48,29.48,0,0,0-4.16.88c-1.14.28-3.12.78-4.46,1A42.92,42.92,0,0,0,56,21.05c-2.32.73-4.43,2.14-6.77,3.33A31.33,31.33,0,0,0,46,26.25l-1.63,1-1.56,1.06a7.67,7.67,0,0,0-1.64,1.31,3.82,3.82,0,0,1-.88.76c-1.3.84-2.58,1.91-3.8,2.9a37.11,37.11,0,0,0-3,2.9L31.7,38.37a20.58,20.58,0,0,1-2,2.13,15.5,15.5,0,0,0-1.32,1.87c-1.64,2.74-3.7,5.61-5.51,8.7a48.07,48.07,0,0,0-4.46,9.61c-.31.86-.66,2-1,2.76a55.85,55.85,0,0,0-1.84,6.32,19.35,19.35,0,0,0-.7,3.45c-.15,1-.18,2-.27,3-.07.81-.18,1.88-.26,2.51A32.76,32.76,0,0,0,14,83l-.11,2.17a18,18,0,0,1-.14,1.92,9.28,9.28,0,0,0,0,1.39l.11,1.59c.05,1.35.4,2.39.44,3.27a21.89,21.89,0,0,0,.38,3.06c.14.89.34,1.69.54,2.53a23.88,23.88,0,0,1,.66,2.82,13.48,13.48,0,0,0,.72,2.54c.29.81.6,1.58.94,2.34a16.16,16.16,0,0,1,1,3.05,14.46,14.46,0,0,0,.82,2.85c.44,1,.91,2.14,1.49,3.22.41.77.86,1.49,1.29,2.24a15.51,15.51,0,0,1,1.21,2.33l.7.76a2.28,2.28,0,0,0,.22.69c.52.93.42.4.73.83.63.85,0,.4.88,1.69s1.67,2.31,2.61,3.41l1.36,1.71c.47.56.93,1.14,1.38,1.74A21.28,21.28,0,0,0,34,134c1.29,1.06,2.87,2.39,4.64,3.92.67.61,1.41,1.21,2.15,1.78A14.84,14.84,0,0,0,43,141.22a6.61,6.61,0,0,1,.77.53,7.69,7.69,0,0,0,3.1,2.3c1.24.56,2.19,1.54,3.52,2a14.87,14.87,0,0,1,2.4,1.36,34.12,34.12,0,0,0,3.85,2,29.63,29.63,0,0,0,4.2,1.41c1,.24,2.13.74,2.93.91,1.23.3,2.31.71,3.45,1a21.69,21.69,0,0,0,3.69.78c.94.11,2.06.35,3.24.51s2.4.41,3.56.5a7.33,7.33,0,0,0,3.09-.09c1.53-.47,2.51-1,2.6-1.53,0-.18.52-.41-.45-.52-1.51-.19-2.52-.43-4.69-.59-.9,0-1.82-.12-2.79-.26S73.39,151.28,72.22,151Z" transform="translate(-13.69 -15.32)"/><path class="cls-1" d="M141,85" transform="translate(-13.69 -15.32)"/><path class="cls-4" d="M141,85" transform="translate(-13.69 -15.32)"/><path class="cls-5" d="M29.25,63.24l-1.62,3.48-1.26-.59,3.91-8.4,1.26.59-1.62,3.48,8.9,4.13-.67,1.44Z" transform="translate(-13.69 -15.32)"/><path class="cls-5" d="M37.85,47.08l8.94,6.75-1,1.28-4-3L38,57.23l4,3-1,1.28L32,54.77l1-1.28,3.84,2.9,3.88-5.13-3.84-2.9Z" transform="translate(-13.69 -15.32)"/><path class="cls-5" d="M54,45.67l.9,1.06L48.73,52l-7.22-8.57,6-5.1.9,1.07-4.82,4.06,2.22,2.63,4.29-3.62.88,1-4.29,3.62,2.33,2.77Z" transform="translate(-13.69 -15.32)"/><path class="cls-5" d="M55.46,33.49l1.46-.67L61,41.74l5.52-2.52.58,1.27-7,3.19Z" transform="translate(-13.69 -15.32)"/><path class="cls-5" d="M65.26,29.52l1.53-.46L70,39.79l-1.53.46Z" transform="translate(-13.69 -15.32)"/><path class="cls-5" d="M79.69,32.31l1.52-.2.55,4.33a6.61,6.61,0,0,1-4,2A5.73,5.73,0,1,1,76.32,27a5.61,5.61,0,0,1,4.49,1.17l-.86,1.11a4.44,4.44,0,0,0-3.39-.87A4.31,4.31,0,1,0,77.64,37a4.74,4.74,0,0,0,2.51-1Z" transform="translate(-13.69 -15.32)"/><path class="cls-5" d="M95.09,27.65,93.85,38.78l-1.59-.18.55-5-6.39-.71-.55,5-1.59-.18,1.24-11.13,1.59.18-.53,4.79,6.39.71.53-4.79Z" transform="translate(-13.69 -15.32)"/><path class="cls-5" d="M101.69,31,98,29.74l.44-1.32,8.78,3-.44,1.32-3.64-1.22-3.12,9.3-1.5-.5Z" transform="translate(-13.69 -15.32)"/><path class="cls-5" d="M115.52,37.48l-3.21-2.11.77-1.16,7.73,5.1L120,40.47l-3.2-2.11-5.4,8.18-1.32-.87Z" transform="translate(-13.69 -15.32)"/><path class="cls-5" d="M120.83,54.69l.71-4.14c-.17-.15-.35-.3-.52-.47l-2-1.95-2.4,2.42-1.13-1.13,7.88-7.95,3.1,3.07c2.07,2,2.28,4.33.57,6.06a3.53,3.53,0,0,1-4.24.77l-.76,4.54Zm5.1-5.21c1.13-1.14,1-2.54-.45-4l-1.93-1.91L120,47.16l1.93,1.92C123.39,50.52,124.8,50.61,125.93,49.48Z" transform="translate(-13.69 -15.32)"/><path class="cls-5" d="M128.68,63.42l-1.17.76-4.45-6.81,9.38-6.13,4.33,6.62-1.17.76-3.45-5.28-2.88,1.88,3.07,4.7-1.14.75L128.14,56l-3,2Z" transform="translate(-13.69 -15.32)"/><path class="cls-5" d="M132.62,73l-1.3.51-3-7.57,10.42-4.1,2.89,7.36-1.3.51-2.31-5.87-3.2,1.26,2.06,5.23-1.27.5-2.06-5.23-3.37,1.32Z" transform="translate(-13.69 -15.32)"/><path class="cls-5" d="M79.3,120c-.14-.13-.37-.11-.54-.27s-.41-.25-.59-.42-.37-.29-.53-.47-.15-.21-.3-.24-.09-.18-.17-.26c-.31-.31-.54-.72-.83-1.06-.12-.13-.14-.34-.34-.41,0-.17-.16-.27-.21-.41a.92.92,0,0,0-.2-.38c-.11-.09-.07-.24-.2-.32s0-.22-.11-.3a2.19,2.19,0,0,1-.33-.7c-.09-.24-.27-.43-.37-.67a4,4,0,0,0-.26-.54c-.1-.19-.05-.41-.15-.6a11.88,11.88,0,0,0-.57-1.31c0-.25-.14-.43-.23-.64a6.5,6.5,0,0,1-.13-.75s0-.06,0-.07c-.29-.15-.14-.49-.34-.68s0-.26-.12-.37-.09-.23,0-.37,0-.14,0-.21a2.45,2.45,0,0,0-.26-.72c.09-.25-.1-.44-.14-.66a.79.79,0,0,1,0-.36c.07-.22-.06-.38-.14-.56a2.36,2.36,0,0,1-.07-.56,1.28,1.28,0,0,0,0-.2,1.3,1.3,0,0,1-.11-.52c0-.19-.1-.36-.06-.55s-.13-.14-.06-.24-.14-.14,0-.24c-.08-.06-.18-.11-.11-.25s-.06-.2,0-.31,0-.06-.05-.08a.53.53,0,0,1-.09-.42c0-.11-.05-.19-.05-.28s-.13-.29-.09-.46a.88.88,0,0,0-.09-.45c-.05-.18,0-.43-.28-.52-.06,0,0-.13,0-.19a.22.22,0,0,0,0-.3.71.71,0,0,1-.06-.46,1.68,1.68,0,0,0-.14-1s0-.05,0-.06c.16-.2,0-.39,0-.59a3.18,3.18,0,0,0,0-.52,1.46,1.46,0,0,0-.16-.57.31.31,0,0,1,0-.21,2.5,2.5,0,0,0-.09-.6c0-.11.06-.23-.06-.35s-.06-.25-.07-.37-.08-.25,0-.38c-.18-.32,0-.66-.08-1l0-.35c0-.09-.21-.11-.13-.25s-.08-.09-.11-.06-.14,0-.19,0-.12,0-.14,0-.15.13-.21.2-.06.09,0,.13,0,.21-.1.26-.18.21-.17.34a3.83,3.83,0,0,1,0,.56c0,.05,0,0-.06.07a.17.17,0,0,0,0,.24c.29,0,.12.24.09.33s.09.35,0,.52,0,.11.09.14c.21.13.1.38.22.54-.16.08-.11.15,0,.22s0,0,0,.05c-.19.08-.08.13,0,.2s.14.12,0,.18,0,.06,0,.08.09.11.06.19a1.15,1.15,0,0,0,.07.74.22.22,0,0,1,0,.2c0,.07-.17.07-.14.13a.81.81,0,0,1,.08.2c0,.13,0,.28.1.37s-.11.26.07.34c-.1.1.09.15.05.24.17.1,0,.22,0,.34s-.12,0-.07.08.08,0,.11,0,.05,0,.07,0-.11.22.1.23c0,0,0,0,0,0-.22.06-.1.19-.1.3s0,.08,0,.13,0,.21.15.11c0,0,0,.06,0,.09-.18.31-.19.31-.06.65a.55.55,0,0,1,0,.19c.24.15.14.42.23.62s.14,0,.15.08-.12,0-.11.13-.05.22.14.25.17,0,.13.12-.11,0,0,.12-.13.11-.15.2.15,0,.07.14a.14.14,0,0,0,.05.24c.11.05.12.1,0,.16.14,0,.08.14.11.21s.06,0,.08,0a.19.19,0,0,1,.15-.05c.09,0,.09.07.09.13s-.06,0-.1,0a.21.21,0,0,0-.26.13c0,.09-.16,0-.17.08a.17.17,0,0,0,.12.17c.14.06,0,.09,0,.14a.47.47,0,0,0,.08.4.48.48,0,0,1,.12.37c0,.14.09.21.22.26s.11.08.07.17-.16.06-.14.14.18,0,.11.11,0,.12,0,.17,0,.14.07.2a.57.57,0,0,1,.16.53c0,.15.22.06.11.21a.55.55,0,0,0,0,.27.15.15,0,0,0,.07.12c.06,0,.08.09,0,.14s0,.05-.06.09.18.13,0,.26,0,.2,0,.31a.63.63,0,0,0,.23.56.38.38,0,0,1,.1.3,1,1,0,0,0,.2.7c-.08.2.15.31.14.51a4.81,4.81,0,0,0,.1.52.12.12,0,0,0,.09.12s.06,0,.05.07a.85.85,0,0,0,.09.63c.09.11.22.19.16.37s.07.1.12.13a.76.76,0,0,1,.37.63,1.48,1.48,0,0,0,.29.69.34.34,0,0,1,.07.19c0,.17.15.3.16.44s.17.26.28.38.09.1.09.15c0,.22.19.39.08.63,0,.08,0,.14.06.21s.19.09.18.17.07.13.09.2.23.14.25.31.18.18.3.25a.16.16,0,0,1,.08.22.39.39,0,0,0,.12.48c.09.09.27.11.24.3h.14s-.06.07,0,.1.08,0,.12,0-.07.08,0,.17.33.26.38.51c0,.06.13.13.25.16a.73.73,0,0,1,.41.23c.08.1.16.24.31.25s.06,0,.06,0-.07.28.15.26.08.22.25.18.1.1.12.18a.58.58,0,0,0,.55.39c.09,0,.15.09.21.11s.28.27.51.29a2.18,2.18,0,0,1,.53.24.22.22,0,0,0,.3-.09,1.32,1.32,0,0,0,.27-.81.81.81,0,0,0,0-.27c0-.08-.09-.23-.19-.23A1.52,1.52,0,0,1,79.3,120Z" transform="translate(-13.69 -15.32)"/><path class="cls-5" d="M79.58,139.48c0-.2,0-.43,0-.66a5.58,5.58,0,0,0,0-.76c0-.24,0-.48,0-.72s0-.26-.06-.38.06-.19.06-.3c0-.44,0-.88,0-1.32,0-.17.07-.35-.07-.51.08-.15,0-.3,0-.44a.85.85,0,0,0,0-.41c0-.13.07-.23,0-.36s.05-.21,0-.3a2,2,0,0,1,0-.73c0-.24-.05-.48,0-.72a3.29,3.29,0,0,0,0-.56c0-.2.1-.37.08-.58a6.63,6.63,0,0,0-.07-1.34c.11-.21,0-.42,0-.64a5.76,5.76,0,0,1,.11-.7s0,0,0-.05c-.24-.22,0-.48-.11-.71s.12-.23,0-.36,0-.23,0-.34,0-.13,0-.19a2.15,2.15,0,0,0-.07-.71c.15-.21,0-.42,0-.63a.7.7,0,0,1,.05-.33c.12-.19,0-.36,0-.53a2,2,0,0,1,0-.52,1.12,1.12,0,0,0,0-.19,1.13,1.13,0,0,1,0-.5c0-.17,0-.34.05-.52s-.1-.15,0-.24-.11-.15,0-.22c-.07-.07-.15-.13-.06-.24s0-.19.06-.28,0-.06,0-.08a.46.46,0,0,1,0-.4c0-.09,0-.18,0-.27s-.08-.29,0-.44a.77.77,0,0,0,0-.43c0-.17.06-.39-.2-.52-.05,0,0-.13,0-.17a.2.2,0,0,0,.09-.27c-.08-.15,0-.29,0-.43a1.46,1.46,0,0,0,0-.9s0-.05,0-.06c.19-.17.05-.36.07-.55a2.57,2.57,0,0,0,.09-.48,1.28,1.28,0,0,0-.09-.54.27.27,0,0,1,0-.2,2.16,2.16,0,0,0,0-.56c0-.1.08-.21,0-.33s0-.23,0-.35-.05-.24,0-.35c-.15-.31.05-.61,0-.92,0-.11,0-.22,0-.33s-.2-.12-.1-.24-.07-.09-.11-.07-.13,0-.18-.05-.12-.05-.13,0-.16.1-.23.16-.07.08,0,.12,0,.2-.13.23-.21.17-.21.3a3.29,3.29,0,0,1-.11.51s0,0-.06.05a.15.15,0,0,0-.06.22c.28.08.09.23.05.31s.05.33-.06.48,0,.1.07.14.05.36.16.52c-.16.05-.13.12,0,.2s0,0,0,0c-.19,0-.1.11,0,.18s.13.12,0,.16,0,.05,0,.07.08.11,0,.18a1,1,0,0,0,0,.69.19.19,0,0,1,0,.18c0,.06-.18,0-.16.1a.68.68,0,0,1,0,.19c0,.12,0,.26,0,.35s-.15.22,0,.32c-.11.08.07.15,0,.23.15.11,0,.21,0,.31s-.12,0-.08.06.07,0,.11,0,.05,0,.06.05-.14.19.06.22c0,0,0,0,0,0-.22,0-.13.15-.14.26s-.06.07-.05.12-.06.18.13.12c0,0,0,.06,0,.08-.23.25-.23.25-.16.58a.55.55,0,0,1,0,.18c.22.18.08.4.12.59s.14,0,.13.09-.13,0-.13.1-.1.19.09.25.16.06.11.13-.11,0-.07.1-.15.08-.18.15.14.07,0,.14a.12.12,0,0,0,0,.23c.1.07.09.11,0,.14.13.05.05.14.06.21s.06,0,.09,0a.2.2,0,0,1,.15,0c.09,0,.07.08.06.13s-.06,0-.1,0a.22.22,0,0,0-.28.07c-.05.07-.15-.06-.18,0a.15.15,0,0,0,.08.17c.12.08,0,.08,0,.12a.4.4,0,0,0,0,.38.41.41,0,0,1,0,.35c-.05.12.05.2.16.28s.09.1,0,.17-.17,0-.17.1.18,0,.08.12,0,.11,0,.16,0,.13,0,.19a.48.48,0,0,1,0,.5c-.08.12.2.11.06.22a.48.48,0,0,0-.1.23.13.13,0,0,0,0,.12c0,.05.06.1,0,.12s-.06,0-.08.06.14.16,0,.23,0,.19,0,.28a.55.55,0,0,0,.07.55.32.32,0,0,1,0,.29.82.82,0,0,0,0,.66c-.14.15.05.31,0,.48s0,.32-.06.48,0,.09,0,.13.06,0,0,.07a.8.8,0,0,0-.13.57c0,.12.14.23,0,.36s0,.1.07.14a.64.64,0,0,1,.12.65,1.22,1.22,0,0,0,0,.67.24.24,0,0,1,0,.19c-.08.14,0,.3-.05.42s0,.28.09.41,0,.12,0,.16,0,.39-.2.54,0,.13,0,.19.11.15.07.21,0,.13,0,.2.13.21,0,.35.06.22.13.33a.13.13,0,0,1,0,.2.34.34,0,0,0-.16.41c0,.11.15.22,0,.33l.12.06s-.09,0-.1,0,.07,0,.09.07-.1,0-.1.12.11.36,0,.55,0,.16.07.25a.56.56,0,0,1,.15.39c0,.12,0,.24.06.35s0,.05,0,.06-.26.12-.1.25-.12.17,0,.26,0,.12-.06.17a.45.45,0,0,0,0,.55c0,.06,0,.14,0,.2s-.12.29,0,.47,0,.29-.05.44,0,.15.15.2a2.6,2.6,0,0,0,.84.16c.09,0,.22,0,.27,0s.22-.17.2-.31A3.16,3.16,0,0,1,79.58,139.48Z" transform="translate(-13.69 -15.32)"/><circle class="cls-5" cx="65.21" cy="96.45" r="2.61"/><path class="cls-5" d="M75.63,112.33c0,.16.1.31.12.48a1.66,1.66,0,0,0,.22.53,2.55,2.55,0,0,0,.29.46c.06.07.09.18.23.18s.05.15.12.2a3.39,3.39,0,0,0,.81.56c.11.05.21.18.38.09.07.12.21.08.3.12s.2.12.3.09.17.1.27,0,.15.06.22,0a1.55,1.55,0,0,1,.55,0c.19,0,.34-.13.52-.17a1.1,1.1,0,0,0,.37-.2c.12-.08.29,0,.41-.14s.59-.37.69-.72c.18-.06.19-.26.25-.4s.25-.26.33-.42.06,0,.05,0c-.16-.23.13-.34,0-.54s.15-.15,0-.27,0-.17.07-.25,0-.1,0-.15a.9.9,0,0,0-.12-.52c.14-.18-.05-.31-.07-.46s-.07-.16,0-.25-.07-.27-.17-.37-.1-.25-.17-.36,0-.1-.07-.13a.82.82,0,0,1-.25-.29c-.06-.13-.21-.16-.26-.31s-.16,0-.16-.1-.16,0-.13-.11c-.09,0-.17.08-.19,0s-.14-.06-.17-.16,0,0-.07,0a.31.31,0,0,1-.29-.11c-.06-.06-.14,0-.2-.07s-.23,0-.33-.07-.23,0-.33,0-.3-.09-.39.19c0,.05-.09,0-.13,0s-.15-.12-.21-.07-.21,0-.32,0-.49,0-.65.2c0,0,0,0,0,0-.2-.12-.28.08-.4.14a1.06,1.06,0,0,0-.35.14.66.66,0,0,0-.25.35c0,.07-.05.09-.1.12s-.18.23-.25.35-.16.09-.12.22-.06.17-.1.25,0,.18-.15.23c.06.27-.2.42-.22.67,0,.08,0,.17,0,.25s.2.1.09.19.07.07.11.05.14,0,.19,0,.12,0,.14,0,.17-.06.24-.1.08,0,0-.07,0-.12.14-.12.22-.06.23-.12.12-.15.17-.22,0,0,.07,0,.11-.06.09-.08c-.26-.14,0-.14,0-.15s0-.16.16-.16,0,0,0-.09.06-.17,0-.3c.15.09.14,0,.09-.06s0,0,0,0,.11,0,.07-.05,0-.14.08,0,0,0,0,0,0-.1,0-.09a.29.29,0,0,0,.29-.17s0,0,.09,0,.11.16.12.12a.18.18,0,0,1,.06-.08s.11,0,.13-.1.14.11.14-.06c.07.1,0-.09.1,0,0-.17.1,0,.15,0s0,.13,0,.08a.91.91,0,0,0,0-.11s0-.05,0-.07.1.14.1-.07c0,0,0,0,0,0,0,.23.08.13.13.14s0,.06.05.06.08.07.06-.13a0,0,0,0,1,0,0c.1.24.08.25.25.19s.07,0,.07,0c.13-.2.2,0,.3,0s.07-.12.09-.11,0,.12,0,.15,0,.13.14,0,.1-.13.11-.07-.05.1,0,.09,0,.15,0,.2.11-.11.08,0,0,.12.09.06.1,0,0,.07c.1-.09.08,0,.12,0s0,0,.05-.07a.41.41,0,0,1,.1-.12c.07-.06.08,0,.1,0s0,.06-.07.08a.4.4,0,0,0-.17.23c0,.06-.13.1-.11.14s0,0,.11,0,0,0,0,.07,0,.11.1.12.15,0,.12.1.09,0,.21,0,.1,0,.06.06-.15.09-.14.12.17-.07.1,0,0,.05,0,.07,0,.06.05.07.16.14.08.22.21,0,.08.09a.21.21,0,0,0-.08.12s0,0,0,.05.06,0,0,.06a.17.17,0,0,0-.08,0c-.06,0,.15.07,0,.1s0,.08-.06.11-.07.14,0,.24,0,.1,0,.12-.16.14-.11.26c-.16,0,0,.14-.11.17s-.08.11-.16.13,0,0,0,.07,0,0,0,0-.25,0-.25.09,0,.17-.09.11,0,0,0,.09c.06.21-.06.25-.17.25a.28.28,0,0,0-.27.13.06.06,0,0,1-.08,0c-.08-.06-.13,0-.19,0s-.11.06-.16.12,0,0-.07,0-.18,0-.24-.2,0,0-.07,0-.07.11-.09.06-.05,0-.07,0-.11.12-.15,0-.11,0-.17.09-.08,0-.07-.08,0-.21-.09-.22-.15.1-.12-.05l-.09.09a.51.51,0,0,0,0-.1s-.05.05-.07.06,0-.09,0-.11-.2,0-.17-.14,0,0-.13,0-.19,0-.22,0,0-.12-.14-.09,0,0,0,0,.19-.19,0-.15.07-.12-.08-.09,0-.06,0-.1.07-.19-.08-.23,0-.06,0-.07.09-.15,0-.2,0-.13,0-.19,0-.06-.16-.08a8.05,8.05,0,0,0-.86-.07c-.09,0-.23,0-.27,0s-.22.13-.19.23S75.62,112.21,75.63,112.33Z" transform="translate(-13.69 -15.32)"/><path class="cls-5" d="M75.91,112.28c0,.14.08.28.11.44a1.86,1.86,0,0,0,.2.48,2.58,2.58,0,0,0,.27.42c.05.07.09.15.19.18s.06.12.12.17a3,3,0,0,0,.74.51c.1.05.2.14.34.1s.19.07.28.1a.49.49,0,0,0,.27.07c.09,0,.15.07.25,0s.14,0,.21,0a2.73,2.73,0,0,1,.5,0,2.17,2.17,0,0,0,.48-.14,1.27,1.27,0,0,0,.34-.17,3.17,3.17,0,0,0,.37-.15,2,2,0,0,0,.65-.64c.14-.08.17-.23.24-.36s.2-.25.27-.4l0,0c-.08-.19.11-.31.07-.49s.1-.14,0-.25a.23.23,0,0,1,0-.23s0-.09,0-.13a1.1,1.1,0,0,0-.08-.48c.08-.16-.05-.28-.08-.42a.55.55,0,0,1,0-.22c0-.15-.08-.24-.15-.34s-.1-.22-.17-.32a.84.84,0,0,0-.07-.11,1.27,1.27,0,0,1-.23-.26c-.06-.1-.19-.15-.25-.27s-.12,0-.14-.09-.12,0-.12-.1-.13,0-.16-.06-.12-.06-.16-.12,0,0-.06,0a.44.44,0,0,1-.26-.1.55.55,0,0,0-.18-.06c-.1,0-.21,0-.3-.06a.55.55,0,0,0-.3,0c-.12,0-.28-.06-.36.11s-.08,0-.12,0a.13.13,0,0,0-.19,0c-.1.07-.2,0-.29,0a.84.84,0,0,0-.59.19l0,0c-.16-.06-.24.09-.35.14a1.19,1.19,0,0,0-.3.15.81.81,0,0,0-.25.29.21.21,0,0,1-.09.11,1.1,1.1,0,0,0-.23.31c0,.06-.12.1-.11.2s-.06.15-.1.22,0,.16-.12.21c0,.23-.17.39-.19.61s0,.15,0,.23.12.09.05.17,0,.06.06,0,.08,0,.11,0,.07,0,.08,0,.1-.06.14-.1,0,0,0-.07,0-.12.09-.12a.15.15,0,0,0,.15-.14,1.12,1.12,0,0,1,.13-.25s0,0,0,0,.09-.08.07-.09,0-.13,0-.16,0-.17.15-.2,0,0,0-.08.08-.17.08-.28c.1,0,.1,0,.08-.07s0,0,0,0,.08,0,.07-.06,0-.1.08,0,0,0,0,0,0-.07.06-.08a.57.57,0,0,0,.31-.19.08.08,0,0,1,.09,0s.07.09.09.06l.07-.07c.05,0,.12,0,.16-.09s.13,0,.15-.06c.06.06.06-.06.11,0s.11,0,.16,0,0,.08,0,0,0,0,0-.07,0,0,0,0,.11.08.11,0,0,0,0,0,.08.08.14.08,0,0,.06,0,.09,0,.07-.08,0,0,0,0,.11.16.28.13a.18.18,0,0,1,.08,0c.12-.11.21,0,.31,0s.05-.07.08-.06,0,.08,0,.1.06.1.14,0,.08-.07.09,0,0,.06,0,.06,0,.1,0,.14.08-.06.07,0,0,.1.09.07.08,0,0,.06.07,0,.11,0,0,0,0,0a.14.14,0,0,1,.05-.08s.06,0,.08,0,0,0,0,.05a.15.15,0,0,0-.09.15s-.09,0-.06.09,0,0,.09,0,0,0,0,.06a.18.18,0,0,0,.12.14c.06,0,.12.05.12.13s.08.07.16.07.07,0,.06.07-.09.06-.07.09.1,0,.07,0,0,.05,0,.08,0,.06,0,.09a.2.2,0,0,1,.08.24c0,.07.13,0,.05.1a.23.23,0,0,0,0,.13.07.07,0,0,0,0,.06s0,.05,0,.06a.08.08,0,0,0,0,0s.09.08,0,.11,0,.09,0,.13a.25.25,0,0,0,0,.27.12.12,0,0,1,0,.14.38.38,0,0,0-.12.3c-.11,0,0,.15-.12.2s-.09.13-.16.17,0,0,0,.07,0,0,0,0-.21.08-.24.15,0,.14-.12.12,0,0,0,.07-.12.21-.23.24a.65.65,0,0,0-.3.15.1.1,0,0,1-.09,0c-.08,0-.15,0-.21,0s-.13,0-.19.09-.06,0-.08,0-.2,0-.27-.12-.06,0-.09,0-.08.07-.1,0-.06,0-.09,0-.12.06-.17,0-.11,0-.18,0-.08,0-.09-.06a.16.16,0,0,0-.14-.17c-.05,0-.14,0-.14-.07l-.06,0s0-.05,0-.06,0,0-.06,0,0-.06,0-.08-.19,0-.21-.16-.06,0-.12,0a.24.24,0,0,1-.2-.08s-.05-.11-.14-.12l0,0c0-.06.1-.14,0-.14s0-.11-.08-.1,0-.06,0-.1a.21.21,0,0,0-.1-.26s0-.07,0-.09,0-.16,0-.23,0-.14,0-.22,0-.07-.1-.09a2.28,2.28,0,0,0-.52-.08c-.06,0-.14,0-.16,0s-.13.12-.11.21Z" transform="translate(-13.69 -15.32)"/><path class="cls-5" d="M77.61,136.69c-.21.1-.38.32-.62.45s-.49.33-.74.48-.48.29-.73.43a1,1,0,0,0-.37.26c-.07.1-.22.06-.34.12a14.48,14.48,0,0,1-1.39.62c-.18.07-.4.07-.54.23-.18,0-.33.11-.49.12a1.34,1.34,0,0,0-.46.08c-.13.07-.27,0-.4.1s-.24,0-.34,0a1.87,1.87,0,0,1-.81,0c-.26,0-.53,0-.8,0a4.49,4.49,0,0,0-.61-.09c-.22,0-.37-.19-.57-.26a11.3,11.3,0,0,1-1.3-.65,3.74,3.74,0,0,0-.53-.43,3.36,3.36,0,0,1-.43-.64s0-.06,0-.07c-.3-.08-.27-.43-.45-.59s0-.24-.14-.34-.08-.22,0-.33,0-.14,0-.16h0l.08-.64c.19-.15.18-.39.31-.58a.8.8,0,0,1,.23-.27c.2-.1.26-.28.37-.44a1.91,1.91,0,0,1,.43-.37l.16-.11a1.68,1.68,0,0,1,.45-.29c.17-.06.29-.25.49-.25s.11-.13.23-.1.12-.15.22-.08c.05-.08.09-.17.23-.14s.2-.07.3,0,.05,0,.08,0a.65.65,0,0,1,.42-.09c.1,0,.19-.05.29,0s.31-.08.47,0,.32,0,.47,0,.43.09.6-.1c0,0,.15,0,.19.06a.29.29,0,0,0,.29.13,1,1,0,0,1,.47.11,2.86,2.86,0,0,0,1,.3s.06,0,.07,0c.13.21.37.2.56.29s.3.2.47.28a2,2,0,0,0,.59.21.37.37,0,0,1,.21.1,3.56,3.56,0,0,0,.57.3c.11.05.17.18.34.19s.24.12.36.2.26.12.32.26c.37.1.56.44.85.64l.3.23c.08.06.21,0,.26.11s.12,0,.11,0,.09-.07.14-.08.11,0,.08-.07,0-.18,0-.26,0-.1-.09-.11c-.21,0-.19-.14-.15-.25s-.06-.26-.18-.35-.29-.3-.45-.44,0-.05,0-.08-.18-.2-.2-.19c-.2.14-.27-.1-.34-.18s-.36-.18-.47-.36-.11-.06-.18,0c-.23,0-.4-.18-.62-.2,0-.15-.08-.16-.2-.14s0,0,0,0-.09-.13-.19-.11-.18,0-.16-.11-.05-.05-.08,0-.14,0-.21-.07a1.62,1.62,0,0,0-.77-.36.34.34,0,0,1-.2-.11c-.06-.06,0-.16-.07-.17l-.23,0a1.44,1.44,0,0,0-.43-.1c-.16,0-.23-.2-.38-.11-.07-.12-.2,0-.28-.06-.17.09-.26,0-.37-.11s0-.1-.07-.08,0,.06,0,.08,0,0-.07,0-.21-.16-.28,0,0,0,0,0-.18-.12-.31-.15-.08-.06-.14-.06-.23-.07-.17.09c0,0-.07,0-.11,0-.3-.22-.31-.22-.74-.14a.94.94,0,0,1-.23,0c-.21.18-.5.09-.75.19-.09,0,0,.12-.1.13s-.05-.09-.15-.08-.26,0-.29.13,0,.14-.14.12,0-.08-.14,0-.13-.08-.23-.07,0,.14-.16.1a.21.21,0,0,0-.27.11c-.05.11-.1.12-.18,0,0,.12-.15.1-.22.17s0,0,0,.05a.11.11,0,0,1,.08.09c0,.08-.06.11-.11.14s-.06,0-.06-.06-.08-.16-.18-.15,0-.15-.12-.1a.26.26,0,0,0-.16.18c0,.14-.09,0-.15.05a.78.78,0,0,0-.42.28,1,1,0,0,1-.32.34.35.35,0,0,0-.16.35.17.17,0,0,1-.13.18c-.07,0-.12-.06-.19,0s.09.1-.05.17-.1.1-.14.16a.79.79,0,0,0-.13.22,1.21,1.21,0,0,1-.32.59c-.13.13.09.2-.07.29a.82.82,0,0,0-.18.28.24.24,0,0,0,0,.17c0,.08,0,.15-.07.16s-.06,0-.08.08.08.2,0,.34l0,0c-.06.09,0,.29,0,.43a1,1,0,0,0,.29.73.91.91,0,0,1,.18.36,1.35,1.35,0,0,0,.47.75c0,.23.29.29.4.49a3.85,3.85,0,0,0,.42.48.23.23,0,0,0,.17.09s.06,0,.1,0A1.58,1.58,0,0,0,67,140a.75.75,0,0,1,.42.24s.14,0,.2,0a1.3,1.3,0,0,1,.83.24,2.34,2.34,0,0,0,.86.18.51.51,0,0,1,.24.06c.17.08.39,0,.54.07s.37,0,.54,0a.48.48,0,0,1,.2,0c.22.07.49,0,.7.1s.17,0,.25,0,.18-.13.25-.11.17,0,.25,0,.24-.16.42-.13.26-.13.37-.21a.22.22,0,0,1,.25,0,.56.56,0,0,0,.54,0c.12-.06.21-.22.38-.17l0-.12s.05.06.08.05,0-.07.05-.1.06.07.17,0,.37-.27.63-.29a.48.48,0,0,0,.25-.19,1.12,1.12,0,0,1,.37-.33.69.69,0,0,0,.35-.25s0,0,.06,0,.24.11.3-.08.23,0,.26-.19.13-.07.21-.08a.76.76,0,0,0,.58-.37c0-.07.14-.1.19-.15s.35-.13.48-.32a1.58,1.58,0,0,1,.45-.3.21.21,0,0,0,.11-.25,1.37,1.37,0,0,0-.29-.64c0-.06-.09-.16-.17-.14s-.26,0-.37.1S77.75,136.58,77.61,136.69Z" transform="translate(-13.69 -15.32)"/><path class="cls-5" d="M86.36,121.29a3.63,3.63,0,0,0,.74-.37,3.15,3.15,0,0,0,.75-.52,5.43,5.43,0,0,0,.64-.56c.1-.11.23-.19.26-.36s.2-.12.28-.22c.33-.39.62-.79.92-1.19.12-.15.28-.29.26-.52.15-.1.18-.28.28-.41a1.07,1.07,0,0,0,.26-.39c0-.14.2-.19.19-.36s.15-.18.17-.29a2.46,2.46,0,0,1,.36-.73c.14-.23.19-.5.32-.74A3.72,3.72,0,0,0,92,114c.06-.21.25-.34.31-.56a5.85,5.85,0,0,0,.46-1.41c.17-.19.14-.45.2-.67a7,7,0,0,1,.34-.7s.06,0,.06,0c-.15-.29.17-.5.13-.77s.18-.21.1-.39,0-.25.14-.35,0-.13.07-.2a2.57,2.57,0,0,0,.12-.77c.21-.18.13-.44.2-.66a.84.84,0,0,1,.14-.34.72.72,0,0,0,.15-.57,2.43,2.43,0,0,1,.15-.55,1.32,1.32,0,0,0,.06-.2,1.36,1.36,0,0,1,.1-.53c.08-.17,0-.38.16-.54s-.07-.18,0-.26-.08-.19.07-.23c-.05-.09-.12-.17,0-.27s0-.21.12-.29,0-.06,0-.1a.55.55,0,0,1,.08-.43c.06-.1,0-.2.05-.29s0-.32.06-.47a.91.91,0,0,0,.05-.47c0-.19.13-.41-.11-.59,0,0,0-.14.08-.18a.23.23,0,0,0,.13-.27.73.73,0,0,1,.09-.46,1.73,1.73,0,0,0,.16-1s0-.06,0-.07c.21-.15.11-.39.16-.58a2.83,2.83,0,0,0,.15-.5,1.51,1.51,0,0,0,0-.6.31.31,0,0,1,0-.22,2.56,2.56,0,0,0,0-.61c0-.11.11-.22,0-.36s0-.26,0-.39,0-.27.09-.38c-.11-.35.13-.65.15-1l0-.36c0-.09-.18-.15-.07-.27s-.06-.1-.1-.08-.13,0-.18-.07-.11-.07-.13,0-.17.1-.25.15-.08.08-.05.12,0,.21-.15.23-.23.17-.24.3a3.81,3.81,0,0,1-.17.54c0,.05,0,0-.07.05a.17.17,0,0,0-.08.23c.27.11.06.26,0,.34s0,.35-.12.5,0,.11.05.16,0,.39.09.58c-.17,0-.14.12,0,.21s0,0,0,0c-.2,0-.11.11,0,.19s.11.15-.05.17,0,.05,0,.08.06.12,0,.2a1.28,1.28,0,0,0-.12.73.22.22,0,0,1-.06.19c0,.06-.19,0-.18.09a.78.78,0,0,1,0,.21c0,.13-.06.27,0,.38s-.18.21,0,.34c-.13.07,0,.17,0,.25.13.14,0,.22-.08.32s-.12,0-.09.06.07,0,.11,0,0,0,.05.07-.17.18,0,.25c0,0,0,0,0,0-.22,0-.16.14-.18.25s-.07.06-.07.11-.09.19.11.15c0,0,0,.07,0,.09-.27.23-.27.23-.25.59a.53.53,0,0,1,0,.18c.19.23,0,.44,0,.65s.12.07.11.12-.13,0-.15.08-.14.18,0,.28.14.09.08.16-.11,0-.09.1-.16.05-.21.13.13.1,0,.16a.14.14,0,0,0,0,.24c.08.09.07.14-.06.14.12.08,0,.16,0,.24s.06,0,.09,0a.19.19,0,0,1,.15,0c.09,0,.05.1,0,.15s-.07,0-.1,0a.21.21,0,0,0-.29,0c-.07.07-.14-.09-.18,0a.17.17,0,0,0,0,.2c.1.11,0,.08-.07.11a.45.45,0,0,0-.08.4.47.47,0,0,1,0,.38c-.07.11,0,.23.1.33s.07.12,0,.18-.17,0-.19.06.17.06,0,.15-.05.1-.06.16-.05.13,0,.2a.55.55,0,0,1-.12.53c-.12.11.16.16,0,.24a.53.53,0,0,0-.16.22.14.14,0,0,0,0,.14c0,.07,0,.12-.07.11a.12.12,0,0,0-.09,0c-.07.06.1.2-.1.23s-.07.19-.12.27a.64.64,0,0,0-.08.59.36.36,0,0,1-.09.3.93.93,0,0,0-.24.66c-.18.11-.05.33-.17.48s-.12.32-.21.47a.12.12,0,0,0,0,.15s0,0,0,.08a1,1,0,0,0-.32.52c0,.13,0,.27-.13.36s0,.11,0,.17a.7.7,0,0,1-.15.69,1.37,1.37,0,0,0-.25.67.24.24,0,0,1-.09.18c-.14.1-.14.29-.24.37s-.09.28-.11.43,0,.13-.06.16-.18.37-.43.41c-.08,0-.08.11-.12.16s0,.19,0,.22-.08.11-.13.16,0,.25-.14.33-.07.23-.07.36,0,.16-.15.16-.28.13-.36.27,0,.26-.19.27l.06.12s-.09,0-.11,0,0,.07,0,.11-.1,0-.15,0-.13.37-.34.44c-.06,0-.11.12-.11.23a.56.56,0,0,1-.16.38c-.09.08-.2.14-.2.3s0,.05,0,0-.27-.12-.26.08-.2,0-.18.18-.1.06-.17.07-.37.07-.45.28-.11.07-.15.11-.29,0-.4.15-.24.06-.36.07-.1.05-.11.18c0,.28-.07.56-.09.85,0,.09-.06.22.05.26s.27.19.47.12S86.18,121.37,86.36,121.29Z" transform="translate(-13.69 -15.32)"/><path class="cls-5" d="M87,139.48c0-.2,0-.43,0-.66a5.58,5.58,0,0,0,0-.76c0-.24,0-.48,0-.72s0-.26-.06-.38.06-.19.06-.3c0-.44,0-.88,0-1.32,0-.17.07-.35-.07-.51.08-.15,0-.3,0-.44a.85.85,0,0,0,0-.41c0-.13.07-.23,0-.36s.05-.21,0-.3a2,2,0,0,1,0-.73c0-.24-.05-.48,0-.72a3.29,3.29,0,0,0,0-.56c0-.2.1-.37.08-.58a6.63,6.63,0,0,0-.07-1.34c.11-.21,0-.42,0-.64A5.76,5.76,0,0,1,87,128s0,0,0-.05c-.24-.22,0-.48-.11-.71s.12-.23,0-.36,0-.23,0-.34,0-.13,0-.19a2.15,2.15,0,0,0-.07-.71c.15-.21,0-.42,0-.63a.7.7,0,0,1,.05-.33c.12-.19,0-.36,0-.53a2,2,0,0,1,0-.52,1.12,1.12,0,0,0,0-.19,1.13,1.13,0,0,1,0-.5c0-.17,0-.34.05-.52s-.1-.15,0-.24-.11-.15,0-.22c-.07-.07-.15-.13-.06-.24s0-.19.06-.28,0-.06,0-.08a.46.46,0,0,1,0-.4c0-.09,0-.18,0-.27s-.08-.29,0-.44a.77.77,0,0,0,0-.43c0-.17.06-.39-.2-.52-.05,0,0-.13,0-.17a.2.2,0,0,0,.09-.27c-.08-.15,0-.29,0-.43a1.46,1.46,0,0,0,0-.9s0-.05,0-.06c.19-.17.05-.36.07-.55a2.57,2.57,0,0,0,.09-.48,1.28,1.28,0,0,0-.09-.54.27.27,0,0,1,0-.2,2.16,2.16,0,0,0,0-.56c0-.1.08-.21,0-.33s0-.23,0-.35-.05-.24,0-.35c-.15-.31.05-.61,0-.92,0-.11,0-.22,0-.33s-.2-.12-.1-.24-.07-.09-.11-.07-.13,0-.18-.05-.12-.05-.13,0-.16.1-.23.16-.07.08,0,.12,0,.2-.13.23-.21.17-.21.3a3.29,3.29,0,0,1-.11.51s0,0-.06.05a.15.15,0,0,0-.06.22c.28.08.09.23.05.31s.05.33-.06.48,0,.1.07.14.05.36.16.52c-.16.05-.13.12,0,.2s0,0,0,0c-.19,0-.1.11,0,.18s.13.12,0,.16,0,.05,0,.07.08.11,0,.18a1,1,0,0,0,0,.69.19.19,0,0,1,0,.18c0,.06-.18,0-.16.1a.68.68,0,0,1,0,.19c0,.12,0,.26,0,.35s-.15.22,0,.32c-.11.08.07.15,0,.23.15.11,0,.21,0,.31s-.12,0-.08.06.07,0,.11,0,.05,0,.06.05-.14.19.06.22c0,0,0,0,0,0-.22,0-.13.15-.14.26s-.06.07-.05.12-.06.18.13.12c0,0,0,.06,0,.08-.23.25-.23.25-.16.58a.55.55,0,0,1,0,.18c.22.18.08.4.12.59s.14,0,.13.09-.13,0-.13.1-.1.19.09.25.16.06.11.13-.11,0-.07.1-.15.08-.18.15.14.07,0,.14a.12.12,0,0,0,0,.23c.1.07.09.11,0,.14.13.05.05.14.06.21s.06,0,.09,0a.2.2,0,0,1,.15,0c.09,0,.07.08.06.13s-.06,0-.1,0a.22.22,0,0,0-.28.07c-.05.07-.15-.06-.18,0a.15.15,0,0,0,.08.17c.12.08,0,.08,0,.12a.4.4,0,0,0,0,.38.41.41,0,0,1,0,.35c-.05.12.05.2.16.28s.09.1,0,.17-.17,0-.17.1.18,0,.08.12,0,.11,0,.16,0,.13,0,.19a.48.48,0,0,1,0,.5c-.08.12.2.11.06.22a.48.48,0,0,0-.1.23.13.13,0,0,0,0,.12c0,.05.06.1,0,.12s-.06,0-.08.06.14.16,0,.23,0,.19,0,.28a.55.55,0,0,0,.07.55.32.32,0,0,1,0,.29.82.82,0,0,0,0,.66c-.14.15.05.31,0,.48s0,.32-.06.48,0,.09,0,.13.06,0,0,.07a.8.8,0,0,0-.13.57c0,.12.14.23,0,.36s0,.1.07.14a.64.64,0,0,1,.12.65,1.22,1.22,0,0,0,0,.67.24.24,0,0,1,0,.19c-.08.14,0,.3-.05.42s0,.28.09.41,0,.12,0,.16,0,.39-.2.54,0,.13,0,.19.11.15.07.21,0,.13,0,.2.13.21,0,.35.06.22.13.33a.13.13,0,0,1,0,.2.34.34,0,0,0-.16.41c0,.11.15.22,0,.33l.12.06s-.09,0-.1,0,.07,0,.09.07-.1,0-.1.12.11.36,0,.55,0,.16.07.25a.56.56,0,0,1,.15.39c0,.12,0,.24.06.35s0,.05,0,.06-.26.12-.1.25-.12.17,0,.26,0,.12-.06.17a.45.45,0,0,0,0,.55c0,.06,0,.14,0,.2s-.12.29,0,.47,0,.29-.05.44,0,.15.15.2a2.6,2.6,0,0,0,.84.16c.09,0,.22,0,.27,0s.22-.17.2-.31A3.16,3.16,0,0,1,87,139.48Z" transform="translate(-13.69 -15.32)"/><circle class="cls-5" cx="72.58" cy="96.45" r="2.61"/><path class="cls-5" d="M88.14,112.09c-.06.07,0,.19-.07.28a1.92,1.92,0,0,0-.13.3l-.17.26s-.1.06-.06.16-.1,0-.13.06a1.7,1.7,0,0,1-.46.33c-.07,0-.16,0-.18.15-.09-.05-.13,0-.19,0s-.14,0-.18,0-.11,0-.16,0-.09-.05-.13,0a.33.33,0,0,1-.31,0c-.1,0-.21,0-.31,0a1.11,1.11,0,0,0-.25-.06c-.09,0-.09-.17-.18-.2s-.25-.29-.48-.34c0-.14-.12-.14-.18-.22s0-.23,0-.32,0,0,0,0c-.26,0,0-.2-.2-.26s.1-.12,0-.16,0-.1,0-.15,0-.06,0-.08a.54.54,0,0,0,0-.31c.16-.06.05-.18.09-.27s0-.1.1-.12.1-.12.1-.21.11-.11.15-.16.06,0,.06-.05a.18.18,0,0,1,.13-.16c.08,0,.08-.12.19-.1s0-.12.07-.07,0-.13.08,0c0-.07,0-.16.06-.1s.06-.06.13,0,0,0,0,0,.08-.1.15-.07.07,0,.1,0,.1-.11.17-.06.12,0,.17,0,.16,0,.22-.21c0-.05.06,0,.08.05s.07.13.11.1.13,0,.18,0,.19.21.36.13c0,0,0,0,0,0,0,.2.11.11.17.17s0,.16.11.18.1.1.22.08.05,0,.06.06.11.11.16.17,0,.12.09.11.08.07.1.12.1.07,0,.15c.19.08,0,.26.06.38l0,.13s.2,0,.11.1a.17.17,0,0,0,.11,0c.11,0,.14,0,.19,0s.12,0,.14,0,.16-.06.23-.1.07,0,0-.07,0-.11.12-.15.19-.14.18-.22a2.76,2.76,0,0,1,0-.37s0,0,0-.06,0-.18,0-.17c-.28.05-.14-.12-.14-.18s-.15-.18-.1-.33-.05-.05-.11,0c-.21,0-.19-.17-.34-.19.1-.13,0-.15-.07-.12s0,0,0,0,0-.13-.07-.1-.15,0-.06-.1,0,0,0,0-.11,0-.12-.06a.45.45,0,0,0-.38-.29c-.05,0-.08,0-.1-.09s.06-.18,0-.18l-.14,0c-.08,0-.17-.09-.25-.05s-.11-.2-.22-.06c0-.13-.12,0-.16,0-.11.13-.14,0-.21-.07s0-.12,0-.09,0,.07,0,.11,0,.05,0,.06-.12-.16-.16,0c0,0,0,0,0,0,0-.23-.1-.14-.17-.16s0-.06-.08-.05-.14-.06-.08.14c0,0,0,0-.06,0-.2-.23-.21-.22-.44-.11a.27.27,0,0,1-.13,0c-.07.24-.26.15-.37.25s0,.14,0,.15-.07-.11-.12-.1-.17,0-.12.15,0,.16,0,.14-.06-.09-.09,0-.12-.1-.19-.1,0,.15-.06.09-.15,0-.13.1,0,.12-.1,0c.05.12,0,.1-.07.15s0,.05.06.06a.3.3,0,0,1,.11.11c.05.08,0,.09,0,.11s-.06,0-.08-.07a.28.28,0,0,0-.23-.17c-.08,0-.08-.14-.15-.11s-.06.08,0,.15-.06,0-.09,0a.22.22,0,0,0-.18.22c0,.1,0,.19-.11.24s0,.16,0,.26.05.1,0,.12-.16-.06-.19,0,.16.09,0,.12-.05.06-.06.1,0,.08,0,.14a.28.28,0,0,1-.08.36c-.11.07.18.11,0,.16s-.1.09-.12.15,0,.06,0,.09.06.08,0,.08a.12.12,0,0,0-.09,0c-.06.05.14.12-.05.17s0,.14,0,.21a.31.31,0,0,0,.13.4.2.2,0,0,1,.06.21.43.43,0,0,0,.14.48c-.08.17.15.19.14.33s.11.22.15.34,0,.06.1.06.06,0,.06,0a.45.45,0,0,0,.2.41c.1,0,.23,0,.22.18s.08,0,.13,0a.42.42,0,0,1,.48.17.56.56,0,0,0,.46.2.14.14,0,0,1,.13.06c.07.11.22.06.29.13s.22,0,.32,0,.09,0,.12,0,.28,0,.4.22.1,0,.15,0,.11-.12.15-.08.1,0,.15,0,.13-.15.25-.1.15-.1.2-.19.09-.08.16,0a.23.23,0,0,0,.35,0c.07-.05.08-.21.22-.13l0-.13s.06.07.08.07,0-.08,0-.1.07.08.13,0,.16-.25.34-.26.09-.09.09-.18a.39.39,0,0,1,.09-.31c.06-.05.15-.11.11-.23s0,0,0,0,.27.08.19-.09.17,0,.08-.17.05-.07.11-.09a.26.26,0,0,0,.18-.38c0-.06,0-.1,0-.14s.18-.18.12-.33.06-.21.1-.32,0-.12-.15-.16a3,3,0,0,0-.85-.12.72.72,0,0,0-.27,0c-.07,0-.23.07-.21.13S88.15,112,88.14,112.09Z" transform="translate(-13.69 -15.32)"/><path class="cls-5" d="M88.42,112.14c0,.09,0,.21-.08.32s-.09.23-.15.34-.13.2-.2.3-.1.08-.1.17-.09,0-.13.09a2,2,0,0,1-.53.38c-.08,0-.17,0-.22.14s-.14,0-.22,0-.15,0-.21,0-.12,0-.18,0-.1,0-.15,0a.61.61,0,0,1-.36,0,2.93,2.93,0,0,1-.35-.06c-.09,0-.18-.05-.27-.08s-.13-.15-.22-.19-.32-.3-.52-.42c0-.13-.13-.17-.19-.26s-.06-.23-.1-.34,0,0,0,0c-.18-.05-.06-.23-.17-.31s.05-.12,0-.18,0-.11,0-.17,0-.06,0-.1a1.34,1.34,0,0,0,0-.36c.1-.09.05-.2.09-.3s0-.11.09-.14.1-.15.11-.24.11-.14.16-.2.05,0,.06-.07a.36.36,0,0,1,.15-.18c.08,0,.11-.13.2-.15s0-.09.09-.07,0-.1.09-.05,0-.11.08-.09.08-.06.14,0,0,0,0,0a.16.16,0,0,1,.17-.08c.05,0,.08,0,.12,0s.12-.08.2-.06.14,0,.21,0,.19,0,.26-.13.07,0,.09,0a.1.1,0,0,0,.13.07c.08,0,.15,0,.21,0s.25.16.42.15h0c0,.14.14.11.21.17s.09.14.15.17a.59.59,0,0,0,.23.13s.05,0,.07.07a1.37,1.37,0,0,0,.18.2s0,.11.09.13.08.09.1.14.08.09,0,.17c.14.11.06.29.09.43l0,.16s.12.05.07.11,0,0,.07,0,.08,0,.11,0,.07,0,.08,0,.09-.06.14-.1,0,0,0-.07,0-.11.07-.14.11-.13.1-.2,0-.22,0-.34,0,0,0,0a.1.1,0,0,0,0-.15c-.18,0-.1-.12-.11-.18s-.12-.18-.12-.3,0-.05-.09-.06-.16-.17-.28-.22c.05-.09,0-.11-.08-.1s0,0,0,0,0-.1-.07-.09-.11,0-.06-.08,0,0,0,0-.08,0-.1-.06a.6.6,0,0,0-.36-.27.14.14,0,0,1-.1-.08s0-.11,0-.12l-.13,0a.44.44,0,0,0-.23-.06c-.09,0-.11-.14-.2-.06,0-.08-.11,0-.15,0s-.13,0-.2-.06,0-.07,0-.05,0,0,0,.07,0,0,0,0-.12-.1-.15,0,0,0,0,0-.1-.09-.16-.1,0,0-.08,0-.13,0-.08.08,0,0-.06,0c-.18-.13-.18-.12-.4,0a.38.38,0,0,1-.12,0c-.08.15-.24.12-.36.19s0,.09,0,.1,0-.06-.09,0-.14,0-.12.12,0,.1,0,.1,0-.06-.08,0-.09-.05-.14,0,0,.1-.07.07-.12,0-.12.09,0,.09-.09,0,0,.08-.08.12,0,0,0,0a.12.12,0,0,1,.07.06s0,.07,0,.09,0,0,0,0a.13.13,0,0,0-.15-.09c-.06,0,0-.09-.1-.06a.11.11,0,0,0,0,.12c0,.09,0,0-.08,0a.27.27,0,0,0-.16.2.36.36,0,0,1-.11.21c-.07.05,0,.14,0,.21s0,.08,0,.11-.1,0-.12,0,.09.06,0,.1,0,.06-.05.1,0,.08,0,.13a.39.39,0,0,1-.08.33c-.07.07.11.09,0,.15a.33.33,0,0,0-.08.15.08.08,0,0,0,0,.08s0,.07,0,.08,0,0-.05,0,.08.11,0,.16,0,.13,0,.19a.38.38,0,0,0,.09.37.27.27,0,0,1,0,.19.54.54,0,0,0,.13.44c0,.13.12.18.14.3a1.52,1.52,0,0,0,.15.3.08.08,0,0,0,.08.06s0,0,0,0a.53.53,0,0,0,.21.35c.08,0,.18,0,.2.16s.07,0,.11,0a.56.56,0,0,1,.41.19.71.71,0,0,0,.42.19.18.18,0,0,1,.12.05c.08.08.2.05.27.11s.2,0,.29,0a.18.18,0,0,1,.11,0c.11.07.26,0,.36.13s.09,0,.13,0,.1-.08.14-.05.09,0,.14,0,.13-.1.23-.08.14-.07.19-.13a.09.09,0,0,1,.14,0c.11.09.21,0,.3,0s.09-.15.2-.12v-.09s0,0,.06,0,0-.05,0-.07,0,0,.1,0,.16-.2.31-.24.08-.08.1-.15a.45.45,0,0,1,.11-.25.26.26,0,0,0,.12-.21s0,0,0,0,.18,0,.14-.1.12-.06.08-.16,0-.07.08-.09a.31.31,0,0,0,.16-.35s0-.09,0-.13.13-.18.1-.31.05-.19.07-.29,0-.11-.09-.14a1.29,1.29,0,0,0-.51-.11c-.06,0-.13,0-.16,0s-.14.08-.13.15A.7.7,0,0,1,88.42,112.14Z" transform="translate(-13.69 -15.32)"/><path class="cls-5" d="M86.88,137.58c.17.17.44.3.66.48a6.34,6.34,0,0,0,.78.52,8.72,8.72,0,0,0,.77.46,1.09,1.09,0,0,0,.43.19c.13,0,.19.15.32.21.49.24,1,.46,1.5.66a1.22,1.22,0,0,0,.63.15,1.69,1.69,0,0,0,.52.18,1.66,1.66,0,0,0,.51.13c.16,0,.28.12.45.09s.26.07.38.06c.32,0,.62.07.94.06a8.87,8.87,0,0,0,.94-.09,6.34,6.34,0,0,0,.71-.18,3,3,0,0,0,.73-.17,4.38,4.38,0,0,0,1.51-.89c.3-.09.44-.36.63-.56s.47-.4.66-.64c0,0,.07,0,.07,0,0-.33.36-.54.41-.87,0-.16.21-.26.17-.48a.8.8,0,0,1,.14-.47,1,1,0,0,0,0-.3v0a2.14,2.14,0,0,0-.26-1c0-.31-.22-.54-.36-.78a2,2,0,0,1-.21-.39,1.09,1.09,0,0,0-.45-.55c-.18-.15-.29-.35-.46-.51a1.21,1.21,0,0,0-.2-.18,2.53,2.53,0,0,1-.55-.36c-.17-.14-.38-.25-.57-.39s-.22,0-.3-.11-.22,0-.27-.13-.2.05-.32-.08-.25-.05-.35-.14-.08,0-.12,0a1,1,0,0,1-.52-.1.89.89,0,0,0-.35,0,3,3,0,0,1-.57,0,1.09,1.09,0,0,0-.56,0c-.21,0-.51,0-.65.22,0,0-.16,0-.22,0a.32.32,0,0,0-.34,0,1.22,1.22,0,0,1-.54.1,2.34,2.34,0,0,0-1.09.32s-.06,0-.07,0c-.25-.07-.44.13-.66.2a3,3,0,0,0-.58.17,2.38,2.38,0,0,0-.57.36.59.59,0,0,1-.22.12,4.08,4.08,0,0,0-.6.36c-.11.07-.26.07-.34.22s-.23.18-.36.25-.23.2-.38.21c-.25.31-.64.4-.94.64l-.32.26c-.08.07,0,.22-.18.25,0,0,0,.12,0,.12s.05.1,0,.16,0,.11.06.09.18,0,.27,0,.11,0,.13-.07.18-.15.28-.09.26,0,.38-.08a4.35,4.35,0,0,1,.54-.28c.05,0,.06,0,.08,0a.22.22,0,0,0,.24-.11c-.05-.24.18-.21.28-.24s.3-.24.5-.25.09-.08.11-.14c.07-.22.34-.24.47-.41.12.08.18,0,.21-.1s0,0,.06,0,.16,0,.2-.08.08-.16.18-.06.07,0,.07,0,.09-.11.18-.12a2.1,2.1,0,0,0,.74-.3.3.3,0,0,1,.21-.06c.08,0,.1.12.16.08a.67.67,0,0,1,.19-.11,1.22,1.22,0,0,0,.37-.16c.11-.1.28,0,.35-.12.11.06.15-.1.25-.07.1-.14.23-.06.35,0s0,.1.08,0,0-.06,0-.09,0,0,0-.06.23.07.24-.1,0,0,0,0,.19.09.31.09.08,0,.13,0,.21,0,.13-.12.06,0,.1,0a.77.77,0,0,0,.66.12.69.69,0,0,1,.19,0c.21-.17.45,0,.67,0s.07-.1.12-.08,0,.11.09.13.19.12.29,0,.1-.11.17-.05,0,.09.09.09,0,.15.11.21.11-.08.15,0a.16.16,0,0,0,.23.09c.1,0,.15,0,.13.08.1-.07.16,0,.23.06s0,0,0-.07a.13.13,0,0,1,0-.12c.05-.05.11,0,.15,0s0,.06,0,.08-.1.15,0,.23-.12.07,0,.15a.19.19,0,0,0,.19,0c.13,0,.06.06.09.1a.57.57,0,0,0,.34.22.49.49,0,0,1,.3.22c.06.12.19.13.31.13a.13.13,0,0,1,.15.12c0,.07-.09.11,0,.17s.12-.08.13.07.06.1.1.15.07.12.13.16a.58.58,0,0,1,.28.46c0,.15.19,0,.13.19a.64.64,0,0,0,0,.25.16.16,0,0,0,.06.11s.07.09,0,.12,0,0-.06.07.11.15,0,.18h0c-.07,0,0,.16-.07.23a.8.8,0,0,0-.1.52.35.35,0,0,1-.12.27,1.52,1.52,0,0,0-.4.57c-.19.06-.18.29-.35.38s-.26.24-.41.32a.11.11,0,0,0-.08.11s0,.05-.05.06a1.09,1.09,0,0,0-.57.25c-.09.09-.15.25-.32.21s-.09.06-.12.11a.89.89,0,0,1-.62.36,1.84,1.84,0,0,0-.72.16.35.35,0,0,1-.2,0c-.16-.06-.33,0-.46,0s-.31,0-.46.09a.27.27,0,0,1-.18,0c-.18-.11-.44,0-.58-.22s-.14,0-.2-.05-.18.05-.24,0-.14,0-.21-.07-.25.05-.39,0-.25,0-.38,0a.18.18,0,0,1-.21-.11c-.07-.18-.23-.23-.4-.27s-.27,0-.35-.13l-.1.06s0-.08,0-.09-.06,0-.1,0,0-.09-.1-.13a1.13,1.13,0,0,1-.57-.27.42.42,0,0,0-.28-.07.72.72,0,0,1-.45-.11.62.62,0,0,0-.38-.16s-.06,0-.06,0,0-.25-.2-.22-.12-.19-.27-.14-.11-.08-.15-.15a.76.76,0,0,0-.53-.37c-.08,0-.14-.09-.2-.12s-.22-.28-.42-.35-.25-.22-.37-.34a.19.19,0,0,0-.25,0,1.72,1.72,0,0,0-.59.39c-.05.05-.15.1-.11.19s0,.27.2.37S86.73,137.46,86.88,137.58Z" transform="translate(-13.69 -15.32)"/><path class="cls-6" d="M95.5,72.23a6.94,6.94,0,0,1-.61-2.06,4.83,4.83,0,0,1,.22-2.06,7.11,7.11,0,0,1,3.53-3.52L99.73,64l.4-.16.1,0,.05,0V64l0,.23,0,.32a14.72,14.72,0,0,1-1.52,4.81c-.2.37-.76.5-.86.89a1.31,1.31,0,0,1-.59.81,2.33,2.33,0,0,0-.69.75c-.23.41-.85.36-1,1-.08.35-.45.1-.59.34a.53.53,0,0,0,0,.48c.1.23.18.07.27,0a28.21,28.21,0,0,0,2.67-1.59,3.5,3.5,0,0,0,.87-.68c.25-.27.53-.52.77-.8a6.63,6.63,0,0,0,1.69-3.44c.12-.63.28-1.25.44-1.88l.21-1c0-.12.07-.42.09-.66s0-.5,0-.76a11.13,11.13,0,0,1,.26-1.23.7.7,0,0,0,0-.44l-.06-.13s0,0-.06,0l-.08,0a4.45,4.45,0,0,0-.94.63c-.3.22-.49.32-.74.09s-1.15.42-1.59.41c-.65,0-.68.88-1.09,1.13a5.2,5.2,0,0,1-.9.38c-.26.1-.43.34-.72.42a1.28,1.28,0,0,0-.83.52c-.14.27-.77.23-.45.9.15.29-.19.5-.47.65s-.59.37-.37.79-.25.68-.48,1a.92.92,0,0,0-.22.79,2,2,0,0,0,.27.78c.13.21-.31.38-.26.67a8.07,8.07,0,0,0,.91,2.63c.17.27-.07.75.37.88.13,0,.25.21.49,0s.44-.33.46-.55A8.34,8.34,0,0,1,95.5,72.23Z" transform="translate(-13.69 -15.32)"/><path class="cls-3" d="M90.7,81.18a6.94,6.94,0,0,1,.57,2.07A4.83,4.83,0,0,1,91,85.31a7.11,7.11,0,0,1-3.59,3.46l-1.09.53-.4.15-.1,0-.05,0v-.23l0-.23,0-.32a14.72,14.72,0,0,1,1.59-4.79c.21-.37.77-.49.87-.88a1.31,1.31,0,0,1,.6-.8,2.33,2.33,0,0,0,.7-.74c.23-.41.85-.34,1-.94.09-.35.46-.09.6-.33a.53.53,0,0,0,0-.48c-.1-.23-.18-.08-.27,0a28.21,28.21,0,0,0-2.69,1.54,3.51,3.51,0,0,0-.88.67c-.26.26-.54.51-.78.79a6.63,6.63,0,0,0-1.75,3.41c-.13.63-.3,1.25-.47,1.88l-.23,1c0,.12-.08.42-.1.66s0,.5-.05.76a11.13,11.13,0,0,1-.28,1.23.7.7,0,0,0,0,.44l.06.13s0,0,.06,0l.08,0a4.45,4.45,0,0,0,.95-.61c.3-.21.49-.32.74-.07s1.16-.4,1.6-.39c.65,0,.7-.87,1.11-1.11a5.19,5.19,0,0,1,.9-.37c.27-.09.44-.33.72-.4a1.28,1.28,0,0,0,.84-.51c.15-.27.78-.22.47-.89-.14-.3.2-.5.48-.64s.6-.36.38-.79.26-.68.5-1a.92.92,0,0,0,.24-.78,2,2,0,0,0-.25-.78c-.13-.21.32-.38.28-.66A8.07,8.07,0,0,0,92,80.52c-.17-.28.08-.75-.36-.89-.13,0-.25-.22-.49,0s-.44.32-.47.54A8.34,8.34,0,0,1,90.7,81.18Z" transform="translate(-13.69 -15.32)"/><path class="cls-3" d="M105.37,79.71a6.94,6.94,0,0,1,.61,2.06,4.83,4.83,0,0,1-.22,2.06,7.11,7.11,0,0,1-3.53,3.52l-1.08.55-.4.16-.1,0-.05,0V87.9l0-.23,0-.32a14.72,14.72,0,0,1,1.52-4.81c.2-.37.76-.5.86-.89a1.31,1.31,0,0,1,.59-.81,2.33,2.33,0,0,0,.69-.75c.23-.41.85-.36,1-1,.08-.35.45-.1.59-.34a.53.53,0,0,0,0-.48c-.1-.23-.18-.07-.27,0A28.21,28.21,0,0,0,103,79.86a3.5,3.5,0,0,0-.87.68c-.25.27-.53.52-.77.8a6.63,6.63,0,0,0-1.69,3.44c-.12.63-.28,1.25-.44,1.88l-.21,1c0,.12-.07.42-.09.66s0,.5,0,.76a11.13,11.13,0,0,1-.26,1.23.7.7,0,0,0,0,.44l.06.13s0,0,.06,0l.08,0a4.45,4.45,0,0,0,.94-.63c.3-.22.49-.32.74-.09s1.15-.42,1.59-.41c.65,0,.68-.88,1.09-1.13a5.2,5.2,0,0,1,.9-.38c.26-.1.43-.34.72-.42a1.28,1.28,0,0,0,.83-.52c.14-.27.77-.23.45-.9-.15-.29.19-.5.47-.65s.59-.37.37-.79.25-.68.48-1a.92.92,0,0,0,.22-.79,2,2,0,0,0-.27-.78c-.13-.21.31-.38.26-.67a8.07,8.07,0,0,0-.91-2.63c-.17-.27.07-.75-.37-.88-.13,0-.25-.21-.49,0s-.44.33-.46.55A8.34,8.34,0,0,1,105.37,79.71Z" transform="translate(-13.69 -15.32)"/><path class="cls-3" d="M98.47,114.14a6.94,6.94,0,0,1,1.14-1.83,4.83,4.83,0,0,1,1.69-1.21,7.11,7.11,0,0,1,5,.29l1.13.44.39.19.1,0,0,0,0,0-.07.07-.08.06-.18.14-.27.19a14.72,14.72,0,0,1-4.6,2.07c-.41.1-.88-.23-1.24,0a1.31,1.31,0,0,1-1,.1,2.33,2.33,0,0,0-1,0c-.46.11-.83-.39-1.37-.1-.32.17-.38-.27-.65-.22a.53.53,0,0,0-.38.3c-.1.23.07.19.16.22a28.21,28.21,0,0,0,3,.93,3.5,3.5,0,0,0,1.09.2c.37,0,.74.05,1.11,0a6.63,6.63,0,0,0,3.69-1c.55-.34,1.12-.63,1.7-.93l.86-.48c.11-.06.36-.23.55-.37s.4-.31.6-.48a11.13,11.13,0,0,1,1.09-.63.7.7,0,0,0,.31-.31l.05-.13s0,0,0,0l-.08,0a4.45,4.45,0,0,0-1.09-.28c-.36-.08-.57-.15-.56-.49s-1.08-.58-1.37-.91-1.11.08-1.57-.06a5.2,5.2,0,0,1-.89-.41c-.25-.13-.54-.09-.79-.26a1.28,1.28,0,0,0-.94-.27c-.3.08-.69-.42-1,.26-.12.3-.5.19-.8.09s-.67-.2-.84.25-.67.27-1.05.3a.92.92,0,0,0-.74.36,2,2,0,0,0-.4.72c-.07.24-.49,0-.67.25a8.07,8.07,0,0,0-1.36,2.43c-.09.31-.61.45-.41.87.06.12,0,.33.34.35s.54.11.72,0S98.14,114.32,98.47,114.14Z" transform="translate(-13.69 -15.32)"/><path class="cls-3" d="M98.37,101.07a6.94,6.94,0,0,1,.08-2.15A4.83,4.83,0,0,1,99.32,97a7.11,7.11,0,0,1,4.46-2.22l1.2-.18.43,0h.16v0l0,.1,0,.09-.09.21-.14.3a14.72,14.72,0,0,1-3,4.08c-.31.29-.88.24-1.1.57a1.31,1.31,0,0,1-.82.58,2.33,2.33,0,0,0-.89.5c-.34.32-.92.07-1.24.59-.19.31-.46,0-.67.13a.53.53,0,0,0-.18.45c0,.25.15.13.25.11a28.2,28.2,0,0,0,3-.66,3.5,3.5,0,0,0,1-.37c.32-.17.67-.32,1-.52a6.63,6.63,0,0,0,2.7-2.72c.31-.56.66-1.1,1-1.65l.51-.84c.06-.11.2-.37.3-.6s.19-.47.28-.71a11.12,11.12,0,0,1,.64-1.09.7.7,0,0,0,.12-.42l0-.14s0,0-.05,0h-.09a4.44,4.44,0,0,0-1.09.3c-.35.11-.57.15-.73-.15s-1.22,0-1.64-.11c-.62-.19-.92.62-1.39.73a5.19,5.19,0,0,1-1,.08c-.28,0-.52.19-.81.17a1.28,1.28,0,0,0-1,.23c-.22.21-.81,0-.71.71,0,.33-.34.42-.65.47s-.68.16-.6.64-.45.57-.77.78a.92.92,0,0,0-.46.67,2,2,0,0,0,0,.82c.06.24-.42.27-.46.55a8.07,8.07,0,0,0,0,2.78c.08.31-.31.69.07,1,.12.08.17.28.47.14s.52-.17.61-.37A8.34,8.34,0,0,1,98.37,101.07Z" transform="translate(-13.69 -15.32)"/><path class="cls-6" d="M110.37,105.89a6.94,6.94,0,0,1,1.2-1.78A4.83,4.83,0,0,1,113.3,103a7.11,7.11,0,0,1,5,.47l1.11.48.38.21.1.05,0,0,0,0-.08.07-.08.06-.19.13-.27.18a14.72,14.72,0,0,1-4.67,1.91c-.42.08-.87-.26-1.23-.09a1.31,1.31,0,0,1-1,.07,2.33,2.33,0,0,0-1,0c-.46.09-.82-.42-1.36-.15-.33.16-.37-.28-.64-.24a.53.53,0,0,0-.39.29c-.11.23.06.19.15.23a28.19,28.19,0,0,0,2.93,1,3.5,3.5,0,0,0,1.08.23c.37,0,.74.08,1.11.08a6.63,6.63,0,0,0,3.73-.89c.56-.32,1.14-.59,1.73-.87l.87-.45c.11-.06.36-.21.57-.35s.41-.3.61-.46a11.14,11.14,0,0,1,1.12-.59.7.7,0,0,0,.32-.3l.06-.13s0,0,0-.05l-.08,0a4.45,4.45,0,0,0-1.08-.32c-.36-.09-.56-.17-.54-.51s-1.05-.62-1.33-1-1.11,0-1.57-.11a5.2,5.2,0,0,1-.87-.45c-.24-.14-.54-.11-.78-.29a1.28,1.28,0,0,0-.93-.3c-.3.06-.67-.45-1,.23-.13.3-.51.17-.8.06s-.66-.22-.84.22-.68.25-1.06.26a.92.92,0,0,0-.75.33,2,2,0,0,0-.43.7c-.08.23-.49,0-.68.22a8.07,8.07,0,0,0-1.45,2.38c-.1.31-.63.43-.44.85.06.13,0,.33.32.36s.53.13.72,0S110,106.06,110.37,105.89Z" transform="translate(-13.69 -15.32)"/><path class="cls-3" d="M83,77.79a6.94,6.94,0,0,1-1.67-1.35,4.83,4.83,0,0,1-1-1.83,7.11,7.11,0,0,1,.91-4.9l.58-1.07.24-.36.06-.09,0,0,0,0,.06.08.05.09.12.2.15.29A14.72,14.72,0,0,1,84,73.65c0,.42-.34.85-.2,1.22a1.31,1.31,0,0,1,0,1,2.33,2.33,0,0,0-.14,1c0,.47-.49.77-.27,1.34.13.34-.32.34-.29.62a.53.53,0,0,0,.25.41c.22.13.19,0,.24-.13a28.21,28.21,0,0,0,1.29-2.82,3.5,3.5,0,0,0,.33-1.05c.06-.36.15-.73.18-1.1a6.63,6.63,0,0,0-.56-3.79c-.26-.59-.48-1.19-.71-1.8l-.37-.91c0-.11-.18-.38-.3-.6s-.26-.43-.4-.65a11.13,11.13,0,0,1-.49-1.16.7.7,0,0,0-.27-.35l-.12-.07s0,0-.05,0l0,.07a4.45,4.45,0,0,0-.42,1c-.12.35-.22.54-.56.49s-.71,1-1.07,1.24c-.52.38-.06,1.11-.25,1.55a5.19,5.19,0,0,1-.52.83c-.16.23-.16.52-.35.75a1.28,1.28,0,0,0-.38.9c0,.31-.51.63.14,1,.29.16.13.52,0,.8s-.28.64.15.86.18.7.16,1.08a.92.92,0,0,0,.26.77,2,2,0,0,0,.66.49c.23.1,0,.49.16.7a8.07,8.07,0,0,0,2.24,1.65c.3.13.37.66.81.52.13,0,.33,0,.39-.29s.17-.52.07-.71S83.12,78.14,83,77.79Z" transform="translate(-13.69 -15.32)"/><path class="cls-3" d="M112.3,90.09a6.94,6.94,0,0,1,1-1.93,4.83,4.83,0,0,1,1.56-1.37,7.11,7.11,0,0,1,5-.19l1.17.33.4.15.1,0,.05,0v0l-.07.08-.07.07-.17.16-.25.21a14.72,14.72,0,0,1-4.38,2.51c-.4.14-.9-.15-1.24.07a1.31,1.31,0,0,1-1,.2,2.33,2.33,0,0,0-1,.09c-.45.15-.86-.31-1.37,0-.3.21-.4-.23-.67-.15a.53.53,0,0,0-.35.34c-.08.24.08.18.18.21a28.21,28.21,0,0,0,3,.64,3.51,3.51,0,0,0,1.1.09c.37,0,.74,0,1.11-.07a6.63,6.63,0,0,0,3.57-1.38c.52-.39,1.05-.73,1.6-1.09l.81-.56c.1-.07.33-.26.52-.42s.36-.35.55-.53a11.13,11.13,0,0,1,1-.73.7.7,0,0,0,.28-.34l0-.14s0,0,0,0l-.08,0a4.45,4.45,0,0,0-1.11-.18c-.37,0-.58-.09-.6-.44s-1.13-.47-1.45-.77c-.48-.43-1.1.18-1.57.09a5.2,5.2,0,0,1-.92-.33c-.26-.11-.55,0-.81-.18a1.28,1.28,0,0,0-1-.18c-.29.1-.72-.36-.94.35-.09.32-.48.24-.78.16s-.69-.13-.81.33-.64.33-1,.4a.92.92,0,0,0-.7.42,2,2,0,0,0-.33.75c0,.24-.49.07-.65.31a8.07,8.07,0,0,0-1.12,2.55c-.06.32-.56.51-.33.9.07.12,0,.33.37.32s.54.05.71-.09S112,90.3,112.3,90.09Z" transform="translate(-13.69 -15.32)"/><path class="cls-3" d="M69.61,73.11a8.94,8.94,0,0,0,.59-2.81,7.54,7.54,0,0,0-.48-2.89,9.29,9.29,0,0,0-4.42-4.57l-.67-.34-.34-.17-.17-.08-.26-.09-2.16-.73-.54-.18-.27-.09,0,.31c0,.41-.08.79-.09,1.21s0,.83,0,1.27l0,.47,0,.37a10.91,10.91,0,0,0,1.93,5.56c.3.38.27,1.09.74,1.3a3.7,3.7,0,0,1,.92.81,1.9,1.9,0,0,0,1,.7c.52.1.74.85,1.43.64.37-.11.37.35.67.35a.44.44,0,0,0,.4-.25c.11-.23-.05-.2-.14-.25a6.41,6.41,0,0,1-2.4-1.87c-.2-.29-.43-.55-.62-.84a4.67,4.67,0,0,1-.55-.87c-.53-1.06-1-2.1-1.45-3.2a5.28,5.28,0,0,1-.35-1.75c0-.3,0-.6,0-.9a.89.89,0,0,1,0-.27l0-.15c0-.06.21,0,.35.19s-.08-.1,0-.1-.08-.24-.07-.35.13-.11.3.29.18,0,.36.29c.33.48,1,0,1.42.14s.45.36.66.59.42.24.56.46.22.56.49.66.15.59.77.38c.3-.1.4.27.43.52s-.07.58.4.61c.66.05.29.59.23.87a1.23,1.23,0,0,0,.09.65,5.52,5.52,0,0,0,.41.6c.12.2-.32.34-.29.57a7.6,7.6,0,0,1-.38,2.43c-.08.31-.59.35-.45.74,0,.13,0,.27.24.41s.49.26.71.14C69.08,73.71,69.25,73.38,69.61,73.11Z" transform="translate(-13.69 -15.32)"/><path class="cls-6" d="M70.21,80.32a8.94,8.94,0,0,0-.55,2.82A7.54,7.54,0,0,0,70.19,86a9.29,9.29,0,0,0,4.49,4.49l.67.33.34.16.17.08.26.09,2.17.69.54.17.27.08,0-.31c0-.41.06-.79.07-1.21s0-.83,0-1.27l0-.47,0-.37a10.91,10.91,0,0,0-2-5.53c-.31-.38-.28-1.08-.76-1.29a3.7,3.7,0,0,1-.94-.8,1.9,1.9,0,0,0-1-.69c-.52-.09-.75-.84-1.44-.62-.36.12-.38-.34-.68-.33a.44.44,0,0,0-.39.26c-.11.23.06.2.14.25a6.41,6.41,0,0,1,2.43,1.83c.21.29.44.54.63.83a4.67,4.67,0,0,1,.56.86c.55,1,1,2.08,1.51,3.18a5.28,5.28,0,0,1,.38,1.75c0,.3,0,.6,0,.9a.89.89,0,0,1,0,.27l0,.15c0,.06-.21,0-.35-.18s.08.1,0,.1.08.23.08.35-.13.11-.3-.28-.18,0-.36-.28c-.34-.48-1,0-1.43-.12s-.46-.35-.67-.58S74,88.26,73.9,88s-.23-.56-.5-.65-.16-.59-.77-.36c-.29.1-.4-.27-.43-.51s.07-.59-.41-.6c-.66,0-.3-.59-.25-.87a1.23,1.23,0,0,0-.1-.65,5.51,5.51,0,0,0-.42-.6c-.13-.19.32-.35.28-.57a7.6,7.6,0,0,1,.34-2.44c.07-.31.58-.35.43-.75,0-.13,0-.27-.25-.41s-.49-.26-.71-.13C70.72,79.71,70.56,80,70.21,80.32Z" transform="translate(-13.69 -15.32)"/><path class="cls-3" d="M55.56,78.83A8.94,8.94,0,0,0,55,81.63a7.54,7.54,0,0,0,.48,2.89,9.29,9.29,0,0,0,4.42,4.57l.67.34.34.17.17.08.26.09,2.16.73.54.18.27.09,0-.31c0-.41.08-.79.09-1.21s0-.83,0-1.27l0-.47,0-.37a10.91,10.91,0,0,0-1.93-5.56c-.3-.38-.27-1.09-.74-1.3a3.7,3.7,0,0,1-.92-.81,1.9,1.9,0,0,0-1-.7c-.52-.1-.74-.85-1.43-.64-.37.11-.37-.35-.67-.35a.44.44,0,0,0-.4.25c-.11.23.05.2.14.25a6.41,6.41,0,0,1,2.4,1.87c.2.29.43.55.62.84a4.67,4.67,0,0,1,.55.87c.53,1.06,1,2.1,1.45,3.2a5.28,5.28,0,0,1,.35,1.75c0,.3,0,.6,0,.9a.89.89,0,0,1,0,.27l0,.15c0,.06-.21,0-.35-.19s.08.1,0,.1.08.24.07.35-.13.11-.3-.29-.18,0-.36-.29c-.33-.48-1,0-1.42-.14s-.45-.36-.66-.59-.42-.24-.56-.46-.22-.56-.49-.66-.15-.59-.77-.38c-.3.1-.4-.27-.43-.52s.07-.58-.4-.61c-.66-.05-.29-.59-.23-.87a1.23,1.23,0,0,0-.09-.65,5.52,5.52,0,0,0-.41-.6c-.12-.2.32-.34.29-.57A7.6,7.6,0,0,1,57,79.32c.08-.31.59-.35.45-.74,0-.13,0-.27-.24-.41s-.49-.26-.71-.14C56.09,78.23,55.92,78.56,55.56,78.83Z" transform="translate(-13.69 -15.32)"/><path class="cls-3" d="M83.7,60.75a8.94,8.94,0,0,0,1.88-2.17,7.54,7.54,0,0,0,1-2.76,9.29,9.29,0,0,0-1.64-6.14l-.42-.62-.21-.31-.11-.15L84,48.39l-1.54-1.69-.38-.42-.19-.21-.17.25c-.22.34-.45.65-.66,1s-.43.71-.62,1.11l-.21.43-.15.34a10.91,10.91,0,0,0-1,5.8c.08.48-.3,1.08,0,1.5a3.7,3.7,0,0,1,.41,1.16,1.9,1.9,0,0,0,.53,1.1c.41.34.23,1.1.93,1.25.37.08.16.49.42.63a.44.44,0,0,0,.47,0c.21-.15.05-.2,0-.29a6.41,6.41,0,0,1-1.19-2.8c0-.36-.11-.69-.13-1a4.67,4.67,0,0,1-.06-1c0-1.18.14-2.32.28-3.51a5.28,5.28,0,0,1,.55-1.7c.14-.27.29-.53.45-.78a.89.89,0,0,1,.17-.22l.11-.11s.17.13.21.34,0-.13,0-.11,0-.24.11-.34.17,0,.12.4.15.1.17.43c.05.58.88.45,1.17.82a1.59,1.59,0,0,1,.29.84c0,.24.25.42.27.68s-.08.59.11.82-.15.59.49.7c.31.06.22.43.12.66s-.35.47.06.73,0,.66-.22.88a1.23,1.23,0,0,0-.24.61,5.52,5.52,0,0,0,.06.73c0,.23-.45.14-.53.36a7.6,7.6,0,0,1-1.51,1.94c-.22.23-.68,0-.75.43,0,.14-.17.21,0,.48s.3.47.55.47A7.8,7.8,0,0,0,83.7,60.75Z" transform="translate(-13.69 -15.32)"/><path class="cls-6" d="M66.6,113.18a9,9,0,0,0-1.7-2.31,7.54,7.54,0,0,0-2.47-1.57,9.29,9.29,0,0,0-6.35.25l-.7.27L55,110l-.17.07-.24.14-2,1.13-.49.28-.24.14.21.22c.28.29.54.58.84.87s.6.58.94.85l.37.3.3.22A10.91,10.91,0,0,0,60,116.44c.48,0,1,.52,1.47.32a3.7,3.7,0,0,1,1.22-.15,1.9,1.9,0,0,0,1.18-.27c.42-.32,1.13,0,1.43-.64.16-.35.51,0,.71-.27a.44.44,0,0,0,.08-.46c-.1-.23-.19-.09-.28-.06a6.41,6.41,0,0,1-3,.54c-.35,0-.7,0-1-.1a4.67,4.67,0,0,1-1-.17c-1.14-.31-2.23-.65-3.36-1a5.28,5.28,0,0,1-1.54-.91c-.23-.2-.45-.4-.66-.61a.89.89,0,0,1-.17-.21l-.08-.13c0-.05.16-.13.37-.13s-.13,0-.1,0-.23-.1-.31-.18,0-.17.41,0,.13-.12.45-.07c.58.07.63-.76,1.06-1a1.59,1.59,0,0,1,.88-.1c.25,0,.46-.15.72-.11s.56.21.82.07.54.28.79-.32c.12-.29.47-.12.67,0s.39.45.72.1.64.18.81.41a1.23,1.23,0,0,0,.54.37,5.53,5.53,0,0,0,.72.1c.23,0,0,.47.23.59a7.6,7.6,0,0,1,1.56,1.9c.18.26-.13.67.26.83.13.06.17.22.47.1s.52-.19.58-.43A7.81,7.81,0,0,0,66.6,113.18Z" transform="translate(-13.69 -15.32)"/><path class="cls-3" d="M66.91,101.25a8.94,8.94,0,0,0-.33-2.85,7.54,7.54,0,0,0-1.37-2.59,9.29,9.29,0,0,0-5.64-2.93l-.74-.11-.37-.05-.19,0H54.87l.07.3c.1.4.18.77.3,1.17s.23.8.4,1.21l.17.44.15.34a10.91,10.91,0,0,0,3.59,4.67c.41.27.6.94,1.12,1a3.7,3.7,0,0,1,1.13.48,1.9,1.9,0,0,0,1.16.35c.52-.07,1,.58,1.56.16.31-.22.47.21.75.11a.44.44,0,0,0,.3-.37c0-.25-.11-.17-.21-.2a6.41,6.41,0,0,1-2.87-1c-.29-.21-.58-.38-.85-.6a4.68,4.68,0,0,1-.8-.65c-.84-.83-1.62-1.67-2.4-2.58A5.28,5.28,0,0,1,57.55,96c-.1-.28-.19-.57-.28-.86a.89.89,0,0,1,0-.27v-.15c0-.06.21,0,.39.07s-.11-.07-.07-.08-.15-.2-.18-.31.09-.15.37.18.17,0,.43.16c.46.35.92-.34,1.4-.32a1.59,1.59,0,0,1,.82.35c.21.13.48.1.68.26s.38.46.68.47.33.51.85.12c.25-.19.46.13.57.36s.11.58.58.45c.65-.16.47.47.5.75a1.23,1.23,0,0,0,.29.59,5.51,5.51,0,0,0,.58.44c.18.15-.2.43-.09.63a7.6,7.6,0,0,1,.41,2.42c0,.32-.45.51-.19.84.08.11,0,.27.36.32s.54.1.72-.09A7.8,7.8,0,0,0,66.91,101.25Z" transform="translate(-13.69 -15.32)"/><path class="cls-3" d="M110,75.39a6.94,6.94,0,0,1,.08-2.15,4.83,4.83,0,0,1,.87-1.89,7.11,7.11,0,0,1,4.46-2.22l1.2-.18.43,0h.16v0l0,.1,0,.09-.09.21-.14.3a14.72,14.72,0,0,1-3,4.08c-.31.29-.88.24-1.1.57a1.31,1.31,0,0,1-.82.58,2.33,2.33,0,0,0-.89.5c-.34.32-.92.07-1.24.59-.19.31-.46,0-.67.13a.53.53,0,0,0-.18.45c0,.25.15.13.25.11a28.21,28.21,0,0,0,3-.66,3.5,3.5,0,0,0,1-.37c.32-.17.67-.32,1-.52a6.63,6.63,0,0,0,2.7-2.72c.31-.56.66-1.1,1-1.65l.51-.84c.06-.11.2-.37.3-.6s.19-.47.28-.71a11.12,11.12,0,0,1,.64-1.09.7.7,0,0,0,.12-.42l0-.14s0,0-.05,0h-.09a4.44,4.44,0,0,0-1.09.3c-.35.11-.57.15-.73-.15s-1.22,0-1.64-.11c-.62-.19-.92.62-1.39.73a5.19,5.19,0,0,1-1,.08c-.28,0-.52.19-.81.17a1.28,1.28,0,0,0-1,.23c-.22.21-.81,0-.71.71,0,.33-.34.42-.65.47s-.68.16-.6.64-.45.57-.77.78a.92.92,0,0,0-.46.67,2,2,0,0,0,0,.82c.06.24-.42.27-.46.55a8.07,8.07,0,0,0,0,2.78c.08.31-.31.69.07,1,.12.08.17.28.47.14s.52-.17.61-.37A8.34,8.34,0,0,1,110,75.39Z" transform="translate(-13.69 -15.32)"/><path class="cls-6" d="M55.52,75.56a8.94,8.94,0,0,0-.33-2.85,7.54,7.54,0,0,0-1.37-2.59,9.29,9.29,0,0,0-5.64-2.93l-.74-.11L47.07,67l-.19,0H43.48l.07.3c.1.4.18.77.3,1.17s.23.8.4,1.21l.17.44.15.34a10.91,10.91,0,0,0,3.59,4.67c.41.27.6.94,1.12,1a3.7,3.7,0,0,1,1.13.48,1.9,1.9,0,0,0,1.16.35c.52-.07,1,.58,1.56.16.31-.22.47.21.75.11a.44.44,0,0,0,.3-.37c0-.25-.11-.17-.21-.2a6.41,6.41,0,0,1-2.87-1c-.29-.21-.58-.38-.85-.6a4.68,4.68,0,0,1-.8-.65c-.84-.83-1.62-1.67-2.4-2.58a5.28,5.28,0,0,1-.89-1.55c-.1-.28-.19-.57-.28-.86a.89.89,0,0,1,0-.27V69c0-.06.21,0,.39.07s-.11-.07-.07-.08-.15-.2-.18-.31.09-.15.37.18.17,0,.43.16c.46.35.92-.34,1.4-.32a1.59,1.59,0,0,1,.82.35c.21.13.48.1.68.26s.38.46.68.47.33.51.85.12c.25-.19.46.13.57.36s.11.58.58.45c.65-.16.47.47.5.75a1.23,1.23,0,0,0,.29.59,5.51,5.51,0,0,0,.58.44c.18.15-.2.43-.09.63A7.6,7.6,0,0,1,54,75.54c0,.32-.45.51-.19.84.08.11,0,.27.36.32s.54.1.72-.09A7.8,7.8,0,0,0,55.52,75.56Z" transform="translate(-13.69 -15.32)"/><path class="cls-3" d="M54.66,104.85a8.94,8.94,0,0,0-1.78-2.25,7.54,7.54,0,0,0-2.53-1.48,9.29,9.29,0,0,0-6.33.48l-.69.3L43,102l-.17.08-.24.14-1.94,1.2-.48.3-.24.15.22.22c.29.28.56.56.87.84s.62.56,1,.82l.38.28.31.21a10.91,10.91,0,0,0,5.51,2.07c.48,0,1,.49,1.48.26a3.7,3.7,0,0,1,1.22-.19,1.9,1.9,0,0,0,1.17-.32c.41-.34,1.13,0,1.41-.69.15-.35.51-.07.7-.3a.44.44,0,0,0,.06-.47c-.1-.23-.19-.09-.28-.05a6.41,6.41,0,0,1-3,.65c-.36,0-.7,0-1-.06a4.67,4.67,0,0,1-1-.13c-1.15-.27-2.25-.57-3.39-.93a5.28,5.28,0,0,1-1.57-.85c-.24-.19-.47-.38-.69-.58a.89.89,0,0,1-.18-.2l-.08-.13c0-.05.16-.14.37-.15s-.13,0-.1,0-.23-.09-.32-.17,0-.17.41,0,.13-.13.45-.09c.58.05.6-.78,1-1a1.59,1.59,0,0,1,.88-.13c.25,0,.46-.17.71-.14s.57.19.82,0,.55.26.78-.35c.11-.29.46-.13.67,0s.4.43.73.08.64.15.82.38a1.23,1.23,0,0,0,.56.35,5.53,5.53,0,0,0,.73.07c.23,0,.06.47.25.59a7.6,7.6,0,0,1,1.63,1.84c.19.25-.11.67.28.82.13.05.18.21.47.08s.51-.21.56-.45A7.8,7.8,0,0,0,54.66,104.85Z" transform="translate(-13.69 -15.32)"/><path class="cls-3" d="M52.86,89.33a9,9,0,0,0-1.47-2.47,7.54,7.54,0,0,0-2.31-1.8,9.29,9.29,0,0,0-6.34-.36l-.72.2-.36.1-.18.05-.25.11-2.08.93-.52.23-.26.12.19.24c.25.32.48.63.75.95s.54.63.86.94l.34.33.28.25A10.91,10.91,0,0,0,46,91.94c.48.08.93.62,1.43.46a3.7,3.7,0,0,1,1.23,0,1.9,1.9,0,0,0,1.21-.16c.45-.28,1.12.13,1.48-.49.19-.33.51,0,.73-.2a.44.44,0,0,0,.12-.45c-.07-.24-.18-.11-.27-.09a6.41,6.41,0,0,1-3,.25c-.35-.08-.69-.11-1-.2a4.67,4.67,0,0,1-1-.26c-1.11-.42-2.16-.86-3.24-1.37a5.28,5.28,0,0,1-1.45-1.05c-.21-.22-.41-.44-.6-.67a.89.89,0,0,1-.15-.23l-.06-.14c0-.06.17-.12.38-.1s-.13,0-.1,0S41.4,87,41.33,87s0-.17.41,0,.14-.11.46,0c.57.13.7-.69,1.14-.86a1.59,1.59,0,0,1,.89,0c.25,0,.48-.11.73,0s.54.27.81.15.51.33.82-.24c.15-.27.48-.07.67.09s.34.48.71.17c.52-.41.62.24.76.48a1.23,1.23,0,0,0,.51.42,5.5,5.5,0,0,0,.71.17c.22.06,0,.47.18.61a7.6,7.6,0,0,1,1.37,2c.15.28-.2.65.17.85.12.07.15.23.46.14s.54-.14.62-.37A7.8,7.8,0,0,0,52.86,89.33Z" transform="translate(-13.69 -15.32)"/></svg>