<svg id="Layer_1" data-name="Layer 1" xmlns="http://www.w3.org/2000/svg" viewBox="0 0 484.43 484.42"><defs><style>.cls-1{fill:none;}.cls-2{fill:#22a096;}.cls-3{fill:#601e57;}.cls-4{fill:#ccaa32;}</style></defs><title>Artboard 1</title><path class="cls-1" d="M242.37,483.39c-132.89,0-241-108.11-241-241s108.11-241,241-241,241,108.11,241,241S375.26,483.39,242.37,483.39Zm211.3-241"/><path class="cls-2" d="M202,478.6l-8.15-1.51-8.62-2c-3-.6-5.91-1.55-8.94-2.38l-4.55-1.29c-1.52-.46-3-1-4.52-1.52a238.32,238.32,0,0,1-37.73-16.2,250.48,250.48,0,0,1-33-21.37l-4.07-3.2c-1.36-1.07-2.73-2.13-4-3.29l-7.92-6.77c-3.72-3.41-7.58-7.22-11.7-11.7l-3.09-3.23c-1-1.06-2-2.23-3-3.35-1.94-2.26-3.94-4.47-5.82-6.79l-5.53-7c-.95-1.15-1.79-2.38-2.66-3.6l-2.59-3.65A233.86,233.86,0,0,1,27.81,349c-.52-1-1.07-2.06-1.58-3.11l-1.44-3.22-2.9-6.46L16.73,323.6l-1.86-5.7-1-2.87-.49-1.43L13,312.14l-1.66-5.75-.81-2.82-.39-1.39-.32-1.39c-.81-3.7-1.74-7.52-2.48-11.28S6,282.09,5.42,278.78c-.48-3.39-.85-6.55-1.23-9.72l-.28-2.39-.18-2.42c-.13-1.63-.27-3.3-.44-5-.55-4.12-.37-11.21-.59-16.42A234,234,0,0,1,6,203.22a230.92,230.92,0,0,1,9.52-38.09c1.53-4.83,3.5-9.53,5.34-14.29l.7-1.78.78-1.75,1.56-3.49,1.56-3.49.78-1.74.86-1.7,3.59-7,.89-1.71,1-1.66,1.94-3.3,1.95-3.31,1-1.67,1.06-1.63,4.32-6.71A251.63,251.63,0,0,1,65.11,81.25a282.88,282.88,0,0,1,26.31-25q3.48-2.64,6.88-5.3c2.3-1.74,4.68-3.36,7-5.06,1.17-.83,2.32-1.7,3.51-2.5L112.42,41,116,38.68c1.2-.79,2.41-1.57,3.66-2.27l8.39-4.81,8.48-4.28,2.12-1.05,2.16-1,4.33-1.92c1.45-.63,2.88-1.3,4.35-1.92L154,19.73c1-.38,2.53-.91,2.75-1,10.74-4.62,24.67-8.36,36.69-11.06,6.07-1.23,12.11-2.13,19.51-3.19,1.12-.18,2.45-.37,3.91-.57s3.05-.27,4.69-.41l5-.32c1.67-.08,3.32-.24,4.87-.2,2.73,0,7-.15,10.56-.24A282.53,282.53,0,0,1,280.23,5.6a314.93,314.93,0,0,1,33.38,7.85l8.9,3,2.18.75,2.06.83,3.75,1.55L334,21l1.72.71,1.68.78,6.64,3c2.22.94,4.32,2.07,6.45,3.12s4.24,2.11,6.33,3.19a229.69,229.69,0,0,1,23.86,15.07l4.15,3c1.43,1,2.76,2.16,4.09,3.16l5.29,4.11c1.73,1.4,3.38,2.88,5.07,4.32s3.41,2.87,5,4.43l4.89,4.73,2.46,2.38L414,75.58l4.85,5.07c1.62,1.71,3.11,3.54,4.66,5.31l2.29,2.68c.77.89,1.52,1.78,2.21,2.73,1.12,1.47,2.39,3,3.75,4.68l2.07,2.58c.71.88,1.33,1.87,2,2.85,1,1.53,2.26,3.19,3.5,4.88.62.85,1.26,1.68,1.81,2.53s1.06,1.71,1.51,2.52c1.12,1.63,2.13,3.06,3.25,4.75a65.59,65.59,0,0,1,3.79,6.48c.9,1.71,2.26,3.95,3.57,6.36s2.57,5,3.62,7.2c.8,1.66,1.44,2.69,2,4,1.51,3.23,3.09,6.5,4.5,9.82s2.63,6.73,3.88,10c.8,2.45,1.6,4.8,2.39,7.1l1.18,3.41c.4,1.12.67,2.28,1,3.4a214.4,214.4,0,0,1,5.66,23l1,5.78.52,2.93c.16,1,.27,2,.4,3l.78,5.84c.26,1.92.54,3.79.65,5.62.34,4.58.88,9.9.91,15,.08,2.53.17,5,.28,7.24s0,4.32.11,6.05a69.13,69.13,0,0,1-.48,9.34c-.27,1.93-.52,4.52-.75,7.14l-.16,2-.24,1.91-.4,3.45-.71,6.06c-.28,2-.67,3.88-1,5.77l-1.05,5.62c-.34,1.86-.86,3.69-1.27,5.54a266.39,266.39,0,0,1-15.49,46c-.41,1-1.11,2.53-1.36,3-1,2.06-2.17,4.12-3.29,6.28s-2.24,4.39-3.45,6.6l-3.75,6.59c-.63,1.09-1.23,2.21-1.89,3.27l-2,3.14-3.49,5.37c-1.17,1.76-2.45,3.42-3.68,5.14l-3.77,5.18L429.81,391l-2.3,2.94c-.75,1-1.61,1.9-2.41,2.85l-4.85,5.62c-1.61,1.86-3.34,3.58-5,5.35l-2.45,2.62-1.21,1.3-1.25,1.23c-2.8,2.73-5,4.91-8,7.52-3.84,3.23-7.57,6.68-11.63,9.75-2,1.56-4,3.2-6,4.7l-6.17,4.42c-2.27,1.69-4.71,3.14-7.19,4.72s-5,3.29-7.89,5c-2,1.19-4.67,2.83-7.66,4.46l-9.18,4.68c-2.89,1.36-5.88,2.7-8.81,4l-2.2,1-2.22.87c-1.47.56-2.92,1.11-4.33,1.62-15.56,6.36-31.5,10.32-47.87,13.05l-2.2.4c-.73.12-1.48.2-2.21.3l-4.43.57c-3,.37-5.91.8-8.88,1-2.29.18-3.89.4-5.74.61-.92.11-1.91.21-3.07.31s-2.51.06-4.14.06c-.53,0-4.89.26-3.6.29,4.06.11-1,.28-2.81.42s-2.81.3-.61.27c5.22-.06,5.63.16,8.93.21a44.87,44.87,0,0,0,6.28-.29c4-.45,6.64-.63,8.52-.74a33.6,33.6,0,0,1,3.87-.17c1.3,0,3.68-.19,6.55-.5,1.44-.12,3-.43,4.58-.7l4.88-.86,3.55-.63c1.17-.24,2.32-.52,3.46-.77l6.81-1.52,1.69-.37,1.67-.46,3.33-.91,6.71-1.86a18.75,18.75,0,0,1,2.83-.83c1.52-.39,4.31-1.29,6.76-2.12,1.23-.39,2.35-.84,3.19-1.19s1.4-.58,1.48-.63a69.23,69.23,0,0,1,7.71-3.34l7.79-3.33,3-1.33,3-1.5,5.89-3c2-1,3.83-2.14,5.71-3.18s3.72-2.1,5.54-3.09c2.33-1.34,4.71-3,6.48-4.28,3.29-2.21,7.21-5.13,11.29-8,2.07-1.41,4-3,6-4.55s3.81-3,5.49-4.46a76.62,76.62,0,0,0,8.27-7.1,18.28,18.28,0,0,1,1.81-1.66,56.5,56.5,0,0,0,7.11-6.77,53.14,53.14,0,0,1,6-6.24,19.82,19.82,0,0,0,2.6-2.83c1.79-2.34,3.73-4.53,6.53-7.64,1.35-1.64,3.09-3.81,5.05-6.26,1-1.24,2.06-2.49,3-3.91l3.05-4.27,3.07-4.34,2.77-4.35c1.77-2.82,3.48-5.38,4.64-7.6,1.82-3.3,3.34-5.75,5-8.69s1.34-1.85,2.83-4.85l2.28-4.57,2.1-4.7c2.8-5.89,5.51-13,7.27-17.86,1-3.1,2-6,3-8.67.24-.68.49-1.35.71-2l.58-2c.37-1.32.71-2.62,1-3.91a62.71,62.71,0,0,0,1.72-6.09c.41-2,.81-4,1.35-6.08.28-1.54.58-3,.9-4.42s.51-2.8.79-4.16l1.61-8c.27-1.71.18.49.6-3.44.1-.95-.07-.55-.06-1.17a15.69,15.69,0,0,1,.25-2.89c.21-2,.7-4.5.84-6.81a34.22,34.22,0,0,0,.21-5.34,9.8,9.8,0,0,1,.16-2.17c.65-1.28.6-8.45.77-14,0-1,.05-1.89,0-2.88s0-2.09,0-3.45l-.14-6c0-1.65-.18-2.41-.28-.74,0,.26-.27-3.12-.34-4.63l-.38-8.24c-.22-2.21-.42-4.06-.65-6s-.46-4.1-.9-6.83l-2-10.52-2.12-9.44c-.34-1.16-.61-2.39-1-3.61l-1.15-3.76c-.79-2.55-1.48-5.23-2.34-7.89-1.8-5.29-3.5-10.77-5.62-15.71-1.43-3.53-1.17-2.25-2.12-4.66-.9-2.19-.32-1.33-1.95-5-1-2.28-2-4.7-3.05-6.84a57.59,57.59,0,0,0-2.93-5.23c-.2-.3-.64-1-1.25-2.06s-1.34-2.53-2.32-4.27a42.82,42.82,0,0,0-2.71-5c-2.68-4.52-1.88-3.8-4-7.3a44.55,44.55,0,0,1-4.22-6.42,116.5,116.5,0,0,0-7.25-10.1,43.8,43.8,0,0,1-4.76-6.15L423.36,82c-2-2.32-.2,0,.27.56,1.07,1.37.95,1.4.55,1.08-.75-.56-3-3.37-4.94-5.33-3-3.18-1.09-1.32-.37-.67,2.16,1.94.73.16-2.17-3-2.73-3,2.4,2.1-1.27-1.83-.67-.71-1.3-1.41-1.94-2l-1.85-1.73q-1.76-1.63-3.17-2.83c-3.34-2.86-3-3-4.69-4.47-2.46-2.21-5-4.51-7.69-6.75s-5.53-4.3-8.29-6.4c-5.08-3.53-9.87-7-15.88-10.82-1.35-.89-2.62-1.72-3.82-2.48s-2.4-1.35-3.49-2c-2.2-1.2-4.16-2.21-6-3.12-2.26-1.14-4.77-2.28-8.25-4.23a14.31,14.31,0,0,1-2-1.24,13.64,13.64,0,0,0-2.74-1.46,47.72,47.72,0,0,1-6.25-2.67c-.91-.43-2.21-1.09-3.66-1.66l-4.38-1.72-4.86-1.92c-1.62-.66-3.32-1.15-5-1.71l-6.72-2.16c-2.33-.69-4.72-1.32-7-2-4.64-1.41-9.17-2.41-12.76-3.34-1.63-.42-2.82-.69-3.76-.88s-1.66-.23-2.34-.32a45.71,45.71,0,0,1-5.53-1c-.93-.18-2.94-.67-5.32-1l-7.38-1-3.46-.43c-1.1-.08-2.14-.13-3.17-.17a44.33,44.33,0,0,1-6.48-.57,26,26,0,0,0-3.3-.38c-3.78-.18-8.51,0-12.64-.36-.94-.06-3.49,0-6.42.08l-4.53.12c-1.5,0-2.94.2-4.16.26L218.64,1c-2.54.21-5,.6-7.47.9l-3.66.49-1.82.25c-.61.1-1.21.23-1.81.34l-7.26,1.45c-1,.22-2.19.41-3.48.7l-4.07,1c-2.8.67-5.71,1.26-8,1.83a212.14,212.14,0,0,0-34.31,11.78,215,215,0,0,0-23.51,11.68l-5.5,3.1c-1.89,1.07-3.73,2.34-5.64,3.53s-3.81,2.41-5.66,3.65l-5.37,3.78c-1.58,1.1-2.61,1.84-3.47,2.47s-1.49,1.22-2.33,1.92-1.08,1-3.15,2.55l-3.25,2.46c-1.11.83-2.14,1.77-3.22,2.66l-6.36,5.39-5.67,5.36L71.08,70.7c-.78.79-1.49,1.57-2.17,2.29-2.28,2.48-4.47,4.77-6.61,7.19s-4.25,4.93-6.69,7.57c-.85.92-3.53,4.56-4.84,6.32a317.72,317.72,0,0,0-19.65,30c-1.62,2.64-3,5.4-4.42,8.14s-2.88,5.45-4.09,8.28-2.56,5.59-3.75,8.43l-3.32,8.63c-.6,1.47-1.15,3.21-1.74,4.91l-1.66,4.73-1,2.77c-.33.94-.58,1.91-.87,2.88l-1.66,5.81-.8,2.84c-.26.93-.44,1.86-.66,2.76l-1.2,5a120.43,120.43,0,0,0-2.39,12c-.27,1.75-.6,3.43-.78,5.14l-.58,5.26c-.32,2.8-.81,6.55-1,8.75-.44,4.58-1,9.89-1,15.08C.2,238,.07,240.6,0,243s0,4.67,0,6.69c0,1.26,0,3,.05,4.84L.46,260c.16,2.33.37,4.42.56,6.31s.52,3.56.66,5.08c.19,1.93.41,3.73.64,5.47.12.87.22,1.73.35,2.59l.45,2.55c.53,3.08,1.09,5.87,1.67,8.84s1.48,6.05,2.26,9.8l.5,2.29.63,2.22,1.3,4.33,1.31,4.22c.44,1.39,1,2.73,1.46,4.08,1.48,4,2.73,8,3.64,10.56.44,1.37,1,2.88,1.56,4.5l.93,2.51.49,1.31.58,1.31,2.46,5.49c.87,1.87,1.68,3.83,2.71,5.69l4.2,7.92c1.45,2.61,3,5.19,4.42,8L35.19,368c.37.7.52,1.12,1.15,2.15a24.23,24.23,0,0,0,2.2,3.12c2,3,.43,1.14,3.46,5.62l4.33,6c.74,1,1.43,2,2.22,3l2.35,2.95,4.72,6q2.49,2.91,5,5.9c1.69,2.2,6,6.46,9.41,9.91,4.22,4,9.47,8.88,15.7,14.15,2.34,2.13,5,4.16,7.53,6.17l3.81,3c1.26.95,2.56,1.78,3.78,2.6.64.42,2.38,1.65,2.65,1.87,1.38,1.08,2.61,2.19,4.31,3.36s3.8,2.51,6.78,4.25l6,3.62c2,1.21,4,2.41,6.18,3.5,1.83.84,5.63,2.93,8.48,4.49,2.15,1.23,4.43,2.23,6.69,3.31s4.55,2.16,6.9,3.14l7.15,2.79c1.2.45,2.39.94,3.62,1.34l3.69,1.17c3.32,1,7.41,2.58,10.19,3.25,4.25,1.13,8.05,2.42,12.06,3.3a131.05,131.05,0,0,0,12.83,2.72c3.25.51,7.14,1.32,11.26,1.79s8.39,1.22,12.4,1.47c2.85.24,5,.38,6.63.46a30.65,30.65,0,0,0,4.09-.08c5.28-.38,8.75-.81,9-1.37.09-.17,1.86-.37-1.62-.55-5.38-.32-9-.47-16.78-1.14l-4.9-.36c-1.66-.14-3.34-.41-5.1-.62C209.93,479.8,206.15,479.44,202,478.6Z"/><path class="cls-3" d="M50.73,165.86,45,178.16l-4.46-2.06,13.73-29.68,4.46,2.06-5.69,12.3,31.42,14.54-2.35,5.07Z"/><path class="cls-3" d="M81.05,108.64l31.57,23.79-3.4,4.51-14.07-10.6L81.49,144.46l14.07,10.6-3.4,4.51L60.59,135.79l3.4-4.51,13.58,10.23,13.66-18.13L77.65,113.15Z"/><path class="cls-3" d="M138.24,103.54l3.17,3.75L119.5,125.81,94,95.61l21.31-18,3.17,3.75-17,14.36,7.83,9.27,15.14-12.79,3.1,3.67-15.14,12.79,8.23,9.75Z"/><path class="cls-3" d="M143.26,60.52l5.13-2.35,14.4,31.48,19.46-8.91,2,4.47L159.71,96.46Z"/><path class="cls-3" d="M177.86,46.47l5.41-1.62,11.36,37.86-5.41,1.62Z"/><path class="cls-3" d="M228.85,56.28l5.38-.69,2,15.29A23.36,23.36,0,0,1,222,77.76c-12,1.54-22-5.79-23.46-17.38S204.81,39.2,217,37.64c6.22-.79,11.75.61,15.84,4.12l-3,3.92a15.67,15.67,0,0,0-12-3.08c-9.07,1.16-14.82,8.33-13.7,17.06s8.48,14.23,17.5,13.08A16.73,16.73,0,0,0,230.49,69Z"/><path class="cls-3" d="M283.27,39.83l-4.38,39.29-5.61-.63,2-17.51-22.56-2.52-2,17.51-5.61-.63,4.38-39.29,5.61.63-1.88,16.89,22.56,2.52,1.88-16.89Z"/><path class="cls-3" d="M306.61,51.54l-12.85-4.32,1.56-4.66,31,10.42-1.56,4.66L311.9,53.32l-11,32.81-5.3-1.78Z"/><path class="cls-3" d="M355.57,74.66l-11.3-7.47,2.71-4.1,27.27,18-2.71,4.1-11.3-7.47-19.09,28.87-4.66-3.08Z"/><path class="cls-3" d="M374.24,135.42l2.51-14.62c-.6-.52-1.24-1.07-1.84-1.67L368,112.23l-8.48,8.53-4-4,27.87-28,10.94,10.87c7.29,7.25,8,15.31,2,21.4-4.3,4.33-9.65,5.22-15,2.72l-2.71,16Zm18-18.38c4-4,3.57-9-1.56-14.05l-6.81-6.77-12.54,12.62,6.81,6.77C383.3,120.69,388.29,121,392.27,117Z"/><path class="cls-3" d="M401.93,166.31,397.81,169l-15.66-24,33.12-21.58,15.23,23.37-4.12,2.68-12.14-18.64-10.17,6.63L414.89,154l-4,2.62L400,140l-10.69,7Z"/><path class="cls-3" d="M415.8,200.24,411.23,202l-10.46-26.71,36.81-14.42,10.18,26-4.57,1.79L435.05,168l-11.31,4.43L431,190.84l-4.47,1.75-7.23-18.46-11.88,4.66Z"/><path class="cls-3" d="M227.59,365.62c-.47-.46-1.28-.36-1.87-1s-1.41-.86-2.06-1.47l-.94-.81a8.94,8.94,0,0,1-.93-.84c-.32-.31-.51-.75-1.08-.84-.41-.07-.3-.65-.58-.93a12,12,0,0,1-1.49-1.83c-.47-.64-.94-1.28-1.43-1.9-.41-.46-.47-1.22-1.22-1.43,0-.63-.55-1-.74-1.44a3,3,0,0,0-.7-1.35c-.39-.31-.23-.85-.72-1.12-.28-.17-.15-.79-.39-1.06a7.13,7.13,0,0,1-1.17-2.45c-.3-.85-1-1.52-1.31-2.35A12.88,12.88,0,0,0,210,343c-.35-.65-.15-1.45-.5-2.12a19.12,19.12,0,0,1-.92-2.33,11.06,11.06,0,0,0-1.09-2.27c.14-.9-.5-1.51-.8-2.26a21.26,21.26,0,0,1-.43-2.64c0-.07.1-.23.08-.24-1.1-.51-.51-1.73-1.22-2.4-.37-.34.19-.94-.41-1.31-.37-.23-.34-.8-.15-1.3.08-.22-.07-.48-.13-.72a8,8,0,0,0-.93-2.52c.37-.9-.34-1.55-.48-2.34a2.59,2.59,0,0,1-.12-1.26c.28-.79-.18-1.35-.48-2a7.72,7.72,0,0,1-.23-2,4.19,4.19,0,0,0-.07-.72,4.25,4.25,0,0,1-.39-1.83c0-.66-.38-1.25-.2-2,.07-.28-.49-.47-.23-.86s-.53-.49-.1-.84c-.31-.22-.67-.36-.39-.86.17-.31-.22-.7,0-1.09.08-.15-.12-.19-.19-.28a1.73,1.73,0,0,1-.33-1.47c.07-.38-.19-.67-.19-1,0-.56-.47-1-.31-1.62a2.89,2.89,0,0,0-.33-1.6c-.2-.62,0-1.51-1.05-1.83-.21-.06-.18-.47.08-.67a.75.75,0,0,0,.17-1.06c-.39-.53-.2-1.08-.2-1.62,0-1.15.21-2.31-.48-3.37,0-.07-.1-.18-.06-.23.61-.73,0-1.39-.05-2.08a10.39,10.39,0,0,0,.11-1.84,4.8,4.8,0,0,0-.58-2,1,1,0,0,1-.11-.76,8.16,8.16,0,0,0-.33-2.1c-.07-.39.23-.82-.21-1.24s-.22-.87-.26-1.32-.3-.89,0-1.35c-.69-1.11-.06-2.32-.26-3.47-.07-.41-.1-.83-.17-1.24s-.8-.37-.49-.86c0,0-.31-.31-.43-.21-.39.32-.52,0-.72-.13s-.47-.15-.51,0c-.11.38-.56.45-.79.71s-.24.32-.09.45c.6.5.1.74-.38.91-.71.25-.7.74-.66,1.2a12.65,12.65,0,0,1-.2,2c0,.19-.12.17-.22.23a.57.57,0,0,0-.12.87c1.1.17.43.84.34,1.15-.19.64.34,1.22,0,1.85-.12.2.11.38.32.51.78.46.36,1.34.84,1.9-.59.28-.42.53,0,.77.09.05.06.13-.07.18-.71.28-.32.48,0,.69s.54.41-.06.62c-.22.08-.08.22,0,.27.38.16.34.37.21.68a3.8,3.8,0,0,0,.24,2.63.73.73,0,0,1,0,.71c-.11.25-.67.25-.54.47a2.68,2.68,0,0,1,.28.69c.11.45.08,1,.38,1.31s-.43.93.24,1.2c-.38.37.35.53.19.86.63.35.15.79.06,1.19,0,.13-.47,0-.26.29.05.06.29,0,.43,0s.2,0,.26.16-.42.8.37.81c.16,0,.18.11,0,.15-.82.23-.41.67-.39,1.06,0,.14-.19.29-.14.47s-.13.74.57.39c.05,0,.15.2.07.32-.72,1.1-.73,1.1-.25,2.31a2.15,2.15,0,0,1,0,.68c.91.53.53,1.46.85,2.17.11.25.55.08.57.26s-.45.18-.43.46-.21.79.51.87c.17,0,.64.11.5.42-.07.14-.4.12-.17.44s-.49.4-.57.71c.42,0,.59.14.25.5s-.24.66.18.86.44.35,0,.56c.53.09.3.48.4.75s.24,0,.31-.11a.77.77,0,0,1,.55-.2c.35,0,.34.25.34.45s-.21.17-.37.13a.82.82,0,0,0-1,.47c-.14.32-.61-.1-.64.29a.58.58,0,0,0,.43.6c.52.21,0,.31-.08.48a1.55,1.55,0,0,0,.3,1.42,1.57,1.57,0,0,1,.44,1.29c-.1.49.34.73.81.92.29.12.43.28.27.61s-.6.24-.54.52.67-.09.41.4c-.09.17,0,.42.09.61s.06.49.26.7a1.87,1.87,0,0,1,.56,1.86c-.2.54.84.21.42.75a1.87,1.87,0,0,0-.14,1,.5.5,0,0,0,.26.42c.23.14.31.32,0,.48-.16.08-.19.18-.24.31-.14.31.68.44.06.91-.28.21.12.71.09,1.08a2.1,2.1,0,0,0,.82,2,1.27,1.27,0,0,1,.37,1.07,3.26,3.26,0,0,0,.7,2.47c-.33.73.56,1.09.5,1.8s.32,1.22.35,1.85c0,.28.12.34.32.44s.24,0,.2.24a2.84,2.84,0,0,0,.28,2.25c.32.4.82.66.58,1.3,0,.11.25.35.45.44a2.54,2.54,0,0,1,1.36,2.21,4.86,4.86,0,0,0,1,2.43,1.12,1.12,0,0,1,.24.69c0,.62.53,1.07.54,1.56,0,.77.62.93,1,1.32.15.15.34.36.32.55-.09.79.66,1.37.24,2.25-.13.28.15.49.2.74s.69.32.65.6.23.48.32.72c.16.44.85.46.88,1.1s.66.64,1.08.86a.54.54,0,0,1,.27.79,1.33,1.33,0,0,0,.39,1.73c.32.33,1,.37.84,1.05l.52-.06c-.07.12-.22.27-.2.37.06.29.31,0,.44,0s-.26.31,0,.62c.48.56,1.21.91,1.36,1.8.05.23.47.48.92.57a2.47,2.47,0,0,1,1.49.77c.29.37.55.85,1.13.88.07,0,.21.1.2.14-.07.46-.28,1.06.52,1,.54-.08.26.8.89.62.26-.08.34.35.43.64a2.86,2.86,0,0,0,.28.59,2.1,2.1,0,0,0,1.66.8c.32,0,.53.32.75.39.67.2,1,1,1.83,1a7.11,7.11,0,0,1,1.89.85.8.8,0,0,0,1.09-.36,5.2,5.2,0,0,0,1-3.09,3.79,3.79,0,0,0,0-1,3.23,3.23,0,0,0-.24-.55c-.1-.19-.18-.3-.38-.33A4.9,4.9,0,0,1,227.59,365.62Z"/><path class="cls-3" d="M228.72,434.52c.19-.69-.13-1.5,0-2.33a18.24,18.24,0,0,0,0-2.67c0-.85,0-1.71,0-2.56,0-.45.14-.9-.21-1.35s.23-.68.21-1.08c-.06-1.55,0-3.1,0-4.65,0-.6.27-1.24-.26-1.81.31-.51,0-1.06.11-1.55a2.79,2.79,0,0,0,.1-1.46c-.18-.44.25-.83-.05-1.28-.18-.27.21-.73.11-1.07a6.47,6.47,0,0,1,0-2.59c.11-.86-.2-1.7-.14-2.56a10.75,10.75,0,0,0-.16-2c-.08-.69.39-1.32.32-2-.17-1.57.27-3.16-.25-4.73.41-.76,0-1.5-.07-2.25a18.9,18.9,0,0,1,.4-2.48c0-.07.17-.17.15-.19-.9-.76,0-1.69-.42-2.49-.24-.4.45-.8,0-1.29-.3-.3-.13-.8.18-1.21.14-.18.05-.46.05-.69a7,7,0,0,0-.27-2.5c.59-.73.06-1.49.12-2.23a2.3,2.3,0,0,1,.2-1.17c.47-.66.17-1.27,0-1.89s.15-1.22.16-1.84a3.65,3.65,0,0,0,.07-.67,3.71,3.71,0,0,1,0-1.75c.17-.59-.12-1.22.19-1.82.12-.24-.39-.52-.05-.83s-.42-.54.07-.78c-.26-.26-.59-.45-.21-.86.23-.25-.07-.68.22-1,.11-.12-.07-.2-.13-.29a1.52,1.52,0,0,1,0-1.4c.14-.34,0-.65,0-1,.07-.52-.3-1-.06-1.54a2.52,2.52,0,0,0-.08-1.52c-.1-.6.24-1.39-.75-1.84-.2-.09-.11-.45.18-.61a.67.67,0,0,0,.34-.95c-.3-.54,0-1,.06-1.52.2-1.06.57-2.1,0-3.16,0-.07-.07-.18,0-.22.71-.59.2-1.29.27-1.93a8.47,8.47,0,0,0,.33-1.68,4.21,4.21,0,0,0-.34-1.91.87.87,0,0,1,0-.71,7.06,7.06,0,0,0-.08-2c0-.37.32-.74-.07-1.17s-.12-.82-.11-1.25-.2-.85.16-1.24c-.55-1.09.21-2.15.14-3.23,0-.39,0-.78,0-1.16s-.75-.42-.39-.84c0,0-.27-.32-.41-.23-.42.26-.51-.07-.7-.18s-.45-.18-.51,0c-.15.34-.61.36-.87.58s-.28.27-.14.41c.54.52,0,.69-.48.8a.91.91,0,0,0-.79,1,10.88,10.88,0,0,1-.43,1.81c0,.17-.13.14-.25.19a.5.5,0,0,0-.22.78c1.07.26.33.82.21,1.09-.26.56.19,1.15-.24,1.68-.14.17.07.36.26.5.72.51.2,1.26.61,1.83-.62.19-.48.44-.09.7.08.06,0,.13-.09.16-.74.17-.38.4-.07.63s.49.43-.13.56c-.23,0-.11.19,0,.25.36.19.29.38.13.65a3.41,3.41,0,0,0-.09,2.42.63.63,0,0,1-.1.65c-.15.22-.7.15-.61.36a2.27,2.27,0,0,1,.17.66c0,.42-.07.91.17,1.24s-.57.78.06,1.12c-.43.29.27.53.06.81.57.4,0,.74-.13,1.09,0,.11-.47,0-.3.23,0,.06.28,0,.42.07s.2,0,.23.19-.54.66.24.79c.16,0,.17.12,0,.14-.85.08-.5.55-.55.9,0,.13-.23.23-.21.41s-.25.65.5.44c.06,0,.12.2,0,.3-.88.89-.89.89-.61,2.05a1.81,1.81,0,0,1-.07.62c.82.62.3,1.41.46,2.1.06.25.52.16.51.33s-.48.09-.51.35-.37.67.33.87c.17,0,.61.21.4.47s-.42,0-.25.36-.56.27-.7.54c.4.11.55.23.15.49s-.37.55,0,.8.36.4-.12.5c.5.18.19.49.25.75s.25,0,.33,0a.83.83,0,0,1,.58-.08c.35.06.28.29.25.47s-.24.11-.39,0a.86.86,0,0,0-1.05.24c-.21.26-.58-.2-.68.14a.52.52,0,0,0,.3.62c.47.28-.08.27-.17.42a1.31,1.31,0,0,0,0,1.33,1.34,1.34,0,0,1,.18,1.24c-.19.42.19.72.61,1,.26.16.35.34.12.6s-.64.09-.65.35.67.06.3.44c-.13.13-.09.37-.07.56s-.07.45.08.68a1.58,1.58,0,0,1,.08,1.78c-.32.43.76.38.22.76a1.63,1.63,0,0,0-.37.83.43.43,0,0,0,.15.43c.19.18.22.36-.16.42a.45.45,0,0,0-.31.21c-.21.24.55.55-.17.81-.33.12-.06.66-.19,1a1.83,1.83,0,0,0,.28,1.94,1.05,1.05,0,0,1,0,1,2.71,2.71,0,0,0-.09,2.34c-.54.54.2,1.1-.07,1.69s-.07,1.14-.24,1.69c-.08.25,0,.33.17.47s.22.09.11.26a2.64,2.64,0,0,0-.48,2c.16.43.52.81.06,1.28-.08.08.1.37.25.51a2.12,2.12,0,0,1,.44,2.31,4,4,0,0,0,0,2.38.8.8,0,0,1-.05.66c-.31.49,0,1.07-.2,1.48-.33.62.15,1,.33,1.46.07.18.15.42,0,.57-.43.59,0,1.37-.78,1.89-.24.16-.08.45-.15.67s.43.54.26.74,0,.47-.1.69c-.09.4.49.73.19,1.22s.24.78.48,1.15a.44.44,0,0,1-.18.72,1.17,1.17,0,0,0-.61,1.45c.06.39.58.76,0,1.16l.45.23c-.13.05-.34.08-.38.16-.12.24.27.12.34.24s-.39.08-.37.42c0,.63.43,1.28,0,1.95-.12.18,0,.56.28.88a1.91,1.91,0,0,1,.56,1.36c0,.41-.18.85.22,1.23.05,0,.07.19,0,.21-.4.23-1,.42-.4.87.41.3-.45.6.09.91.22.13-.06.41-.21.62a1.51,1.51,0,0,0-.06,2c.16.22,0,.5.06.69.16.57-.47,1-.14,1.65.23.42-.1,1-.2,1.54s.13.54.58.69a10.63,10.63,0,0,0,3.19.58c.35,0,.84.12,1-.11s.82-.59.75-1.09A10.33,10.33,0,0,1,228.72,434.52Z"/><circle class="cls-3" cx="226.1" cy="336.73" r="9.22"/><path class="cls-3" d="M214.44,338.72c-.12.56.37,1.09.43,1.72a3.76,3.76,0,0,0,.3,1l.48.9a9,9,0,0,0,1.05,1.64c.21.26.33.63.82.64s.17.54.42.73a12.13,12.13,0,0,0,2.9,2c.41.19.76.66,1.35.3.26.44.74.28,1.07.45s.7.44,1.06.31.59.35,1,.06c.21-.17.54.23.8.15a5.21,5.21,0,0,1,2-.14,2.06,2.06,0,0,0,.94-.25,6.89,6.89,0,0,1,.9-.36,3.82,3.82,0,0,0,1.31-.72c.43-.28,1.06-.13,1.48-.48.87-.79,2.1-1.32,2.46-2.57.67-.2.67-.91.89-1.41s.89-.92,1.19-1.5c0,0,.2-.07.19-.08a.82.82,0,0,1,0-1c.14-.29.34-.59.18-.93s.54-.53.11-1c-.25-.25-.08-.6.25-.89.14-.13.07-.34.07-.52a3.12,3.12,0,0,0-.42-1.85c.51-.65-.18-1.11-.25-1.66-.07-.29-.24-.59-.12-.9.26-.65-.26-1-.59-1.32s-.34-.89-.62-1.28c-.09-.13-.12-.35-.26-.46a2.78,2.78,0,0,1-.9-1c-.2-.46-.76-.56-.92-1.11-.08-.21-.57.06-.56-.35s-.58.09-.47-.41c-.32.11-.61.31-.69-.17-.05-.31-.49-.2-.59-.56,0-.14-.17,0-.27,0a1.07,1.07,0,0,1-1-.39c-.2-.22-.49-.14-.71-.24-.38-.17-.83.08-1.18-.23s-.81-.14-1.18-.09-1.09-.32-1.4.71c-.06.2-.32.12-.45-.16-.22-.46-.55-.46-.73-.27-.36.37-.76.13-1.15.14-.81,0-1.77-.09-2.31.73,0,.05-.1.12-.14.09-.73-.46-1,.28-1.44.48a3.71,3.71,0,0,0-1.27.5,2.3,2.3,0,0,0-.9,1.26c0,.25-.18.31-.36.42-.46.27-.63.82-.89,1.25-.15.24-.58.31-.42.8.1.33-.21.6-.35.89s-.1.66-.53.81c.22,1-.72,1.51-.79,2.39,0,.3-.1.6-.09.9s.73.37.36.67c0,0,.26.24.4.18.43-.18.51.06.7.14s.44.12.51,0,.62-.22.89-.34.29-.14.15-.23c-.53-.35,0-.41.52-.41.74,0,.82-.21.87-.43s.45-.51.62-.76c.06-.07.15,0,.27,0,.49.06.42-.21.33-.26-1-.5-.17-.49,0-.53.34-.11.06-.57.57-.56.16,0,0-.17-.11-.33-.48-.61.18-.6,0-1.07.54.33.51.16.3-.2,0-.08,0-.08.12,0,.6.44.39.12.26-.18s-.17-.5.29-.09c.17.15.14,0,.09-.08-.18-.33-.05-.35.14-.31a1,1,0,0,0,1-.59c0-.15.15-.15.31-.07s.39.59.43.47a.61.61,0,0,1,.19-.28c.15-.13.4-.08.45-.37s.5.41.47-.21c.24.39.17-.32.35-.15.06-.62.34-.09.51,0s.06.47.14.29a3.66,3.66,0,0,0,0-.42c0-.1,0-.19.06-.25s.36.51.36-.27c0-.16.05-.17.07,0,.09.84.28.49.45.53s.1.24.18.22.28.26.22-.49a.07.07,0,0,1,.14,0c.35.88.29.94.85.72.11,0,.24.15.25.13.48-.74.7-.12,1-.15.13,0,.27-.46.34-.42s-.15.46-.05.54.11.46.51-.12c.09-.14.38-.5.4-.25s-.19.38,0,.31-.17.55-.15.73c.25-.32.39-.4.27,0s0,.45.3.22.37-.17.11.23c.39-.35.29,0,.42,0s.17-.18.2-.26a1.62,1.62,0,0,1,.36-.46c.25-.24.3-.1.35,0s-.12.21-.25.3a1.58,1.58,0,0,0-.64.84c-.06.22-.47.36-.43.53s.15.11.39,0c.42-.23,0,.14,0,.25-.07.3.08.4.36.42s.53,0,.44.33.32.16.75.06c.27-.06.38,0,.23.19s-.56.32-.52.43.62-.26.35,0c-.09.1,0,.19,0,.26s0,.21.18.26c.46.11.58.47.29.75s.78,0,.28.3a.76.76,0,0,0-.31.43c0,.07,0,.13.17.18s.23.15-.15.2a.66.66,0,0,0-.31.11c-.21.1.57.23-.15.35-.33,0-.08.27-.21.39s-.27.47.19.83c.19.15.1.34-.07.42-.44.23-.57.46-.39.9-.59,0,0,.5-.38.59s-.28.38-.57.45c-.12,0-.07.11,0,.25s.15.16,0,.16c-.51,0-.88,0-.89.27s.11.61-.32.38c-.07,0,0,.17,0,.32.23.78-.17.91-.56.91a.91.91,0,0,0-.92.47.18.18,0,0,1-.28,0c-.29-.22-.44.13-.66,0s-.37.21-.56.43-.17.18-.24.07c-.29-.43-.62,0-.82-.76-.06-.24-.17-.09-.25-.16s-.25.42-.31.23-.18-.08-.26-.14-.39.44-.52.09-.37.16-.6.33-.28.06-.23-.28c.11-.72-.07-.77-.29-.79s-.55.38-.42-.17l-.31.34a2.06,2.06,0,0,0,.14-.36c0-.15-.19.21-.27.24s.19-.34.06-.4-.69,0-.59-.48c0-.14-.17-.13-.45,0s-.68.16-.8,0-.08-.41-.51-.31c-.06,0-.11,0-.08-.06.26-.31.72-.7.12-.54-.42.09.25-.44-.29-.29-.22.05,0-.19.07-.34.3-.45.29-.69-.26-.79-.19,0-.09-.2-.15-.26s.33-.53,0-.71,0-.44.12-.65-.14-.21-.59-.26c-1-.11-2.09-.24-3.21-.25-.35,0-.84-.08-1,.08s-.8.45-.71.83S214.38,338.3,214.44,338.72Z"/><path class="cls-3" d="M214.44,338.72c-.12.56.37,1.09.43,1.72a3.76,3.76,0,0,0,.3,1l.48.9a9,9,0,0,0,1.05,1.64c.21.26.33.63.82.64s.17.54.42.73a12.13,12.13,0,0,0,2.9,2c.41.19.76.66,1.35.3.26.44.74.28,1.07.45s.7.44,1.06.31.59.35,1,.06c.21-.17.54.23.8.15a5.21,5.21,0,0,1,2-.14,2.06,2.06,0,0,0,.94-.25,6.89,6.89,0,0,1,.9-.36,3.82,3.82,0,0,0,1.31-.72c.43-.28,1.06-.13,1.48-.48.87-.79,2.1-1.32,2.46-2.57.67-.2.67-.91.89-1.41s.89-.92,1.19-1.5c0,0,.2-.07.19-.08a.82.82,0,0,1,0-1c.14-.29.34-.59.18-.93s.54-.53.11-1c-.25-.25-.08-.6.25-.89.14-.13.07-.34.07-.52a3.12,3.12,0,0,0-.42-1.85c.51-.65-.18-1.11-.25-1.66-.07-.29-.24-.59-.12-.9.26-.65-.26-1-.59-1.32s-.34-.89-.62-1.28c-.09-.13-.12-.35-.26-.46a2.78,2.78,0,0,1-.9-1c-.2-.46-.76-.56-.92-1.11-.08-.21-.57.06-.56-.35s-.58.09-.47-.41c-.32.11-.61.31-.69-.17-.05-.31-.49-.2-.59-.56,0-.14-.17,0-.27,0a1.07,1.07,0,0,1-1-.39c-.2-.22-.49-.14-.71-.24-.38-.17-.83.08-1.18-.23s-.81-.14-1.18-.09-1.09-.32-1.4.71c-.06.2-.32.12-.45-.16-.22-.46-.55-.46-.73-.27-.36.37-.76.13-1.15.14-.81,0-1.77-.09-2.31.73,0,.05-.1.12-.14.09-.73-.46-1,.28-1.44.48a3.71,3.71,0,0,0-1.27.5,2.3,2.3,0,0,0-.9,1.26c0,.25-.18.31-.36.42-.46.27-.63.82-.89,1.25-.15.24-.58.31-.42.8.1.33-.21.6-.35.89s-.1.66-.53.81c.22,1-.72,1.51-.79,2.39,0,.3-.1.6-.09.9s.73.37.36.67c0,0,.26.24.4.18.43-.18.51.06.7.14s.44.12.51,0,.62-.22.89-.34.29-.14.15-.23c-.53-.35,0-.41.52-.41.74,0,.82-.21.87-.43s.45-.51.62-.76c.06-.07.15,0,.27,0,.49.06.42-.21.33-.26-1-.5-.17-.49,0-.53.34-.11.06-.57.57-.56.16,0,0-.17-.11-.33-.48-.61.18-.6,0-1.07.54.33.51.16.3-.2,0-.08,0-.08.12,0,.6.44.39.12.26-.18s-.17-.5.29-.09c.17.15.14,0,.09-.08-.18-.33-.05-.35.14-.31a1,1,0,0,0,1-.59c0-.15.15-.15.31-.07s.39.59.43.47a.61.61,0,0,1,.19-.28c.15-.13.4-.08.45-.37s.5.41.47-.21c.24.39.17-.32.35-.15.06-.62.34-.09.51,0s.06.47.14.29a3.66,3.66,0,0,0,0-.42c0-.1,0-.19.06-.25s.36.51.36-.27c0-.16.05-.17.07,0,.09.84.28.49.45.53s.1.24.18.22.28.26.22-.49a.07.07,0,0,1,.14,0c.35.88.29.94.85.72.11,0,.24.15.25.13.48-.74.7-.12,1-.15.13,0,.27-.46.34-.42s-.15.46-.05.54.11.46.51-.12c.09-.14.38-.5.4-.25s-.19.38,0,.31-.17.55-.15.73c.25-.32.39-.4.27,0s0,.45.3.22.37-.17.11.23c.39-.35.29,0,.42,0s.17-.18.2-.26a1.62,1.62,0,0,1,.36-.46c.25-.24.3-.1.35,0s-.12.21-.25.3a1.58,1.58,0,0,0-.64.84c-.06.22-.47.36-.43.53s.15.11.39,0c.42-.23,0,.14,0,.25-.07.3.08.4.36.42s.53,0,.44.33.32.16.75.06c.27-.06.38,0,.23.19s-.56.32-.52.43.62-.26.35,0c-.09.1,0,.19,0,.26s0,.21.18.26c.46.11.58.47.29.75s.78,0,.28.3a.76.76,0,0,0-.31.43c0,.07,0,.13.17.18s.23.15-.15.2a.66.66,0,0,0-.31.11c-.21.1.57.23-.15.35-.33,0-.08.27-.21.39s-.27.47.19.83c.19.15.1.34-.07.42-.44.23-.57.46-.39.9-.59,0,0,.5-.38.59s-.28.38-.57.45c-.12,0-.07.11,0,.25s.15.16,0,.16c-.51,0-.88,0-.89.27s.11.61-.32.38c-.07,0,0,.17,0,.32.23.78-.17.91-.56.91a.91.91,0,0,0-.92.47.18.18,0,0,1-.28,0c-.29-.22-.44.13-.66,0s-.37.21-.56.43-.17.18-.24.07c-.29-.43-.62,0-.82-.76-.06-.24-.17-.09-.25-.16s-.25.42-.31.23-.18-.08-.26-.14-.39.44-.52.09-.37.16-.6.33-.28.06-.23-.28c.11-.72-.07-.77-.29-.79s-.55.38-.42-.17l-.31.34a2.06,2.06,0,0,0,.14-.36c0-.15-.19.21-.27.24s.19-.34.06-.4-.69,0-.59-.48c0-.14-.17-.13-.45,0s-.68.16-.8,0-.08-.41-.51-.31c-.06,0-.11,0-.08-.06.26-.31.72-.7.12-.54-.42.09.25-.44-.29-.29-.22.05,0-.19.07-.34.3-.45.29-.69-.26-.79-.19,0-.09-.2-.15-.26s.33-.53,0-.71,0-.44.12-.65-.14-.21-.59-.26c-1-.11-2.09-.24-3.21-.25-.35,0-.84-.08-1,.08s-.8.45-.71.83S214.38,338.3,214.44,338.72Z"/><path class="cls-3" d="M221.14,424.17c-.75.33-1.31,1.14-2.18,1.59s-1.71,1.14-2.58,1.7L213.85,429c-.44.27-1,.37-1.26.94-.21.41-.8.16-1.2.38a45.19,45.19,0,0,1-4.83,2.16c-.64.25-1.4.21-1.85.91-.65-.14-1.15.33-1.71.37a3.71,3.71,0,0,0-1.6.28c-.45.27-.94-.08-1.38.31-.27.22-.82-.1-1.18,0a3.66,3.66,0,0,1-1.4.24,7.48,7.48,0,0,1-1.39-.1c-.92-.09-1.82.13-2.73,0-.68-.16-1.4-.13-2.1-.25s-1.22-.77-1.94-.94a5.06,5.06,0,0,1-1.14-.46,7.77,7.77,0,0,1-1.08-.6,12.07,12.07,0,0,0-1.08-.61,5.64,5.64,0,0,0-1.15-.54,2.16,2.16,0,0,0-.8-.81,7.8,7.8,0,0,1-1-.67,9.94,9.94,0,0,1-1.4-2.24c0-.06,0-.24,0-.25-1.22-.13-.88-1.45-1.61-1.92-.18-.13-.16-.35-.17-.57a.48.48,0,0,0-.31-.56c-.38-.18-.32-.7-.06-1.08.12-.16,0-.42,0-.47h0l0-.4a4,4,0,0,1,.07-.53,7.4,7.4,0,0,0,.07-1.14c.79-.42.61-1.28,1.08-1.91.22-.33.46-.74.83-.88.78-.25.93-.92,1.27-1.5s1-.83,1.48-1.23c.17-.14.39-.21.52-.34a3.75,3.75,0,0,1,1.48-1.07c.62-.14,1-.77,1.72-.74.27,0,.32-.58.74-.4s.35-.62.76-.24c.15-.33.24-.71.76-.5.3.11.65-.26,1-.06.14.08.18-.12.26-.2A1.44,1.44,0,0,1,193,411c.36.08.65-.16,1-.13.54,0,1-.42,1.61-.16s1.1,0,1.62-.05c.32,0,.69.05,1,0a1.2,1.2,0,0,0,1-.59c.13-.18.52,0,.65.26a.8.8,0,0,0,1,.52c.65-.2,1.12.2,1.63.42,1.1.47,2.08,1.16,3.37,1.07.08,0,.21,0,.24.06.38.9,1.28.7,1.93,1a13.79,13.79,0,0,0,1.6,1.07,6.1,6.1,0,0,0,2.09.65,1.07,1.07,0,0,1,.73.36,11.06,11.06,0,0,0,2,1c.38.19.56.7,1.18.63.44-.05.87.4,1.27.68s.93.38,1.11.93c1.36.25,1.92,1.59,2.94,2.29.37.25.7.54,1.06.8s.85-.28,1,.3c0,0,.45,0,.46-.14,0-.51.39-.34.61-.4s.44-.21.37-.36c-.2-.37.07-.74,0-1.1,0-.21-.08-.42-.29-.42-.82,0-.66-.5-.46-1,.29-.7-.11-1.08-.53-1.4a21.22,21.22,0,0,1-1.54-1.65c-.15-.15-.07-.21-.05-.34a.69.69,0,0,0-.67-.73c-.87.7-1-.29-1.23-.58-.45-.6-1.3-.61-1.63-1.32-.11-.23-.42-.18-.66-.1-.92.31-1.44-.62-2.26-.6.09-.66-.24-.68-.72-.49-.1,0-.16,0-.13-.17.16-.75-.27-.56-.66-.42s-.7.19-.56-.43c.05-.23-.16-.21-.27-.14-.37.22-.55.06-.78-.23a4.76,4.76,0,0,0-2.71-1.3.94.94,0,0,1-.71-.39c-.2-.23.08-.72-.21-.73a4.52,4.52,0,0,1-.84-.13c-.52-.13-1.06-.45-1.54-.34s-.79-.83-1.38-.35c-.23-.53-.72.09-1-.2-.63.44-.9-.21-1.32-.44-.13-.07.13-.46-.22-.35-.09,0-.1.27-.18.4s-.06.19-.28.19-.74-.69-1,.05c-.06.15-.18.14-.18,0,0-.85-.62-.59-1.07-.69-.16,0-.27-.27-.5-.27s-.83-.3-.61.46c0,.06-.27.1-.38,0-1.08-1-1.13-1-2.65-.66a4.83,4.83,0,0,1-.83,0,1.73,1.73,0,0,1-1.3.59,6.12,6.12,0,0,0-1.4.2c-.31.11-.11.55-.33.57s-.21-.47-.55-.41-1-.14-1,.6c0,.18-.1.65-.47.54-.17,0-.17-.39-.52-.09s-.51-.42-.89-.43c0,.43-.09.61-.57.36a.63.63,0,0,0-1,.43c-.14.47-.32.54-.66.17,0,.55-.5.44-.77.67s.11.22.2.26a.66.66,0,0,1,.36.46c.1.34-.18.43-.39.51s-.24-.14-.25-.31a.74.74,0,0,0-.8-.75c-.41,0-.06-.64-.52-.49a.77.77,0,0,0-.56.69c0,.61-.34.14-.55.18a2.32,2.32,0,0,0-1.47,1.09,2.79,2.79,0,0,1-1.15,1.27c-.54.26-.55.82-.47,1.36a.51.51,0,0,1-.43.66c-.3.08-.56-.33-.8-.07s.46.48-.14.64c-.21.06-.38.34-.51.56s-.4.46-.46.8a3.6,3.6,0,0,1-.4,1.23,2.37,2.37,0,0,1-.75.92c-.54.43.48.79-.22,1.06-.23.09-.54.61-.73,1a.76.76,0,0,0,0,.65c.12.3.11.55-.29.57-.18,0-.26.13-.36.27-.24.35.37.78-.19,1.3l-.11.11c-.29.32,0,1.15,0,1.65a3.12,3.12,0,0,0,1.13,2.72,2.49,2.49,0,0,1,.66,1.32,4.11,4.11,0,0,0,1.71,2.76c0,.93,1.1,1,1.44,1.79s1,1.14,1.5,1.77a.72.72,0,0,0,.65.33c.12,0,.24-.1.35.12a3.93,3.93,0,0,0,2,1.93c.61.16,1.21.13,1.58.81.07.12.51.13.75.07a4.27,4.27,0,0,1,3.08.73,5.6,5.6,0,0,0,3.12.67,1.41,1.41,0,0,1,.86.19c.62.37,1.42.11,1.95.37.82.35,1.33-.14,1.94-.31.24-.07.55-.18.74-.08a3.18,3.18,0,0,0,1.29.18,1.73,1.73,0,0,1,1.26.36c.24.21.6,0,.9,0s.63-.56.91-.43.61-.07.91-.07c.53,0,.82-.7,1.51-.56s.91-.51,1.29-.87a.65.65,0,0,1,.93-.1,1.67,1.67,0,0,0,2,0c.45-.24.7-.89,1.37-.58l.1-.53c.11.1.22.27.33.27.33,0,0-.32.15-.44s.24.32.64.13c.74-.35,1.29-1.06,2.25-1,.26,0,.63-.34.87-.75a2.92,2.92,0,0,1,1.24-1.29c.47-.2,1-.36,1.23-.94,0-.08.16-.18.21-.16.44.2,1,.59,1.13-.21.11-.54.87,0,.92-.67,0-.28.46-.23.76-.24a2.18,2.18,0,0,0,2.06-1.3c.13-.29.51-.37.67-.54.47-.54,1.32-.37,1.74-1.11.29-.5,1.07-.7,1.65-1,.41-.24.45-.53.31-1a7.91,7.91,0,0,0-1.53-2.89c-.23-.27-.46-.71-.75-.69-.47.05-1-.2-1.43.22A11.29,11.29,0,0,1,221.14,424.17Z"/><path class="cls-3" d="M252.52,370.5a12.72,12.72,0,0,0,2.63-1.32,10.91,10.91,0,0,0,2.67-1.85l1.19-1a6.64,6.64,0,0,0,1.1-1c.34-.39.82-.67.93-1.29.07-.45.71-.42,1-.77.63-.66,1.11-1.4,1.66-2.1s1.08-1.41,1.59-2.14c.42-.55,1-1,.89-1.86.56-.33.64-1,1-1.43a3.53,3.53,0,0,0,.93-1.36c.1-.52.72-.67.68-1.27,0-.36.54-.63.62-1a8.07,8.07,0,0,1,1.29-2.58c.52-.82.65-1.79,1.12-2.62a12.27,12.27,0,0,0,.67-2.1c.21-.74.9-1.21,1.12-2a21,21,0,0,1,1-2.44,6.19,6.19,0,0,0,.65-2.54c.64-.66.49-1.58.69-2.38a22.92,22.92,0,0,1,1.22-2.48c0-.07.22-.13.21-.16-.6-1.06.62-1.76.43-2.74-.08-.48.68-.72.34-1.37-.21-.4.09-.89.5-1.23.18-.15.17-.47.24-.72a8.43,8.43,0,0,0,.42-2.72c.77-.63.46-1.57.72-2.34a2.76,2.76,0,0,1,.51-1.2,2.39,2.39,0,0,0,.52-2,8,8,0,0,1,.56-1.93,4.33,4.33,0,0,0,.21-.7,4.44,4.44,0,0,1,.36-1.88c.3-.6.15-1.33.59-1.92.17-.23-.27-.64.13-.9s-.3-.66.24-.83c-.2-.33-.48-.6,0-1,.28-.23.08-.74.43-1,.13-.11,0-.23-.06-.34a1.8,1.8,0,0,1,.27-1.51c.21-.33.1-.7.19-1,.16-.55-.13-1.15.2-1.67a3,3,0,0,0,.18-1.65c0-.66.47-1.46-.43-2.1-.18-.13,0-.51.28-.63a.76.76,0,0,0,.49-1c-.21-.63.14-1.11.31-1.63.37-1.11.92-2.19.58-3.4,0-.08,0-.2,0-.24.81-.54.41-1.36.59-2a9.35,9.35,0,0,0,.54-1.77,5,5,0,0,0-.1-2.11,1,1,0,0,1,.07-.77,8.38,8.38,0,0,0,.17-2.15c0-.4.41-.76.08-1.27-.23-.35,0-.91.05-1.36s-.09-.94.32-1.33c-.41-1.24.48-2.31.55-3.49,0-.42.1-.84.12-1.26s-.69-.53-.28-1c0,0-.23-.37-.38-.29-.45.24-.5-.12-.68-.27s-.42-.24-.5-.09c-.2.35-.65.33-.94.54s-.31.27-.19.42c.47.61-.07.74-.58.81-.75.1-.85.58-.92,1a12.56,12.56,0,0,1-.65,1.89c-.05.18-.15.14-.27.18a.56.56,0,0,0-.31.81c1,.4.23.91.07,1.19-.33.57,0,1.25-.45,1.77-.16.17,0,.39.2.57.66.63,0,1.37.38,2-.64.13-.53.41-.18.74.08.07,0,.14-.11.16-.75.09-.42.38-.15.67s.43.53-.2.58c-.23,0-.13.19,0,.26.34.25.24.44,0,.71a4.17,4.17,0,0,0-.41,2.58.72.72,0,0,1-.21.67c-.18.21-.72.06-.66.3a2.56,2.56,0,0,1,.06.73c0,.45-.22,1,0,1.34s-.69.75-.13,1.2c-.48.24.18.6-.08.87.5.52-.1.79-.31,1.14-.07.11-.46-.1-.34.19,0,.07.27.08.4.14s.19,0,.2.23-.65.62.11.87c.16.05.14.16,0,.15-.85,0-.59.5-.69.87,0,.13-.27.21-.27.4s-.35.65.42.55c.06,0,.08.23,0,.32-1,.8-1,.79-.94,2.08a2.07,2.07,0,0,1-.17.65c.71.81.06,1.55.05,2.3,0,.27.48.27.43.44s-.49,0-.58.27-.5.64.14,1c.15.08.55.34.3.57s-.42,0-.32.34-.61.18-.8.43c.37.19.49.35,0,.55s-.48.51-.17.84.27.49-.23.5c.45.29.09.55.08.83s.24.06.33,0a.78.78,0,0,1,.59,0c.33.13.21.36.14.55s-.26.07-.4,0a.82.82,0,0,0-1.08,0c-.26.23-.53-.33-.7,0a.58.58,0,0,0,.17.71c.4.39-.14.27-.26.4a1.49,1.49,0,0,0-.27,1.4,1.54,1.54,0,0,1-.09,1.34c-.28.4,0,.8.38,1.17s.26.44,0,.65-.65-.06-.73.21.64.21.17.52c-.16.11-.18.37-.22.57s-.19.45-.1.72a1.8,1.8,0,0,1-.4,1.86c-.43.37.63.58,0,.85a1.81,1.81,0,0,0-.58.77.49.49,0,0,0,0,.48c.13.23.12.43-.26.39a.45.45,0,0,0-.36.14c-.27.2.39.71-.38.8-.35,0-.24.66-.44,1a2.12,2.12,0,0,0-.25,2.08,1.18,1.18,0,0,1-.31,1,3.06,3.06,0,0,0-.84,2.34c-.69.38-.17,1.17-.62,1.69s-.43,1.13-.77,1.63c-.15.22-.1.33,0,.53s.17.17,0,.3a3.31,3.31,0,0,0-1.15,1.83c0,.48.17,1-.44,1.27-.11.05,0,.4,0,.59a2.33,2.33,0,0,1-.49,2.43,4.48,4.48,0,0,0-.89,2.36.78.78,0,0,1-.32.62c-.51.34-.48,1-.87,1.31-.59.45-.32,1-.38,1.52,0,.2-.06.47-.22.56-.66.36-.64,1.3-1.56,1.42-.29,0-.28.38-.43.56s.1.69-.16.78-.29.39-.45.56,0,.9-.49,1.18-.22.81-.21,1.28-.16.57-.54.54c-.82-.07-1,.44-1.32.91s0,.95-.67,1l.23.45c-.14,0-.32-.14-.4-.1-.24.12.14.26.12.4s-.36-.18-.56.12c-.35.52-.43,1.32-1.19,1.56-.21.05-.37.41-.39.81a1.88,1.88,0,0,1-.53,1.37c-.31.27-.71.5-.7,1.07,0,.08-.09.18-.13.17-.45-.15-1-.47-.92.25,0,.5-.73,0-.63.64,0,.26-.35.21-.59.22a2,2,0,0,0-.52.08,1.34,1.34,0,0,0-.45.14,1.32,1.32,0,0,0-.6.77c-.09.25-.39.26-.51.4-.38.42-1,0-1.39.51s-.85.18-1.25.22-.32.19-.37.67c-.1,1.07-.21,2.12-.29,3.24,0,.35-.23.85.19,1a6.09,6.09,0,0,1,.81.41,1.12,1.12,0,0,0,.9.08C251.25,370.86,251.86,370.78,252.52,370.5Z"/><path class="cls-3" d="M254.73,434.52c.19-.69-.13-1.5,0-2.33a18.24,18.24,0,0,0,0-2.67c0-.85,0-1.71,0-2.56,0-.45.14-.9-.21-1.35s.23-.68.21-1.08c-.06-1.55,0-3.1,0-4.65,0-.6.27-1.24-.26-1.81.31-.51,0-1.06.11-1.55a2.79,2.79,0,0,0,.1-1.46c-.18-.44.25-.83-.05-1.28-.18-.27.21-.73.11-1.07a6.47,6.47,0,0,1,0-2.59c.11-.86-.2-1.7-.14-2.56a10.75,10.75,0,0,0-.16-2c-.08-.69.39-1.32.32-2-.17-1.57.27-3.16-.25-4.73.41-.76,0-1.5-.07-2.25a18.9,18.9,0,0,1,.4-2.48c0-.07.17-.17.15-.19-.9-.76,0-1.69-.42-2.49-.24-.4.45-.8,0-1.29-.3-.3-.13-.8.18-1.21.14-.18.05-.46.05-.69a7,7,0,0,0-.27-2.5c.59-.73.06-1.49.12-2.23a2.3,2.3,0,0,1,.2-1.17c.47-.66.17-1.27,0-1.89s.15-1.22.16-1.84a3.65,3.65,0,0,0,.07-.67,3.71,3.71,0,0,1,0-1.75c.17-.59-.12-1.22.19-1.82.12-.24-.39-.52-.05-.83s-.42-.54.07-.78c-.26-.26-.59-.45-.21-.86.23-.25-.07-.68.22-1,.11-.12-.07-.2-.13-.29a1.52,1.52,0,0,1,0-1.4c.14-.34,0-.65,0-1,.07-.52-.3-1-.06-1.54a2.52,2.52,0,0,0-.08-1.52c-.1-.6.24-1.39-.75-1.84-.2-.09-.11-.45.18-.61a.67.67,0,0,0,.34-.95c-.3-.54,0-1,.06-1.52.2-1.06.57-2.1,0-3.16,0-.07-.07-.18,0-.22.71-.59.2-1.29.27-1.93a8.47,8.47,0,0,0,.33-1.68,4.21,4.21,0,0,0-.34-1.91.87.87,0,0,1,0-.71,7.06,7.06,0,0,0-.08-2c0-.37.32-.74-.07-1.17s-.12-.82-.11-1.25-.2-.85.16-1.24c-.55-1.09.21-2.15.14-3.23,0-.39,0-.78,0-1.16s-.75-.42-.39-.84c0,0-.27-.32-.41-.23-.42.26-.51-.07-.7-.18s-.45-.18-.51,0c-.15.34-.61.36-.87.58s-.28.27-.14.41c.54.52,0,.69-.48.8a.91.91,0,0,0-.79,1,10.88,10.88,0,0,1-.43,1.81c0,.17-.13.14-.25.19a.5.5,0,0,0-.22.78c1.07.26.33.82.21,1.09-.26.56.19,1.15-.24,1.68-.14.17.07.36.26.5.72.51.2,1.26.61,1.83-.62.19-.48.44-.09.7.08.06,0,.13-.09.16-.74.17-.38.4-.07.63s.49.43-.13.56c-.23,0-.11.19,0,.25.36.19.29.38.13.65a3.41,3.41,0,0,0-.09,2.42.63.63,0,0,1-.1.65c-.15.22-.7.15-.61.36a2.27,2.27,0,0,1,.17.66c0,.42-.07.91.17,1.24s-.57.78.06,1.12c-.43.29.27.53.06.81.57.4,0,.74-.13,1.09,0,.11-.47,0-.3.23,0,.06.28,0,.42.07s.2,0,.23.19-.54.66.24.79c.16,0,.17.12,0,.14-.85.08-.5.55-.55.9,0,.13-.23.23-.21.41s-.25.65.5.44c.06,0,.12.2,0,.3-.88.89-.89.89-.61,2.05a1.81,1.81,0,0,1-.07.62c.82.62.3,1.41.46,2.1.06.25.52.16.51.33s-.48.09-.51.35-.37.67.33.87c.17,0,.61.21.4.47s-.42,0-.25.36-.56.27-.7.54c.4.11.55.23.15.49s-.37.55,0,.8.36.4-.12.5c.5.18.19.49.25.75s.25,0,.33,0a.83.83,0,0,1,.58-.08c.35.06.28.29.25.47s-.24.11-.39,0a.86.86,0,0,0-1.05.24c-.21.26-.58-.2-.68.14a.52.52,0,0,0,.3.62c.47.28-.08.27-.17.42a1.31,1.31,0,0,0,0,1.33,1.34,1.34,0,0,1,.18,1.24c-.19.42.19.72.61,1,.26.16.35.34.12.6s-.64.09-.65.35.67.06.3.44c-.13.13-.09.37-.07.56s-.07.45.08.68a1.58,1.58,0,0,1,.08,1.78c-.32.43.76.38.22.76a1.63,1.63,0,0,0-.37.83.43.43,0,0,0,.15.43c.19.18.22.36-.16.42a.45.45,0,0,0-.31.21c-.21.24.55.55-.17.81-.33.12-.06.66-.19,1a1.83,1.83,0,0,0,.28,1.94,1.05,1.05,0,0,1,0,1,2.71,2.71,0,0,0-.09,2.34c-.54.54.2,1.1-.07,1.69s-.07,1.14-.24,1.69c-.08.25,0,.33.17.47s.22.09.11.26a2.64,2.64,0,0,0-.48,2c.16.43.52.81.06,1.28-.08.08.1.37.25.51a2.12,2.12,0,0,1,.44,2.31,4,4,0,0,0,0,2.38.8.8,0,0,1-.05.66c-.31.49,0,1.07-.2,1.48-.33.62.15,1,.33,1.46.07.18.15.42,0,.57-.43.59,0,1.37-.78,1.89-.24.16-.08.45-.15.67s.43.54.26.74,0,.47-.1.69c-.09.4.49.73.19,1.22s.24.78.48,1.15a.44.44,0,0,1-.18.72,1.17,1.17,0,0,0-.61,1.45c.06.39.58.76,0,1.16l.45.23c-.13.05-.34.08-.38.16-.12.24.27.12.34.24s-.39.08-.37.42c0,.63.43,1.28,0,1.95-.12.18,0,.56.28.88a1.91,1.91,0,0,1,.56,1.36c0,.41-.18.85.22,1.23.05,0,.07.19,0,.21-.4.23-1,.42-.4.87.41.3-.45.6.09.91.22.13-.06.41-.21.62a1.51,1.51,0,0,0-.06,2c.16.22,0,.5.06.69.16.57-.47,1-.14,1.65.23.42-.1,1-.2,1.54s.13.54.58.69a10.63,10.63,0,0,0,3.19.58c.35,0,.84.12,1-.11s.82-.59.75-1.09A10.34,10.34,0,0,1,254.73,434.52Z"/><circle class="cls-3" cx="252.11" cy="336.73" r="9.22"/><path class="cls-3" d="M258.6,337.84c-.21.25,0,.65-.23,1a1.37,1.37,0,0,0-.25.5c-.07.17-.13.35-.21.52s-.4.59-.6.9-.34.2-.21.58-.36.07-.47.18a5.83,5.83,0,0,1-1.59,1.14c-.23.14-.56,0-.61.54-.31-.21-.44.12-.68.09s-.48-.17-.63,0-.37-.19-.54.11-.32-.19-.46-.09a1.07,1.07,0,0,1-1.09-.12,1.33,1.33,0,0,0-.54-.06.93.93,0,0,1-.55-.07,3.46,3.46,0,0,0-.86-.18c-.33,0-.31-.63-.6-.7-.67-.25-.84-1-1.66-1.18.13-.51-.4-.5-.62-.77s0-.8-.11-1.12c0,0,.13-.13.11-.13-1,0-.17-.68-.71-.88-.26-.14.39-.41-.13-.54-.33-.09-.16-.35.14-.53.13-.08,0-.19,0-.29a1.73,1.73,0,0,0-.17-1.09c.6-.21.19-.6.32-.92.09-.15.1-.35.36-.4.52-.08.37-.39.34-.71s.38-.37.54-.55.2-.08.22-.18a.6.6,0,0,1,.45-.55c.28,0,.28-.42.66-.35.15,0-.07-.43.23-.24s-.07-.49.29-.12c-.06-.27-.15-.59.18-.36s.2-.2.45,0c.09.08,0-.1,0-.17.05-.33.26-.37.5-.24s.22-.14.36-.13.32-.4.59-.2.41-.07.6-.16.55.19.77-.77c0-.2.22-.09.27.19.08.47.25.49.38.37s.45,0,.62.17c.4.3.63.76,1.24.46,0,0,.1,0,.09,0-.09.74.37.4.56.61s.13.56.35.65.36.33.79.24c.17,0,.18.09.21.2.08.28.36.39.57.58s-.12.42.31.37.28.24.34.41.35.25.06.53c.69.25.09.91.21,1.3,0,.15.06.3.09.46s.76.13.41.33a.66.66,0,0,0,.41.09.8.8,0,0,1,.71.08c.18.05.45.09.51,0s.6-.21.85-.34.27-.18.13-.25c-.55-.26,0-.4.44-.53.71-.19.71-.51.68-.79a9.37,9.37,0,0,1,.12-1.32c0-.12.09-.14.19-.2.41-.29.11-.63,0-.61-1.06.2-.51-.41-.5-.65.06-.49-.53-.65-.36-1.2.05-.18-.2-.19-.41-.17-.79.09-.69-.61-1.25-.68.39-.5.16-.54-.26-.41-.09,0-.09,0,0-.14.46-.59.08-.47-.25-.37s-.55.15-.2-.36c.13-.19,0-.17-.13-.12-.34.18-.38,0-.42-.2a1.56,1.56,0,0,0-1.34-1c-.2,0-.28-.12-.34-.32s.23-.67,0-.66a1.42,1.42,0,0,1-.52-.06c-.29-.1-.59-.33-.91-.18s-.37-.74-.79-.2c-.09-.47-.44.16-.58-.09-.4.48-.51-.07-.75-.27-.07-.06.09-.47-.12-.33-.05,0-.06.28-.11.41s0,.19-.16.21-.42-.59-.57.19c0,.16-.1.16-.1,0,0-.85-.37-.52-.62-.58-.09,0-.17-.23-.3-.2s-.49-.22-.3.52c0,.06-.13.12-.21,0-.7-.85-.75-.81-1.55-.41-.16.09-.46,0-.47,0-.24.9-.91.56-1.33.9-.14.11.09.53,0,.55s-.24-.42-.43-.37-.61-.12-.41.56c0,.17.15.6-.1.5s-.23-.35-.34-.09-.45-.39-.69-.4c.15.38.16.54-.23.31s-.54-.06-.46.35,0,.45-.37.12c.21.46-.14.38-.25.54s.16.19.24.23a1.16,1.16,0,0,1,.42.4c.2.29,0,.34-.06.39s-.22-.13-.29-.27a1.09,1.09,0,0,0-.85-.65c-.29,0-.29-.53-.56-.42s-.22.29-.11.55c.2.47-.2.1-.34.12a.75.75,0,0,0-.64.8c0,.36,0,.69-.39.87s-.12.57.15.93.21.38-.08.44-.6-.23-.7-.05.59.32.13.42c-.16,0-.19.22-.22.36s-.18.29-.1.5c.19.52.16,1-.28,1.27s.69.41.11.58c-.18.06-.36.33-.46.54s0,.22.12.33.21.27-.17.29a.46.46,0,0,0-.32.14c-.22.18.53.42-.19.61-.32.1,0,.51-.15.76a1.09,1.09,0,0,0,.46,1.45.68.68,0,0,1,.2.75,1.49,1.49,0,0,0,.49,1.72c-.3.6.53.68.52,1.19s.38.8.51,1.23c.05.2.16.2.35.19s.22-.08.21.09a1.56,1.56,0,0,0,.69,1.48c.37.13.82,0,.8.64,0,.1.3.1.48,0a1.46,1.46,0,0,1,1.71.61,1.94,1.94,0,0,0,1.63.71.47.47,0,0,1,.45.22c.26.42.78.2,1,.49.4.44.78,0,1.14-.13.14,0,.33-.1.42,0,.41.45,1,.08,1.42.81.14.23.36.06.53.12s.39-.46.55-.31.37,0,.55,0c.34,0,.47-.57.9-.38s.54-.37.71-.7.32-.29.57,0a.8.8,0,0,0,1.28.11c.26-.19.26-.77.79-.48l-.08-.48c.1.09.23.26.3.26.23,0-.06-.28,0-.39s.27.3.48.13c.38-.34.55-.91,1.21-.94.18,0,.32-.32.32-.67a1.39,1.39,0,0,1,.29-1.13c.23-.19.53-.39.38-.84,0-.06,0-.15.06-.14.42.11,1,.29.68-.31-.23-.4.62-.16.27-.63-.15-.19.18-.24.39-.32a.9.9,0,0,0,.63-1.34c-.1-.21.13-.36.1-.51-.06-.45.67-.65.42-1.19-.18-.36.23-.75.36-1.15s-.1-.43-.55-.56a11.73,11.73,0,0,0-3.17-.44,2.85,2.85,0,0,0-1,0c-.28.17-.84.24-.77.46S258.63,337.61,258.6,337.84Z"/><path class="cls-3" d="M258.6,337.84c-.21.25,0,.65-.23,1a1.37,1.37,0,0,0-.25.5c-.07.17-.13.35-.21.52s-.4.59-.6.9-.34.2-.21.58-.36.07-.47.18a5.83,5.83,0,0,1-1.59,1.14c-.23.14-.56,0-.61.54-.31-.21-.44.12-.68.09s-.48-.17-.63,0-.37-.19-.54.11-.32-.19-.46-.09a1.07,1.07,0,0,1-1.09-.12,1.33,1.33,0,0,0-.54-.06.93.93,0,0,1-.55-.07,3.46,3.46,0,0,0-.86-.18c-.33,0-.31-.63-.6-.7-.67-.25-.84-1-1.66-1.18.13-.51-.4-.5-.62-.77s0-.8-.11-1.12c0,0,.13-.13.11-.13-1,0-.17-.68-.71-.88-.26-.14.39-.41-.13-.54-.33-.09-.16-.35.14-.53.13-.08,0-.19,0-.29a1.73,1.73,0,0,0-.17-1.09c.6-.21.19-.6.32-.92.09-.15.1-.35.36-.4.52-.08.37-.39.34-.71s.38-.37.54-.55.2-.08.22-.18a.6.6,0,0,1,.45-.55c.28,0,.28-.42.66-.35.15,0-.07-.43.23-.24s-.07-.49.29-.12c-.06-.27-.15-.59.18-.36s.2-.2.45,0c.09.08,0-.1,0-.17.05-.33.26-.37.5-.24s.22-.14.36-.13.32-.4.59-.2.41-.07.6-.16.55.19.77-.77c0-.2.22-.09.27.19.08.47.25.49.38.37s.45,0,.62.17c.4.3.63.76,1.24.46,0,0,.1,0,.09,0-.09.74.37.4.56.61s.13.56.35.65.36.33.79.24c.17,0,.18.09.21.2.08.28.36.39.57.58s-.12.42.31.37.28.24.34.41.35.25.06.53c.69.25.09.91.21,1.3,0,.15.06.3.09.46s.76.13.41.33a.66.66,0,0,0,.41.09.8.8,0,0,1,.71.08c.18.05.45.09.51,0s.6-.21.85-.34.27-.18.13-.25c-.55-.26,0-.4.44-.53.71-.19.71-.51.68-.79a9.37,9.37,0,0,1,.12-1.32c0-.12.09-.14.19-.2.41-.29.11-.63,0-.61-1.06.2-.51-.41-.5-.65.06-.49-.53-.65-.36-1.2.05-.18-.2-.19-.41-.17-.79.09-.69-.61-1.25-.68.39-.5.16-.54-.26-.41-.09,0-.09,0,0-.14.46-.59.08-.47-.25-.37s-.55.15-.2-.36c.13-.19,0-.17-.13-.12-.34.18-.38,0-.42-.2a1.56,1.56,0,0,0-1.34-1c-.2,0-.28-.12-.34-.32s.23-.67,0-.66a1.42,1.42,0,0,1-.52-.06c-.29-.1-.59-.33-.91-.18s-.37-.74-.79-.2c-.09-.47-.44.16-.58-.09-.4.48-.51-.07-.75-.27-.07-.06.09-.47-.12-.33-.05,0-.06.28-.11.41s0,.19-.16.21-.42-.59-.57.19c0,.16-.1.16-.1,0,0-.85-.37-.52-.62-.58-.09,0-.17-.23-.3-.2s-.49-.22-.3.52c0,.06-.13.12-.21,0-.7-.85-.75-.81-1.55-.41-.16.09-.46,0-.47,0-.24.9-.91.56-1.33.9-.14.11.09.53,0,.55s-.24-.42-.43-.37-.61-.12-.41.56c0,.17.15.6-.1.5s-.23-.35-.34-.09-.45-.39-.69-.4c.15.38.16.54-.23.31s-.54-.06-.46.35,0,.45-.37.12c.21.46-.14.38-.25.54s.16.19.24.23a1.16,1.16,0,0,1,.42.4c.2.29,0,.34-.06.39s-.22-.13-.29-.27a1.09,1.09,0,0,0-.85-.65c-.29,0-.29-.53-.56-.42s-.22.29-.11.55c.2.47-.2.1-.34.12a.75.75,0,0,0-.64.8c0,.36,0,.69-.39.87s-.12.57.15.93.21.38-.08.44-.6-.23-.7-.05.59.32.13.42c-.16,0-.19.22-.22.36s-.18.29-.1.5c.19.52.16,1-.28,1.27s.69.41.11.58c-.18.06-.36.33-.46.54s0,.22.12.33.21.27-.17.29a.46.46,0,0,0-.32.14c-.22.18.53.42-.19.61-.32.1,0,.51-.15.76a1.09,1.09,0,0,0,.46,1.45.68.68,0,0,1,.2.75,1.49,1.49,0,0,0,.49,1.72c-.3.6.53.68.52,1.19s.38.8.51,1.23c.05.2.16.2.35.19s.22-.08.21.09a1.56,1.56,0,0,0,.69,1.48c.37.13.82,0,.8.64,0,.1.3.1.48,0a1.46,1.46,0,0,1,1.71.61,1.94,1.94,0,0,0,1.63.71.47.47,0,0,1,.45.22c.26.42.78.2,1,.49.4.44.78,0,1.14-.13.14,0,.33-.1.42,0,.41.45,1,.08,1.42.81.14.23.36.06.53.12s.39-.46.55-.31.37,0,.55,0c.34,0,.47-.57.9-.38s.54-.37.71-.7.32-.29.57,0a.8.8,0,0,0,1.28.11c.26-.19.26-.77.79-.48l-.08-.48c.1.09.23.26.3.26.23,0-.06-.28,0-.39s.27.3.48.13c.38-.34.55-.91,1.21-.94.18,0,.32-.32.32-.67a1.39,1.39,0,0,1,.29-1.13c.23-.19.53-.39.38-.84,0-.06,0-.15.06-.14.42.11,1,.29.68-.31-.23-.4.62-.16.27-.63-.15-.19.18-.24.39-.32a.9.9,0,0,0,.63-1.34c-.1-.21.13-.36.1-.51-.06-.45.67-.65.42-1.19-.18-.36.23-.75.36-1.15s-.1-.43-.55-.56a11.73,11.73,0,0,0-3.17-.44,2.85,2.85,0,0,0-1,0c-.28.17-.84.24-.77.46S258.63,337.61,258.6,337.84Z"/><path class="cls-3" d="M253.89,428.33a27.66,27.66,0,0,0,2.35,1.71,20.52,20.52,0,0,0,2.76,1.86c.9.57,1.79,1.16,2.74,1.65a3,3,0,0,0,1.58.63c.48,0,.65.59,1.1.81,1.77.82,3.52,1.7,5.39,2.35.72.24,1.41.79,2.26.5.54.48,1.28.42,1.87.66a4.22,4.22,0,0,0,1.81.53c.6-.07,1,.45,1.64.26.37-.13.92.33,1.37.29a10.14,10.14,0,0,1,1.71,0c.56.07,1.12.15,1.7.19a19.28,19.28,0,0,0,3.39-.36,10.34,10.34,0,0,0,2.58-.67,21.29,21.29,0,0,0,2.71-.52c.5-.2,1-.47,1.46-.68a12.61,12.61,0,0,0,1.45-.7,14.73,14.73,0,0,0,1.37-.84,8.55,8.55,0,0,0,1.15-1.11,2.54,2.54,0,0,0,1.31-.88c.34-.39.61-.81.94-1.19.74-.84,1.75-1.38,2.48-2.28.06-.07.28-.1.27-.13-.12-1.33,1.34-2,1.41-3.25a1.39,1.39,0,0,1,.42-.78,1.09,1.09,0,0,0,.2-1,2.31,2.31,0,0,1,.57-1.74,3,3,0,0,0,.17-1.17v-.05l-.11-1.09a5.13,5.13,0,0,0-.19-.94,5.24,5.24,0,0,0-.74-1.69c.16-1.21-.8-2-1.29-2.88a5.3,5.3,0,0,1-.73-1.46,3.22,3.22,0,0,0-1.62-2c-.7-.52-1-1.29-1.66-1.87a4.47,4.47,0,0,0-.72-.68,7.92,7.92,0,0,1-2-1.36c-.62-.55-1.47-.78-2.1-1.4-.25-.25-.82,0-1.07-.44s-.84.09-1-.47c-.43.12-.78.34-1.2-.2-.26-.35-.92-.19-1.26-.58-.13-.15-.28,0-.42,0a3.28,3.28,0,0,1-1.89-.34,3.79,3.79,0,0,0-1.29-.17c-.7-.12-1.39.16-2.09-.07a3.78,3.78,0,0,0-2,.11c-.39.08-.86,0-1.29.13a1.37,1.37,0,0,0-1,.84c-.09.21-.56.18-.8-.08a1,1,0,0,0-1.26-.11,3.81,3.81,0,0,1-1.93.37,6.58,6.58,0,0,0-3.9,1.13c-.07.06-.19.14-.25.11-1-.41-1.61.4-2.39.64a10.72,10.72,0,0,0-2.09.57,5.83,5.83,0,0,0-2,1.38,1.44,1.44,0,0,1-.78.44,9.44,9.44,0,0,0-2.13,1.29c-.39.25-1,.2-1.22.81-.18.42-.81.65-1.26.92s-.78.75-1.38.72c-.81,1.22-2.32,1.37-3.37,2.25-.37.32-.77.6-1.14.93s.06.91-.58,1c-.05,0-.14.47,0,.5.53.11.27.44.28.69s.11.5.3.42c.42-.16.74.17,1.1.21.21,0,.43,0,.47-.2.15-.81.64-.53,1.05-.22.61.45,1.05.17,1.46-.12a11.85,11.85,0,0,1,2-.9c.18-.09.21,0,.32.07a.64.64,0,0,0,.87-.34c-.34-1.06.6-.81.94-.87.69-.14,1-.89,1.78-.84.24,0,.32-.28.36-.53.15-.92,1.16-.93,1.55-1.59.5.44.68.18.76-.32,0-.1.11-.11.2,0,.52.56.59.12.69-.28s.23-.67.64-.18c.15.18.25,0,.26-.13,0-.42.27-.45.62-.44a5,5,0,0,0,2.61-1.06.82.82,0,0,1,.73-.18c.29,0,.41.59.6.42a2.35,2.35,0,0,1,.65-.42c.44-.19,1-.27,1.28-.62s1,.29,1.21-.42c.42.32.51-.41.87-.28.31-.66.81-.24,1.23-.16.13,0,.06.47.31.25.06-.05,0-.29,0-.43s0-.19.16-.27.83.4.84-.4c0-.17.12-.18.16,0,.23.83.68.42,1.08.41.14,0,.28.2.47.15s.73.2.44-.54c0-.06.22-.13.33,0,1,.8,1,.83,2.28.55a1.57,1.57,0,0,1,.67.1,1.26,1.26,0,0,1,1.15-.39,6.22,6.22,0,0,0,1.16.2c.27,0,.27-.49.45-.44s0,.47.27.58.61.54,1-.08c.09-.15.39-.53.62-.26s-.08.41.31.37.11.63.32.86c.24-.34.43-.43.55,0s.39.58.79.34.54-.14.44.34c.39-.37.57,0,.83.15s.13-.21.12-.31a.77.77,0,0,1,.2-.56c.22-.27.42-.08.58.06s0,.27-.15.37a.82.82,0,0,0-.31,1c.13.32-.48.39-.22.66a.58.58,0,0,0,.71.07c.5-.21.19.24.26.4a1.38,1.38,0,0,0,1.11.79,1.28,1.28,0,0,1,1.05.72c.18.45.68.4,1.17.33.31,0,.52,0,.53.41s-.42.49-.26.71.57-.38.52.17c0,.19.17.37.31.51s.21.42.47.54a2,2,0,0,1,.78.66,1.34,1.34,0,0,1,.2.88c-.13.52.84.05.5.62a1.75,1.75,0,0,0-.09.88.41.41,0,0,0,.24.35c.22.12.29.29-.07.41-.17.06-.19.14-.28.24s.5.44,0,.52h-.12c-.34,0-.1.42-.27.67a1.73,1.73,0,0,0-.24,1.71.89.89,0,0,1-.4.9,3.37,3.37,0,0,0-1.37,1.92c-.75.1-.57,1-1.2,1.29s-.89.81-1.42,1a.3.3,0,0,0-.21.4c0,.1.05.23-.15.25a3.32,3.32,0,0,0-2,.77c-.3.34-.46.9-1.09.69-.11,0-.29.25-.36.45-.33,1-1.22,1.2-2.07,1.29a5.68,5.68,0,0,0-2.45.6.9.9,0,0,1-.7.06c-.56-.26-1.14.1-1.58-.07-.67-.32-1,.16-1.57.34a.76.76,0,0,1-.62,0,2.28,2.28,0,0,0-1-.33,1.28,1.28,0,0,1-.93-.64c-.14-.26-.46-.14-.69-.24s-.65.32-.83.11-.49-.14-.72-.23c-.4-.19-.9.28-1.35-.14s-.9,0-1.37.11a.52.52,0,0,1-.72-.41c-.17-.83-.73-1-1.33-1.11-.42-.1-1,.23-1.23-.43l-.41.33c0-.14,0-.35,0-.42s-.23.2-.39.2.07-.4-.29-.53c-.67-.24-1.5-.21-2-.93a1.16,1.16,0,0,0-1-.2,2.23,2.23,0,0,1-1.64-.24c-.4-.26-.77-.63-1.35-.51-.08,0-.22,0-.23-.09,0-.48.08-1.09-.66-.85-.51.16-.35-.74-.95-.47-.25.11-.37-.31-.49-.57a2,2,0,0,0-1.85-1.31c-.31,0-.48-.33-.69-.41-.63-.25-.69-1.07-1.45-1.24-.53-.11-.87-.79-1.27-1.24s-.56-.29-1-.05a10.61,10.61,0,0,0-2.59,2c-.24.26-.68.52-.56.85.17.5,0,1.12.59,1.46S253.34,427.91,253.89,428.33Z"/><path class="cls-4" d="M283.81,197.54c-2.23-4.83-3.05-10.37-1.24-15.24a19.76,19.76,0,0,1,5-7.46,34.75,34.75,0,0,1,7.77-5.45c.68-.39,1.38-.74,2.1-1.07s1.41-.71,2.15-1l2.21-.91.38-.15.17-.06.09,0v.09c0,.12,0,.24,0,.36l-.06,1.33q-.07,1.17-.21,2.34a49.35,49.35,0,0,1-5.52,17.32c-.7,1.36-2.55,2-3,3.34a6.53,6.53,0,0,1-2.23,2.87c-.45.41-.95.76-1.38,1.19a8.34,8.34,0,0,0-1.19,1.44,2.88,2.88,0,0,1-.83.84c-.34.22-.72.4-1.08.6a3.41,3.41,0,0,0-1.75,1.8c-.38,1.1-1.57.46-2.14,1.18a1.34,1.34,0,0,0-.26,1.37c.27.62.6.16.91,0,3.33-1.51,6.24-3.71,9.33-5.7a29.07,29.07,0,0,0,5.56-5.36,26,26,0,0,0,5.86-12c.46-2.21,1-4.38,1.5-6.6.24-1.11.47-2.22.66-3.35a25.58,25.58,0,0,0,.42-4.08c.05-1.12.45-2.51.67-4.05a3.16,3.16,0,0,0-.11-1.53l-.19-.51s0-.09,0-.11l-.17.08-.3.11a15,15,0,0,0-3.26,1.86,4.4,4.4,0,0,1-1.39.66,3.38,3.38,0,0,1-1.69-.14,1.7,1.7,0,0,0-.62,0,2.38,2.38,0,0,0-.47.07,4.48,4.48,0,0,0-.93.4,5.42,5.42,0,0,1-2,.79,3.17,3.17,0,0,0-2.28,1.49,7.61,7.61,0,0,1-1.71,2.07,17.89,17.89,0,0,1-3.1,1.41c-.91.34-1.49,1.2-2.44,1.54a5.59,5.59,0,0,0-2.83,1.85c-.53.92-2.39,1.06-1.71,3a1.18,1.18,0,0,1-.4,1.21,6.24,6.24,0,0,1-1.21,1,4.36,4.36,0,0,0-1.21,1.08,1.55,1.55,0,0,0-.14,1.62,1.74,1.74,0,0,1-.25,2c-.38.51-1,.95-1.34,1.46-1.19,1.78-.74,3.68,0,5.4.32.74-.87,1.34-.7,2.32a27.4,27.4,0,0,0,3,9.21c.58,1,0,2.49,1.35,3.05.41.17.8.77,1.41.12.49-.49,1.15-.91,1.14-1.63C284.16,199.77,283.69,198.78,283.81,197.54Z"/><path class="cls-2" d="M268.67,228.38c2.15,4.86,2.88,10.42,1,15.26A19.76,19.76,0,0,1,264.5,251a34.75,34.75,0,0,1-7.86,5.32c-.68.38-1.4.71-2.12,1s-1.42.68-2.17,1l-2.22.87-.38.14-.17.06-.09,0v-.09c0-.12,0-.24,0-.36l.08-1.33q.09-1.17.25-2.34a49.35,49.35,0,0,1,5.8-17.23c.72-1.35,2.58-1.93,3-3.29a6.53,6.53,0,0,1,2.28-2.84c.45-.41,1-.75,1.4-1.17a8.33,8.33,0,0,0,1.22-1.42,2.88,2.88,0,0,1,.85-.83c.35-.21.73-.39,1.09-.59a3.41,3.41,0,0,0,1.78-1.77c.4-1.09,1.58-.43,2.16-1.15a1.34,1.34,0,0,0,.29-1.37c-.26-.63-.59-.17-.91,0-3.35,1.46-6.3,3.61-9.43,5.55a29.07,29.07,0,0,0-5.64,5.26,26,26,0,0,0-6.06,11.95c-.5,2.2-1.08,4.36-1.61,6.57-.26,1.1-.51,2.22-.71,3.34a25.59,25.59,0,0,0-.49,4.07c-.07,1.12-.49,2.51-.74,4a3.16,3.16,0,0,0,.08,1.53l.18.51s0,.09,0,.11l.17-.07.3-.11a15,15,0,0,0,3.29-1.81,4.4,4.4,0,0,1,1.4-.64,3.38,3.38,0,0,1,1.69.17,1.7,1.7,0,0,0,.62,0,2.38,2.38,0,0,0,.47-.06,4.48,4.48,0,0,0,.94-.39,5.42,5.42,0,0,1,2-.76,3.17,3.17,0,0,0,2.31-1.45,7.61,7.61,0,0,1,1.75-2,17.89,17.89,0,0,1,3.12-1.36c.92-.33,1.51-1.17,2.46-1.5a5.59,5.59,0,0,0,2.86-1.81c.55-.92,2.41-1,1.76-3a1.18,1.18,0,0,1,.42-1.2,6.24,6.24,0,0,1,1.23-1,4.36,4.36,0,0,0,1.22-1.06,1.55,1.55,0,0,0,.17-1.62,1.74,1.74,0,0,1,.28-2c.39-.51,1-.93,1.36-1.44,1.22-1.76.8-3.67.12-5.4-.31-.74.9-1.32.74-2.31a27.4,27.4,0,0,0-2.82-9.26c-.56-1,0-2.49-1.3-3.08-.4-.17-.79-.78-1.41-.15-.49.48-1.17.9-1.16,1.62C268.36,226.15,268.81,227.15,268.67,228.38Z"/><path class="cls-2" d="M320.41,223.21c2.23,4.83,3.05,10.37,1.24,15.24a19.76,19.76,0,0,1-5,7.46,34.75,34.75,0,0,1-7.77,5.45c-.68.39-1.38.74-2.1,1.07s-1.41.71-2.15,1l-2.21.91-.38.15-.17.06-.09,0v-.09c0-.12,0-.24,0-.36l.06-1.33q.07-1.17.21-2.34a49.35,49.35,0,0,1,5.52-17.32c.7-1.36,2.55-2,3-3.34a6.53,6.53,0,0,1,2.23-2.87c.45-.41.95-.76,1.38-1.19a8.34,8.34,0,0,0,1.19-1.44,2.88,2.88,0,0,1,.83-.84c.34-.22.72-.4,1.08-.6a3.41,3.41,0,0,0,1.75-1.8c.38-1.1,1.57-.46,2.14-1.18a1.34,1.34,0,0,0,.26-1.37c-.27-.62-.6-.16-.91,0-3.33,1.51-6.24,3.71-9.33,5.7a29.07,29.07,0,0,0-5.56,5.36,26,26,0,0,0-5.86,12c-.46,2.21-1,4.38-1.5,6.6-.24,1.11-.47,2.22-.66,3.35a25.58,25.58,0,0,0-.42,4.08c-.05,1.12-.45,2.51-.67,4.05a3.16,3.16,0,0,0,.11,1.53l.19.51s0,.09,0,.11l.17-.08.3-.11a15,15,0,0,0,3.26-1.86,4.4,4.4,0,0,1,1.39-.66,3.38,3.38,0,0,1,1.69.14,1.7,1.7,0,0,0,.62,0,2.38,2.38,0,0,0,.47-.07,4.48,4.48,0,0,0,.93-.4,5.41,5.41,0,0,1,2-.79,3.17,3.17,0,0,0,2.28-1.49,7.61,7.61,0,0,1,1.71-2.07,17.89,17.89,0,0,1,3.1-1.41c.91-.34,1.49-1.2,2.44-1.54a5.59,5.59,0,0,0,2.83-1.85c.53-.92,2.39-1.06,1.71-3a1.18,1.18,0,0,1,.4-1.21,6.24,6.24,0,0,1,1.21-1,4.36,4.36,0,0,0,1.21-1.08,1.55,1.55,0,0,0,.14-1.62,1.74,1.74,0,0,1,.25-2c.38-.51,1-.95,1.34-1.46,1.19-1.78.74-3.68,0-5.4-.32-.74.87-1.34.7-2.32a27.4,27.4,0,0,0-3-9.21c-.58-1,0-2.49-1.35-3.05-.41-.17-.8-.77-1.41-.12-.49.49-1.15.91-1.14,1.63C320.06,221,320.53,222,320.41,223.21Z"/><path class="cls-2" d="M294.31,344.69c2.12-4.88,5.7-9.18,10.54-11.07a19.76,19.76,0,0,1,8.92-1.2,34.75,34.75,0,0,1,9.23,2.17c.74.24,1.47.54,2.2.86s1.46.58,2.17.94l2.15,1,.36.18.16.09.08,0-.06.07-.26.25-1,.84q-.92.73-1.89,1.4a49.35,49.35,0,0,1-16.6,7.42c-1.48.39-3.17-.58-4.47,0a6.53,6.53,0,0,1-3.63.25c-.6-.06-1.2-.2-1.81-.24a8.34,8.34,0,0,0-1.87.07,2.88,2.88,0,0,1-1.18-.06c-.39-.11-.78-.27-1.17-.41a3.41,3.41,0,0,0-2.51-.11c-1.08.45-1.39-.87-2.31-.81a1.34,1.34,0,0,0-1.2.72c-.28.62.28.55.6.69,3.34,1.48,6.93,2.19,10.47,3.17a29.07,29.07,0,0,0,7.69.58,26,26,0,0,0,12.89-3.65c2-1.12,3.94-2.16,5.92-3.27,1-.56,2-1.13,2.94-1.74a25.59,25.59,0,0,0,3.32-2.4c.87-.71,2.17-1.34,3.47-2.2a3.16,3.16,0,0,0,1.07-1.1l.25-.48s.05-.08.05-.11l-.17-.08-.29-.15a15,15,0,0,0-3.56-1.19,4.4,4.4,0,0,1-1.41-.59,3.38,3.38,0,0,1-1-1.36,1.7,1.7,0,0,0-.39-.48,2.37,2.37,0,0,0-.36-.31,4.48,4.48,0,0,0-.92-.43,5.42,5.42,0,0,1-1.9-.94,3.17,3.17,0,0,0-2.63-.71,7.61,7.61,0,0,1-2.69.1,17.89,17.89,0,0,1-3.11-1.37c-.86-.45-1.89-.32-2.77-.8a5.59,5.59,0,0,0-3.26-.87c-1,.22-2.38-1.08-3.37.72a1.18,1.18,0,0,1-1.17.51,6.24,6.24,0,0,1-1.58-.21,4.36,4.36,0,0,0-1.61-.18,1.55,1.55,0,0,0-1.3,1,1.74,1.74,0,0,1-1.64,1.13c-.64.06-1.39-.14-2,0-2.12.3-3.24,1.9-4.05,3.57-.34.73-1.58.24-2.19,1a27.4,27.4,0,0,0-4.9,8.35c-.34,1.08-1.84,1.68-1.38,3,.15.41,0,1.11.85,1.14.69,0,1.45.25,2-.24C292.88,346.43,293.3,345.43,294.31,344.69Z"/><path class="cls-2" d="M293.86,299c-.58-5.29.39-10.8,3.66-14.84a19.76,19.76,0,0,1,7.15-5.47,34.75,34.75,0,0,1,9.09-2.7c.76-.16,1.55-.26,2.33-.34s1.56-.22,2.36-.26l2.38-.16.41,0h.28l0,.09c0,.12-.06.23-.1.35l-.48,1.24q-.44,1.09-.94,2.15a49.35,49.35,0,0,1-10.73,14.67c-1.09,1.07-3,1.07-3.87,2.23a6.53,6.53,0,0,1-3,2c-.55.25-1.14.42-1.69.69a8.34,8.34,0,0,0-1.59,1,2.88,2.88,0,0,1-1.06.54c-.39.1-.81.15-1.22.23a3.41,3.41,0,0,0-2.23,1.15c-.71.92-1.63-.07-2.4.44a1.34,1.34,0,0,0-.69,1.22c.06.68.52.34.86.3,3.64-.37,7.1-1.54,10.66-2.44a29.07,29.07,0,0,0,7-3.31,26,26,0,0,0,9.38-9.56c1.14-1.95,2.35-3.83,3.52-5.78.58-1,1.15-2,1.69-3a25.59,25.59,0,0,0,1.69-3.73c.4-1,1.22-2.24,1.93-3.63a3.16,3.16,0,0,0,.38-1.48l0-.54s0-.09,0-.12l-.18,0H328a15,15,0,0,0-3.68.73,4.4,4.4,0,0,1-1.52.18,3.38,3.38,0,0,1-1.56-.67,1.7,1.7,0,0,0-.58-.22,2.37,2.37,0,0,0-.47-.09,4.48,4.48,0,0,0-1,.09,5.42,5.42,0,0,1-2.12.13,3.17,3.17,0,0,0-2.64.69,7.61,7.61,0,0,1-2.28,1.42,17.89,17.89,0,0,1-3.38.35c-1,0-1.8.66-2.8.68a5.59,5.59,0,0,0-3.27.86c-.8.71-2.6.24-2.57,2.3,0,.46-.32.78-.76,1a6.24,6.24,0,0,1-1.48.61,4.36,4.36,0,0,0-1.49.64,1.55,1.55,0,0,0-.65,1.49,1.74,1.74,0,0,1-.86,1.79c-.52.37-1.28.57-1.74,1-1.69,1.31-1.87,3.26-1.75,5.11.07.8-1.25,1-1.4,2a27.4,27.4,0,0,0-.11,9.68c.24,1.11-.76,2.37.31,3.32.33.29.51,1,1.3.57.62-.31,1.38-.5,1.6-1.19C293.48,301.26,293.35,300.18,293.86,299Z"/><path class="cls-4" d="M336.33,315.54c2.29-4.8,6-9,10.93-10.69a19.76,19.76,0,0,1,9-.89,34.75,34.75,0,0,1,9.15,2.49c.73.27,1.45.59,2.16.94s1.44.63,2.14,1l2.11,1.12.36.19.16.09.08,0-.06.06-.27.24L371,311q-.95.69-1.93,1.34a49.35,49.35,0,0,1-16.85,6.82c-1.49.34-3.15-.7-4.46-.14a6.53,6.53,0,0,1-3.64.12c-.6-.08-1.19-.24-1.8-.3a8.33,8.33,0,0,0-1.87,0,2.88,2.88,0,0,1-1.18-.1c-.39-.13-.77-.3-1.16-.45a3.41,3.41,0,0,0-2.5-.2c-1.09.41-1.35-.92-2.28-.89a1.34,1.34,0,0,0-1.22.67c-.31.61.26.56.58.71,3.29,1.6,6.85,2.43,10.35,3.54a29.07,29.07,0,0,0,7.67.85,26,26,0,0,0,13-3.19c2-1.05,4-2,6-3.06,1-.52,2-1.06,3-1.63a25.59,25.59,0,0,0,3.4-2.28c.89-.67,2.22-1.26,3.55-2.07a3.16,3.16,0,0,0,1.11-1.06l.27-.47s.06-.08.06-.11l-.17-.08-.28-.16a15,15,0,0,0-3.51-1.32,4.4,4.4,0,0,1-1.39-.64,3.38,3.38,0,0,1-1-1.39,1.7,1.7,0,0,0-.37-.49,2.37,2.37,0,0,0-.35-.32,4.48,4.48,0,0,0-.91-.46,5.41,5.41,0,0,1-1.87-1,3.17,3.17,0,0,0-2.6-.8,7.61,7.61,0,0,1-2.69,0,17.89,17.89,0,0,1-3.06-1.48c-.85-.48-1.87-.38-2.74-.89a5.59,5.59,0,0,0-3.23-1c-1.05.18-2.34-1.16-3.39.6a1.18,1.18,0,0,1-1.19.46,6.24,6.24,0,0,1-1.58-.26,4.36,4.36,0,0,0-1.6-.24,1.55,1.55,0,0,0-1.34.93,1.74,1.74,0,0,1-1.68,1.07c-.64,0-1.39-.19-2-.1-2.13.22-3.31,1.78-4.18,3.43-.36.71-1.59.18-2.23.94a27.4,27.4,0,0,0-5.19,8.17c-.38,1.07-1.89,1.61-1.49,3,.13.42-.08,1.11.81,1.17.69.06,1.44.3,2-.17C334.84,317.23,335.3,316.24,336.33,315.54Z"/><path class="cls-2" d="M240,217.63c-4.58-2.71-8.4-6.8-9.68-11.83a19.76,19.76,0,0,1-.09-9,34.75,34.75,0,0,1,3.3-8.89c.33-.71.72-1.39,1.12-2.07s.76-1.38,1.21-2l1.3-2c.11-.18.15-.22.22-.34l.1-.15.05-.08.06.07.22.29.71,1.13q.61,1,1.16,2a49.35,49.35,0,0,1,5.3,17.39c.2,1.52-1,3.07-.54,4.43a6.53,6.53,0,0,1-.2,3.63c-.13.59-.35,1.16-.46,1.76a8.34,8.34,0,0,0-.16,1.86,2.88,2.88,0,0,1-.21,1.17c-.16.37-.36.74-.55,1.11a3.41,3.41,0,0,0-.42,2.47c.31,1.12-1,1.27-1.09,2.19a1.34,1.34,0,0,0,.56,1.28c.58.36.58-.21.76-.51,1.88-3.13,3-6.6,4.44-10a29.07,29.07,0,0,0,1.53-7.56,26,26,0,0,0-2-13.24c-.87-2.08-1.66-4.18-2.51-6.28-.43-1-.87-2.1-1.36-3.13a25.59,25.59,0,0,0-2-3.59c-.59-1-1.06-2.32-1.75-3.72a3.16,3.16,0,0,0-1-1.2l-.44-.31s-.07-.06-.1-.07l-.1.16a3,3,0,0,1-.18.26,15,15,0,0,0-1.63,3.38,4.4,4.4,0,0,1-.77,1.33,3.38,3.38,0,0,1-1.47.84,1.7,1.7,0,0,0-.53.33,2.37,2.37,0,0,0-.35.32,4.48,4.48,0,0,0-.54.86,5.42,5.42,0,0,1-1.17,1.77,3.17,3.17,0,0,0-1,2.52,7.61,7.61,0,0,1-.24,2.68,17.89,17.89,0,0,1-1.75,2.92c-.55.8-.55,1.83-1.13,2.65a5.59,5.59,0,0,0-1.27,3.13c.09,1.06-1.37,2.23.29,3.43a1.18,1.18,0,0,1,.36,1.22,6.24,6.24,0,0,1-.4,1.55,4.36,4.36,0,0,0-.38,1.57,1.55,1.55,0,0,0,.8,1.41,1.74,1.74,0,0,1,.92,1.77c0,.64-.31,1.37-.27,2,0,2.14,1.48,3.45,3,4.47.68.42,0,1.6.74,2.3a27.4,27.4,0,0,0,7.68,5.89c1,.47,1.44,2,2.85,1.75.43-.09,1.1.18,1.23-.7.12-.68.43-1.41,0-2C241.56,219.27,240.61,218.72,240,217.63Z"/><path class="cls-2" d="M343.07,259.89c1.64-5.06,4.79-9.69,9.42-12a19.76,19.76,0,0,1,8.76-2.06,34.75,34.75,0,0,1,9.4,1.27c.76.17,1.52.4,2.27.64s1.51.44,2.26.73l2.24.83.38.15.17.07.09,0-.05.07-.24.27-.95.94q-.85.81-1.74,1.58a49.35,49.35,0,0,1-15.8,9c-1.43.53-3.21-.27-4.44.45a6.53,6.53,0,0,1-3.59.6c-.61,0-1.21-.08-1.82-.06a8.33,8.33,0,0,0-1.85.25,2.88,2.88,0,0,1-1.18.06c-.4-.07-.8-.19-1.2-.29a3.41,3.41,0,0,0-2.51.13c-1,.55-1.46-.73-2.37-.58a1.34,1.34,0,0,0-1.12.83c-.22.64.33.52.66.63,3.47,1.15,7.11,1.5,10.72,2.14a29.07,29.07,0,0,0,7.71-.17,26,26,0,0,0,12.48-4.88c1.84-1.31,3.71-2.54,5.58-3.83.93-.65,1.86-1.31,2.76-2a25.59,25.59,0,0,0,3.07-2.71c.8-.79,2-1.54,3.24-2.52a3.16,3.16,0,0,0,1-1.2l.21-.5s0-.08,0-.12l-.17-.06-.3-.12a15,15,0,0,0-3.66-.84,4.4,4.4,0,0,1-1.47-.46,3.38,3.38,0,0,1-1.14-1.25,1.7,1.7,0,0,0-.44-.44,2.37,2.37,0,0,0-.39-.27,4.48,4.48,0,0,0-1-.34,5.42,5.42,0,0,1-2-.75,3.17,3.17,0,0,0-2.69-.45,7.61,7.61,0,0,1-2.66.36,17.89,17.89,0,0,1-3.23-1.06c-.9-.36-1.91-.13-2.83-.52a5.59,5.59,0,0,0-3.33-.55c-1,.32-2.47-.85-3.29,1a1.18,1.18,0,0,1-1.11.62,6.24,6.24,0,0,1-1.6-.05,4.36,4.36,0,0,0-1.62,0,1.55,1.55,0,0,0-1.2,1.1,1.74,1.74,0,0,1-1.52,1.28c-.63.12-1.4,0-2,.17-2.08.5-3,2.2-3.69,3.95-.27.76-1.55.39-2.09,1.23a27.4,27.4,0,0,0-4.06,8.79c-.23,1.11-1.66,1.85-1.08,3.16.19.4.06,1.11,1,1,.69,0,1.47.11,1.94-.43C341.82,261.76,342.14,260.72,343.07,259.89Z"/><path class="cls-2" d="M192.44,199.92a29.56,29.56,0,0,0,2.11-9.6,24.27,24.27,0,0,0-1.58-9.85,26.41,26.41,0,0,0-6.32-9.37,38.83,38.83,0,0,0-8.88-6.36c-.76-.44-1.54-.81-2.33-1.17s-1.56-.76-2.36-1.07l-2.39-1c-1.35-.53-2.79-.89-4.18-1.35l-2.1-.65-1-.32-.11,1.07c-.13,1.41-.29,2.82-.31,4.35,0,.76,0,1.51,0,2.3l.05,1.32q.07,1.31.19,2.61a47.76,47.76,0,0,0,2,10.07,33.63,33.63,0,0,0,4.6,9.27c1,1.38,1.21,3.54,2.64,4.45a15.09,15.09,0,0,1,3.12,2.88,11.93,11.93,0,0,0,1.53,1.45,5.61,5.61,0,0,0,1.86,1,3.91,3.91,0,0,1,1.15.67c.37.26.72.57,1.09.86a3.29,3.29,0,0,0,2.61.89c1.15-.15,1.36,1.12,2.35,1.2a1.23,1.23,0,0,0,1.25-.61c.3-.61-.25-.58-.56-.75-3.19-1.68-6.42-3.6-8.62-6.47a48.09,48.09,0,0,1-4.3-6,94.47,94.47,0,0,1-5.22-11.42,21.55,21.55,0,0,1-1.26-6.25c-.07-1.07-.08-2.14-.06-3.2a14.89,14.89,0,0,1,.17-2.5c0-.24.54-.15.92.22.17.16.12.14,0,0a1.23,1.23,0,0,1-.18-.3s-.26-.64-.14-.93.58-.23.56.67a.84.84,0,0,0,0,.28.86.86,0,0,0,.3.24,3.81,3.81,0,0,0,.88.33,3.8,3.8,0,0,1,1.79.77,2.7,2.7,0,0,0,2.39.71,5.31,5.31,0,0,1,2.51.19,8.27,8.27,0,0,1,2.47,2,14.83,14.83,0,0,1,2,1.66c.59.84,1,1.78,1.94,2.22s.7,2,2.54,1.58a1,1,0,0,1,1,.54,4.82,4.82,0,0,1,.46,1.37,8.73,8.73,0,0,0,.29,1.37,1.5,1.5,0,0,0,1.17.83,1.32,1.32,0,0,1,1.19,1.36,15.19,15.19,0,0,1-.27,1.78c-.14,1.78.62,3,1.49,4.57.36.7-.83,1.22-.78,2.05.16,2.91-.71,5.81-1.55,8.67-.32,1.07-1.8,1.39-1.55,2.67.07.42-.26.94.54,1.28.64.25,1.32.68,2,.21C190.79,202.05,191.37,200.91,192.44,199.92Z"/><path class="cls-4" d="M196.32,226.1a29.56,29.56,0,0,0-1.95,9.63,24.27,24.27,0,0,0,1.74,9.82,26.41,26.41,0,0,0,6.47,9.26,38.83,38.83,0,0,0,9,6.21c.77.42,1.55.79,2.35,1.13s1.57.74,2.38,1l2.41.92c1.36.51,2.8.85,4.2,1.28L225,266l1.05.31.09-1.07c.11-1.42.25-2.83.24-4.35,0-.76,0-1.51,0-2.3l-.07-1.32q-.09-1.3-.24-2.6a47.76,47.76,0,0,0-2.19-10,33.63,33.63,0,0,0-4.75-9.19c-1-1.36-1.27-3.52-2.72-4.4a15.09,15.09,0,0,1-3.17-2.83,11.93,11.93,0,0,0-1.55-1.43,5.61,5.61,0,0,0-1.88-1,3.91,3.91,0,0,1-1.16-.65c-.37-.26-.73-.56-1.1-.84a3.29,3.29,0,0,0-2.62-.85c-1.15.17-1.37-1.1-2.37-1.16a1.23,1.23,0,0,0-1.24.63c-.29.61.26.58.57.74,3.22,1.63,6.48,3.5,8.73,6.32a48.09,48.09,0,0,1,4.4,5.89,94.46,94.46,0,0,1,5.41,11.33,21.55,21.55,0,0,1,1.36,6.23c.08,1.07.12,2.14.11,3.2a14.89,14.89,0,0,1-.13,2.5c0,.24-.54.16-.92-.21-.17-.16-.13-.13,0,0a1.23,1.23,0,0,1,.18.29s.27.64.15.93-.57.24-.57-.66a.84.84,0,0,0,0-.28.86.86,0,0,0-.3-.24,3.81,3.81,0,0,0-.88-.32,3.8,3.8,0,0,1-1.8-.75,2.7,2.7,0,0,0-2.4-.68,5.31,5.31,0,0,1-2.51-.15,8.27,8.27,0,0,1-2.5-1.93,14.83,14.83,0,0,1-2-1.62c-.6-.83-1-1.77-2-2.19s-.73-2-2.57-1.54a1,1,0,0,1-1-.53,4.82,4.82,0,0,1-.48-1.36,8.72,8.72,0,0,0-.31-1.37,1.5,1.5,0,0,0-1.18-.81,1.32,1.32,0,0,1-1.21-1.34,15.19,15.19,0,0,1,.24-1.78c.11-1.79-.67-3-1.56-4.54-.37-.69.81-1.24.75-2.07-.21-2.91.62-5.82,1.41-8.69.3-1.07,1.77-1.42,1.51-2.7-.08-.42.25-.94-.56-1.27-.64-.24-1.33-.66-2-.18C197.93,223.94,197.36,225.09,196.32,226.1Z"/><path class="cls-2" d="M144.62,220.83a29.56,29.56,0,0,0-2.11,9.6,24.27,24.27,0,0,0,1.58,9.85,26.41,26.41,0,0,0,6.32,9.37,38.83,38.83,0,0,0,8.88,6.36c.76.44,1.54.81,2.33,1.17s1.56.76,2.36,1.07l2.39,1c1.35.53,2.79.89,4.18,1.35l2.1.65,1,.32.11-1.07c.13-1.41.29-2.82.31-4.35,0-.76,0-1.51,0-2.3l-.05-1.32q-.07-1.31-.19-2.61a47.76,47.76,0,0,0-2-10.07,33.63,33.63,0,0,0-4.6-9.27c-1-1.38-1.21-3.54-2.64-4.45a15.09,15.09,0,0,1-3.12-2.88,11.93,11.93,0,0,0-1.53-1.45,5.61,5.61,0,0,0-1.86-1,3.91,3.91,0,0,1-1.15-.67c-.37-.26-.72-.57-1.09-.86a3.29,3.29,0,0,0-2.61-.89c-1.15.15-1.36-1.12-2.35-1.2a1.23,1.23,0,0,0-1.25.61c-.3.61.25.58.56.75,3.19,1.68,6.42,3.6,8.62,6.47a48.09,48.09,0,0,1,4.3,6,94.47,94.47,0,0,1,5.22,11.42,21.55,21.55,0,0,1,1.26,6.25c.07,1.07.08,2.14.06,3.2a14.89,14.89,0,0,1-.17,2.5c0,.24-.54.15-.92-.22-.17-.16-.12-.14,0,0a1.23,1.23,0,0,1,.18.3s.26.64.14.93-.58.23-.56-.67a.84.84,0,0,0,0-.28.86.86,0,0,0-.3-.24,3.81,3.81,0,0,0-.88-.33,3.8,3.8,0,0,1-1.79-.77,2.7,2.7,0,0,0-2.39-.71,5.31,5.31,0,0,1-2.51-.19,8.27,8.27,0,0,1-2.47-2,14.84,14.84,0,0,1-2-1.66c-.59-.84-1-1.78-1.94-2.22s-.7-2-2.54-1.58a1,1,0,0,1-1-.54,4.83,4.83,0,0,1-.46-1.37,8.73,8.73,0,0,0-.29-1.37,1.5,1.5,0,0,0-1.17-.83,1.32,1.32,0,0,1-1.19-1.36,15.19,15.19,0,0,1,.27-1.78c.14-1.78-.62-3-1.49-4.57-.36-.7.83-1.22.78-2.05-.16-2.91.71-5.81,1.55-8.67.32-1.07,1.8-1.39,1.55-2.67-.07-.42.26-.94-.54-1.28-.64-.25-1.32-.68-2-.21C146.27,218.7,145.68,219.84,144.62,220.83Z"/><path class="cls-2" d="M242.48,155.9a29.56,29.56,0,0,0,6.51-7.37,24.26,24.26,0,0,0,3.41-9.38,26.41,26.41,0,0,0-1-11.26,38.83,38.83,0,0,0-4.67-9.87c-.45-.75-.95-1.46-1.46-2.16s-1-1.43-1.55-2.08l-1.63-2c-.92-1.12-2-2.14-3-3.21L237.6,107l-.76-.79-.62.88c-.8,1.17-1.63,2.33-2.38,3.65-.38.65-.75,1.3-1.11,2l-.6,1.18q-.57,1.17-1.1,2.37a47.76,47.76,0,0,0-3.12,9.79,33.63,33.63,0,0,0-.48,10.33c.16,1.67-.66,3.68.15,5.17a15.09,15.09,0,0,1,1.33,4,11.93,11.93,0,0,0,.63,2,5.61,5.61,0,0,0,1.12,1.81,3.91,3.91,0,0,1,.68,1.14c.19.41.35.85.54,1.28a3.29,3.29,0,0,0,1.84,2c1.08.43.64,1.64,1.47,2.19a1.23,1.23,0,0,0,1.39.08c.56-.39.07-.63-.12-.93-2-3-3.86-6.27-4.39-9.84a48.09,48.09,0,0,1-.87-7.3,94.47,94.47,0,0,1,1-12.52,21.55,21.55,0,0,1,1.93-6.07c.46-1,1-1.91,1.51-2.83a14.9,14.9,0,0,1,1.36-2.1c.16-.19.55.13.7.64.07.22,0,.18,0,0a1.23,1.23,0,0,1,0-.35s.09-.69.33-.88.62.08.16.86a.84.84,0,0,0-.12.25.86.86,0,0,0,.14.36,3.81,3.81,0,0,0,.61.71,3.8,3.8,0,0,1,1.19,1.55,2.7,2.7,0,0,0,1.74,1.79,5.31,5.31,0,0,1,2.1,1.39,8.27,8.27,0,0,1,1.2,2.93,14.83,14.83,0,0,1,1,2.43,5.68,5.68,0,0,0,.61,2.89c.5.82-.36,2.09,1.45,2.62a1,1,0,0,1,.65,1,4.82,4.82,0,0,1-.26,1.42,8.72,8.72,0,0,0-.42,1.34,1.5,1.5,0,0,0,.61,1.29,1.32,1.32,0,0,1,.38,1.77,15.19,15.19,0,0,1-1.1,1.42c-1,1.49-.91,2.91-.92,4.72,0,.78-1.32.67-1.68,1.41-1.27,2.63-3.44,4.73-5.57,6.82-.8.78-2.24.34-2.66,1.58-.14.4-.68.69-.14,1.38.44.53.82,1.24,1.66,1.17C240,157,241.07,156.24,242.48,155.9Z"/><path class="cls-4" d="M181.85,342.09a29.56,29.56,0,0,0-5.76-8,24.26,24.26,0,0,0-8.4-5.39,26.41,26.41,0,0,0-11.2-1.52,38.83,38.83,0,0,0-10.66,2.39c-.83.28-1.63.61-2.42,1s-1.61.65-2.37,1.05l-2.31,1.15c-1.3.65-2.52,1.49-3.79,2.22l-1.88,1.13-.94.57.73.79c1,1,1.91,2.1,3,3.13.55.52,1.11,1,1.71,1.53l1,.84q1,.82,2.07,1.59a47.76,47.76,0,0,0,8.86,5.19,33.63,33.63,0,0,0,10,2.74c1.67.21,3.45,1.45,5.08,1a15.09,15.09,0,0,1,4.23-.41,11.93,11.93,0,0,0,2.1-.17,5.61,5.61,0,0,0,2-.7,3.91,3.91,0,0,1,1.26-.41c.44-.1.9-.16,1.36-.24a3.29,3.29,0,0,0,2.4-1.35c.65-1,1.74-.27,2.46-1a1.23,1.23,0,0,0,.38-1.34c-.25-.63-.6-.2-.93-.08-3.38,1.26-7,2.39-10.56,2.13a48.09,48.09,0,0,1-7.31-.76,94.46,94.46,0,0,1-12-3.71,21.55,21.55,0,0,1-5.5-3.22c-.84-.66-1.65-1.36-2.43-2.09a14.89,14.89,0,0,1-1.75-1.79c-.15-.2.25-.51.78-.54.23,0,.18,0,0,0a1.23,1.23,0,0,1-.34-.06s-.65-.24-.79-.51.21-.58.88,0a.84.84,0,0,0,.22.17.86.86,0,0,0,.38-.06,3.81,3.81,0,0,0,.83-.43,3.8,3.8,0,0,1,1.77-.82,2.7,2.7,0,0,0,2.12-1.31,5.31,5.31,0,0,1,1.81-1.74,8.27,8.27,0,0,1,3.12-.53,14.83,14.83,0,0,1,2.58-.4,5.68,5.68,0,0,0,3,0c.91-.3,2,.81,2.87-.84a1,1,0,0,1,1.1-.41,4.83,4.83,0,0,1,1.32.57,8.72,8.72,0,0,0,1.21.7,1.5,1.5,0,0,0,1.4-.31,1.32,1.32,0,0,1,1.81,0,15.19,15.19,0,0,1,1.15,1.38c1.24,1.29,2.64,1.53,4.4,1.93.76.2.36,1.43,1,2,2.28,1.82,3.86,4.4,5.43,6.93.58,1-.16,2.26,1,2.94.36.23.52.82,1.31.44.61-.31,1.39-.53,1.5-1.36C182.33,344.74,181.87,343.54,181.85,342.09Z"/><path class="cls-2" d="M182.86,299.52a29.56,29.56,0,0,0-1.05-9.77,24.27,24.27,0,0,0-4.62-8.84,26.41,26.41,0,0,0-9-6.87,38.83,38.83,0,0,0-10.44-3.21c-.86-.17-1.72-.28-2.58-.37s-1.72-.23-2.58-.26L150,270c-1.45-.08-2.93,0-4.39,0l-2.19.05-1.1,0,.24,1.05c.32,1.38.62,2.77,1.09,4.22.22.72.45,1.44.73,2.18l.47,1.24q.48,1.22,1,2.41a47.76,47.76,0,0,0,5.12,8.91,33.63,33.63,0,0,0,7.3,7.33c1.34,1,2.28,3,3.92,3.38a15.09,15.09,0,0,1,3.87,1.74,11.93,11.93,0,0,0,1.91.89,5.61,5.61,0,0,0,2.09.4,3.91,3.91,0,0,1,1.3.27c.43.13.86.31,1.3.47a3.29,3.29,0,0,0,2.75,0c1-.51,1.64.63,2.61.39a1.23,1.23,0,0,0,1-1c.09-.67-.42-.47-.77-.53-3.56-.58-7.23-1.38-10.23-3.39a48.09,48.09,0,0,1-6-4.29,94.47,94.47,0,0,1-8.58-9.17,21.55,21.55,0,0,1-3.18-5.53c-.4-1-.76-2-1.07-3a14.89,14.89,0,0,1-.64-2.42c0-.24.47-.32.94-.08.21.1.16.09,0,0s-.3-.23-.26-.22-.45-.53-.43-.84.47-.4.75.46a.84.84,0,0,0,.1.26.86.86,0,0,0,.36.14,3.81,3.81,0,0,0,.94,0,3.8,3.8,0,0,1,1.94.17,2.7,2.7,0,0,0,2.49-.08,5.31,5.31,0,0,1,2.44-.61,8.27,8.27,0,0,1,3,1.09,14.84,14.84,0,0,1,2.43.93,5.68,5.68,0,0,0,2.54,1.49c.94.19,1.3,1.67,2.91.69a1,1,0,0,1,1.16.18,4.82,4.82,0,0,1,.87,1.15,8.72,8.72,0,0,0,.71,1.21,1.5,1.5,0,0,0,1.37.42,1.32,1.32,0,0,1,1.56.91,15.19,15.19,0,0,1,.31,1.77c.44,1.74,1.54,2.63,2.86,3.86.56.55-.4,1.42-.09,2.2,1.08,2.71,1.17,5.73,1.28,8.71,0,1.11-1.26,1.89-.62,3,.2.38,0,1,.92,1,.69,0,1.47.23,2-.44C182,302.06,182.16,300.79,182.86,299.52Z"/><path class="cls-2" d="M335,208.39c-.58-5.29.39-10.8,3.66-14.84a19.76,19.76,0,0,1,7.15-5.47,34.75,34.75,0,0,1,9.09-2.7c.76-.16,1.55-.26,2.33-.34s1.56-.22,2.36-.26l2.38-.16.41,0h.28l0,.09c0,.12-.06.23-.1.35l-.48,1.24q-.44,1.09-.94,2.15a49.35,49.35,0,0,1-10.73,14.67c-1.09,1.07-3,1.07-3.87,2.23a6.53,6.53,0,0,1-3,2c-.55.25-1.14.42-1.69.69a8.33,8.33,0,0,0-1.59,1,2.88,2.88,0,0,1-1.06.54c-.39.1-.81.15-1.22.23a3.41,3.41,0,0,0-2.23,1.15c-.71.92-1.63-.07-2.4.44a1.34,1.34,0,0,0-.69,1.22c.06.68.52.34.86.3,3.64-.37,7.1-1.54,10.66-2.44a29.07,29.07,0,0,0,7-3.31,26,26,0,0,0,9.38-9.56c1.14-1.95,2.35-3.83,3.52-5.78.58-1,1.15-2,1.69-3a25.59,25.59,0,0,0,1.69-3.73c.4-1,1.22-2.24,1.93-3.63a3.16,3.16,0,0,0,.38-1.48l0-.54s0-.09,0-.12l-.18,0h-.32a15,15,0,0,0-3.68.73,4.4,4.4,0,0,1-1.52.18,3.38,3.38,0,0,1-1.56-.67,1.7,1.7,0,0,0-.58-.22,2.37,2.37,0,0,0-.47-.09,4.48,4.48,0,0,0-1,.09,5.42,5.42,0,0,1-2.12.13,3.17,3.17,0,0,0-2.64.69,7.61,7.61,0,0,1-2.28,1.42A17.89,17.89,0,0,1,350,182c-1,0-1.8.66-2.8.68a5.59,5.59,0,0,0-3.27.86c-.8.71-2.6.24-2.57,2.3,0,.46-.32.78-.76,1a6.24,6.24,0,0,1-1.48.61,4.36,4.36,0,0,0-1.49.64,1.55,1.55,0,0,0-.65,1.49,1.74,1.74,0,0,1-.86,1.79c-.52.37-1.28.57-1.74,1-1.69,1.31-1.87,3.26-1.75,5.11.07.8-1.25,1-1.4,2a27.4,27.4,0,0,0-.11,9.68c.24,1.11-.76,2.37.31,3.32.33.29.51,1,1.3.57.62-.31,1.38-.5,1.6-1.19C334.67,210.62,334.54,209.53,335,208.39Z"/><path class="cls-4" d="M142.65,208.87a29.56,29.56,0,0,0-1.05-9.77,24.26,24.26,0,0,0-4.62-8.84,26.41,26.41,0,0,0-9-6.87,38.83,38.83,0,0,0-10.44-3.21c-.86-.17-1.72-.28-2.58-.37s-1.72-.23-2.58-.26l-2.58-.15c-1.45-.08-2.93,0-4.39,0l-2.19.05-1.1,0,.24,1.05c.32,1.38.62,2.77,1.09,4.22.22.72.45,1.44.73,2.18l.47,1.24q.48,1.22,1,2.41a47.76,47.76,0,0,0,5.12,8.91,33.63,33.63,0,0,0,7.3,7.33c1.34,1,2.28,3,3.92,3.38A15.09,15.09,0,0,1,125.9,212a11.93,11.93,0,0,0,1.91.89,5.61,5.61,0,0,0,2.09.4,3.91,3.91,0,0,1,1.3.27c.43.13.86.31,1.3.47a3.29,3.29,0,0,0,2.75,0c1-.51,1.64.63,2.61.39a1.23,1.23,0,0,0,1-1c.09-.67-.42-.47-.77-.53-3.56-.58-7.23-1.38-10.23-3.39a48.1,48.1,0,0,1-6-4.29,94.47,94.47,0,0,1-8.58-9.17,21.55,21.55,0,0,1-3.18-5.53c-.4-1-.76-2-1.07-3a14.89,14.89,0,0,1-.64-2.42c0-.24.47-.32.94-.08.21.1.16.09,0,0s-.3-.23-.26-.22-.45-.53-.43-.84.47-.4.75.46a.84.84,0,0,0,.1.26.86.86,0,0,0,.36.14,3.81,3.81,0,0,0,.94,0,3.8,3.8,0,0,1,1.94.17,2.7,2.7,0,0,0,2.49-.08,5.31,5.31,0,0,1,2.44-.61,8.27,8.27,0,0,1,3,1.09,14.83,14.83,0,0,1,2.43.93,5.68,5.68,0,0,0,2.54,1.49c.94.19,1.3,1.67,2.91.69a1,1,0,0,1,1.16.18,4.83,4.83,0,0,1,.87,1.15,8.72,8.72,0,0,0,.71,1.21,1.5,1.5,0,0,0,1.37.42,1.32,1.32,0,0,1,1.56.91,15.2,15.2,0,0,1,.31,1.77c.44,1.74,1.54,2.63,2.86,3.86.56.55-.4,1.42-.09,2.2,1.08,2.71,1.17,5.73,1.28,8.71,0,1.11-1.26,1.89-.62,3,.2.38,0,1,.92,1,.69,0,1.47.23,2-.44C141.76,211.41,142,210.14,142.65,208.87Z"/><path class="cls-2" d="M139.72,312.75a29.56,29.56,0,0,0-6-7.76,24.27,24.27,0,0,0-8.58-5.08,26.41,26.41,0,0,0-11.24-1.12,38.83,38.83,0,0,0-10.56,2.77c-.82.3-1.61.66-2.39,1s-1.58.71-2.33,1.13L96.3,305c-1.27.7-2.47,1.57-3.71,2.35l-1.84,1.2-.92.6.75.77c1,1,2,2,3.15,3,.57.5,1.14,1,1.77,1.47l1,.8q1,.78,2.13,1.52a47.76,47.76,0,0,0,9,4.88,33.63,33.63,0,0,0,10.07,2.39c1.67.15,3.5,1.33,5.11.81a15.09,15.09,0,0,1,4.21-.56,11.93,11.93,0,0,0,2.09-.25,5.61,5.61,0,0,0,2-.77,3.91,3.91,0,0,1,1.25-.46c.44-.12.9-.19,1.35-.29a3.29,3.29,0,0,0,2.35-1.43c.62-1,1.73-.33,2.42-1a1.23,1.23,0,0,0,.34-1.35c-.28-.62-.61-.18-.93-.05-3.33,1.38-6.87,2.63-10.48,2.5a48.09,48.09,0,0,1-7.33-.5A94.47,94.47,0,0,1,108,317.26a21.55,21.55,0,0,1-5.61-3c-.86-.63-1.7-1.3-2.5-2a14.89,14.89,0,0,1-1.82-1.73c-.15-.19.23-.52.76-.56.23,0,.18,0,0,0a1.23,1.23,0,0,1-.34-.05s-.66-.21-.8-.49.19-.59.88,0a.84.84,0,0,0,.22.17.86.86,0,0,0,.38-.07A3.81,3.81,0,0,0,100,309a3.8,3.8,0,0,1,1.74-.88,2.7,2.7,0,0,0,2.08-1.38,5.31,5.31,0,0,1,1.75-1.8,8.27,8.27,0,0,1,3.1-.64,14.83,14.83,0,0,1,2.56-.49,5.68,5.68,0,0,0,2.95-.07c.9-.34,2,.74,2.84-.94a1,1,0,0,1,1.08-.45,4.83,4.83,0,0,1,1.34.52,8.72,8.72,0,0,0,1.24.66,1.5,1.5,0,0,0,1.39-.36,1.32,1.32,0,0,1,1.81,0,15.2,15.2,0,0,1,1.19,1.34c1.28,1.25,2.69,1.43,4.46,1.78.76.17.41,1.42,1.08,1.91,2.35,1.74,4,4.26,5.67,6.73.61.93-.08,2.27,1.06,2.9.37.21.55.8,1.33.4.6-.33,1.37-.58,1.45-1.41C140.3,315.38,139.8,314.2,139.72,312.75Z"/><path class="cls-2" d="M133.31,257.83a29.56,29.56,0,0,0-5-8.49,24.27,24.27,0,0,0-7.84-6.17,26.41,26.41,0,0,0-11-2.6,38.83,38.83,0,0,0-10.84,1.35c-.85.19-1.68.45-2.51.72s-1.66.5-2.46.82l-2.41.92c-1.35.52-2.66,1.23-4,1.84l-2,.94-1,.47.65.86c.86,1.13,1.7,2.27,2.72,3.41.5.57,1,1.12,1.56,1.69l.93.94q.94.91,1.91,1.78a47.76,47.76,0,0,0,8.32,6,33.63,33.63,0,0,0,9.66,3.69c1.64.37,3.29,1.78,5,1.48a15.09,15.09,0,0,1,4.25,0,11.93,11.93,0,0,0,2.11,0,5.61,5.61,0,0,0,2.07-.5,3.91,3.91,0,0,1,1.3-.29c.45-.06.91-.07,1.38-.11a3.29,3.29,0,0,0,2.52-1.11c.74-.89,1.76-.1,2.54-.72a1.23,1.23,0,0,0,.51-1.3c-.19-.65-.58-.26-.92-.17-3.49.93-7.16,1.7-10.72,1.09a48.1,48.1,0,0,1-7.2-1.46,94.47,94.47,0,0,1-11.58-4.85,21.55,21.55,0,0,1-5.16-3.74c-.77-.74-1.51-1.52-2.21-2.32a14.89,14.89,0,0,1-1.57-2c-.13-.21.3-.48.83-.46.23,0,.18,0,0,0a1.23,1.23,0,0,1-.33-.1s-.62-.3-.73-.59.27-.56.87.11a.84.84,0,0,0,.2.19.86.86,0,0,0,.38,0,3.81,3.81,0,0,0,.87-.35,3.8,3.8,0,0,1,1.84-.64,2.7,2.7,0,0,0,2.24-1.1,5.31,5.31,0,0,1,2-1.56,8.27,8.27,0,0,1,3.16-.22,14.83,14.83,0,0,1,2.6-.15,5.68,5.68,0,0,0,2.93.32c.93-.21,1.87,1,2.94-.56a1,1,0,0,1,1.13-.31,4.82,4.82,0,0,1,1.26.69,8.72,8.72,0,0,0,1.14.81,1.5,1.5,0,0,0,1.42-.18,1.32,1.32,0,0,1,1.8.2,15.2,15.2,0,0,1,1,1.49c1.11,1.4,2.48,1.77,4.19,2.35.73.27.22,1.46.82,2,2.1,2,3.41,4.75,4.74,7.42.49,1-.38,2.24.67,3,.34.26.44.87,1.27.57.64-.25,1.43-.39,1.63-1.21C133.54,260.52,133.19,259.28,133.31,257.83Z"/></svg>